%TF.GenerationSoftware,KiCad,Pcbnew,9.0.7*%
%TF.CreationDate,2026-03-23T11:31:46+01:00*%
%TF.ProjectId,LumaDome_Alim,4c756d61-446f-46d6-955f-416c696d2e6b,rev?*%
%TF.SameCoordinates,Original*%
%TF.FileFunction,Copper,L4,Bot*%
%TF.FilePolarity,Positive*%
%FSLAX46Y46*%
G04 Gerber Fmt 4.6, Leading zero omitted, Abs format (unit mm)*
G04 Created by KiCad (PCBNEW 9.0.7) date 2026-03-23 11:31:46*
%MOMM*%
%LPD*%
G01*
G04 APERTURE LIST*
G04 Aperture macros list*
%AMRoundRect*
0 Rectangle with rounded corners*
0 $1 Rounding radius*
0 $2 $3 $4 $5 $6 $7 $8 $9 X,Y pos of 4 corners*
0 Add a 4 corners polygon primitive as box body*
4,1,4,$2,$3,$4,$5,$6,$7,$8,$9,$2,$3,0*
0 Add four circle primitives for the rounded corners*
1,1,$1+$1,$2,$3*
1,1,$1+$1,$4,$5*
1,1,$1+$1,$6,$7*
1,1,$1+$1,$8,$9*
0 Add four rect primitives between the rounded corners*
20,1,$1+$1,$2,$3,$4,$5,0*
20,1,$1+$1,$4,$5,$6,$7,0*
20,1,$1+$1,$6,$7,$8,$9,0*
20,1,$1+$1,$8,$9,$2,$3,0*%
G04 Aperture macros list end*
%TA.AperFunction,ComponentPad*%
%ADD10C,1.400000*%
%TD*%
%TA.AperFunction,ComponentPad*%
%ADD11C,0.700000*%
%TD*%
%TA.AperFunction,ComponentPad*%
%ADD12C,4.400000*%
%TD*%
%TA.AperFunction,HeatsinkPad*%
%ADD13O,1.000000X2.100000*%
%TD*%
%TA.AperFunction,HeatsinkPad*%
%ADD14O,1.000000X1.800000*%
%TD*%
%TA.AperFunction,HeatsinkPad*%
%ADD15C,0.600000*%
%TD*%
%TA.AperFunction,ComponentPad*%
%ADD16RoundRect,0.250000X-0.725000X0.600000X-0.725000X-0.600000X0.725000X-0.600000X0.725000X0.600000X0*%
%TD*%
%TA.AperFunction,ComponentPad*%
%ADD17O,1.950000X1.700000*%
%TD*%
%TA.AperFunction,ComponentPad*%
%ADD18RoundRect,0.750000X-0.750000X-0.750000X0.750000X-0.750000X0.750000X0.750000X-0.750000X0.750000X0*%
%TD*%
%TA.AperFunction,ComponentPad*%
%ADD19C,3.000000*%
%TD*%
%TA.AperFunction,ComponentPad*%
%ADD20C,1.500000*%
%TD*%
%TA.AperFunction,WasherPad*%
%ADD21C,0.600000*%
%TD*%
%TA.AperFunction,ComponentPad*%
%ADD22C,0.800000*%
%TD*%
%TA.AperFunction,ViaPad*%
%ADD23C,0.600000*%
%TD*%
%TA.AperFunction,ViaPad*%
%ADD24C,0.450000*%
%TD*%
%TA.AperFunction,Conductor*%
%ADD25C,0.200000*%
%TD*%
%TA.AperFunction,Conductor*%
%ADD26C,1.200000*%
%TD*%
%TA.AperFunction,Conductor*%
%ADD27C,2.000000*%
%TD*%
G04 APERTURE END LIST*
D10*
%TO.P,U3,1,Vin*%
%TO.N,/Power/SW_Sortie*%
X229187500Y-68792500D03*
%TO.P,U3,2,GND*%
%TO.N,GND*%
X229187500Y-66252500D03*
%TO.P,U3,3,Vout*%
%TO.N,+5V*%
X229187500Y-63712500D03*
%TD*%
D11*
%TO.P,H102,1,1*%
%TO.N,GND*%
X227383274Y-93000000D03*
X227866548Y-91833274D03*
X227866548Y-94166726D03*
X229033274Y-91350000D03*
D12*
X229033274Y-93000000D03*
D11*
X229033274Y-94650000D03*
X230200000Y-91833274D03*
X230200000Y-94166726D03*
X230683274Y-93000000D03*
%TD*%
D13*
%TO.P,J1,S1,SHIELD*%
%TO.N,GND*%
X180780000Y-89385000D03*
D14*
X180780000Y-93565000D03*
D13*
X189420000Y-89385000D03*
D14*
X189420000Y-93565000D03*
%TD*%
D15*
%TO.P,U6,39,GND*%
%TO.N,GND*%
X193100000Y-52760000D03*
X193100000Y-54160000D03*
X193800000Y-52060000D03*
X193800000Y-53460000D03*
X193800000Y-54860000D03*
X194500000Y-52760000D03*
X194500000Y-54160000D03*
X195200000Y-52060000D03*
X195200000Y-53460000D03*
X195200000Y-54860000D03*
X195900000Y-52760000D03*
X195900000Y-54160000D03*
%TD*%
D11*
%TO.P,H101,1,1*%
%TO.N,GND*%
X161150000Y-93000000D03*
X161633274Y-91833274D03*
X161633274Y-94166726D03*
X162800000Y-91350000D03*
D12*
X162800000Y-93000000D03*
D11*
X162800000Y-94650000D03*
X163966726Y-91833274D03*
X163966726Y-94166726D03*
X164450000Y-93000000D03*
%TD*%
D16*
%TO.P,J8,1,Pin_1*%
%TO.N,/ESP 32/DIN*%
X227425000Y-45600000D03*
D17*
%TO.P,J8,2,Pin_2*%
%TO.N,+5V*%
X227425000Y-48100000D03*
%TO.P,J8,3,Pin_3*%
%TO.N,GND*%
X227425000Y-50600000D03*
%TD*%
D11*
%TO.P,H1,1,1*%
%TO.N,GND*%
X161141300Y-39749980D03*
X161624574Y-38583254D03*
X161624574Y-40916706D03*
X162791300Y-38099980D03*
D12*
X162791300Y-39749980D03*
D11*
X162791300Y-41399980D03*
X163958026Y-38583254D03*
X163958026Y-40916706D03*
X164441300Y-39749980D03*
%TD*%
%TO.P,H2,1,1*%
%TO.N,GND*%
X227353680Y-39746320D03*
X227836954Y-38579594D03*
X227836954Y-40913046D03*
X229003680Y-38096320D03*
D12*
X229003680Y-39746320D03*
D11*
X229003680Y-41396320D03*
X230170406Y-38579594D03*
X230170406Y-40913046D03*
X230653680Y-39746320D03*
%TD*%
D18*
%TO.P,J3,1,Pin_1*%
%TO.N,GND*%
X205400000Y-91200000D03*
D19*
%TO.P,J3,2,Pin_2*%
%TO.N,+12V*%
X210400000Y-91200000D03*
%TD*%
D20*
%TO.P,U4,1,Vin*%
%TO.N,/Power/SW_Sortie*%
X176900000Y-57860000D03*
%TO.P,U4,2,GND*%
%TO.N,GND*%
X176900000Y-60400000D03*
%TO.P,U4,3,Vout*%
%TO.N,+3.3V*%
X176900000Y-62940000D03*
%TD*%
D21*
%TO.P,SW1,*%
%TO.N,*%
X195100000Y-86010000D03*
X197640000Y-86010000D03*
D22*
%TO.P,SW1,1,A*%
%TO.N,+12V*%
X195100000Y-75850000D03*
%TO.P,SW1,2,B*%
%TO.N,/Power/SW_Sortie*%
X195100000Y-78390000D03*
%TO.P,SW1,3,C*%
%TO.N,/USBC/Vout*%
X195100000Y-80930000D03*
%TD*%
D23*
%TO.N,GND*%
X222900000Y-77250000D03*
D24*
X171000000Y-37625000D03*
X198800000Y-95200000D03*
D23*
X182625000Y-77250000D03*
X178000000Y-83500000D03*
X214450000Y-60900000D03*
D24*
X169000000Y-37625000D03*
X160800000Y-74600000D03*
X177800000Y-95200000D03*
D23*
X201800000Y-91800000D03*
X164500000Y-69875000D03*
X182000000Y-71875000D03*
D24*
X165800000Y-95200000D03*
X160800000Y-81600000D03*
D23*
X175600000Y-48300000D03*
D24*
X160800000Y-48600000D03*
X216800000Y-95200000D03*
D23*
X183000000Y-67625000D03*
D24*
X160800000Y-70600000D03*
D23*
X220000000Y-65450000D03*
X212600000Y-65450000D03*
X206000000Y-83000000D03*
X202600000Y-94000000D03*
D24*
X231000000Y-75400000D03*
D23*
X171000000Y-61050000D03*
X213800000Y-66650000D03*
D24*
X189800000Y-95200000D03*
X164800000Y-95200000D03*
D23*
X166600000Y-82600000D03*
X204750000Y-45740000D03*
X220000000Y-66650000D03*
D24*
X167000000Y-37625000D03*
D23*
X176000000Y-90000000D03*
D24*
X168800000Y-95200000D03*
X226800000Y-95200000D03*
X166800000Y-95200000D03*
D23*
X195900000Y-53460000D03*
D24*
X160800000Y-60600000D03*
X160800000Y-52600000D03*
D23*
X172200000Y-61050000D03*
X215650000Y-59700000D03*
D24*
X212800000Y-95200000D03*
D23*
X172375000Y-71625000D03*
D24*
X231000000Y-77400000D03*
D23*
X169625000Y-71625000D03*
D24*
X218800000Y-95200000D03*
D23*
X181200000Y-84200000D03*
D24*
X217800000Y-95200000D03*
D23*
X169800000Y-61050000D03*
X213800000Y-65450000D03*
X231000000Y-50300000D03*
D24*
X231000000Y-70400000D03*
D23*
X165250000Y-41500000D03*
X187250000Y-45740000D03*
D24*
X160800000Y-85600000D03*
D23*
X171000000Y-62250000D03*
D24*
X196800000Y-95200000D03*
X160800000Y-86600000D03*
D23*
X225900000Y-88650000D03*
D24*
X160800000Y-87600000D03*
D23*
X225900000Y-90150000D03*
D24*
X193800000Y-95200000D03*
D23*
X193100000Y-52060000D03*
X173625000Y-70125000D03*
D24*
X221800000Y-95200000D03*
X200800000Y-95200000D03*
D23*
X205000000Y-65250000D03*
X178050000Y-49200000D03*
D24*
X231000000Y-88400000D03*
D23*
X178050000Y-48000000D03*
D24*
X160800000Y-49600000D03*
X160800000Y-90600000D03*
X231000000Y-60600000D03*
D23*
X195900000Y-54860000D03*
D24*
X220750000Y-37625000D03*
X160800000Y-89600000D03*
X231000000Y-42875000D03*
X160800000Y-42600000D03*
D23*
X211400000Y-65450000D03*
D24*
X183800000Y-95200000D03*
D23*
X204000000Y-87600000D03*
X231000000Y-52900000D03*
X214450000Y-59700000D03*
D24*
X214800000Y-95200000D03*
X160800000Y-76600000D03*
X231000000Y-84400000D03*
D23*
X184125000Y-57125000D03*
D24*
X160800000Y-45600000D03*
X187800000Y-95200000D03*
X231000000Y-85400000D03*
X223750000Y-37625000D03*
X209800000Y-95200000D03*
X172800000Y-95200000D03*
D23*
X170875000Y-82625000D03*
X175400000Y-73600000D03*
D24*
X231000000Y-68400000D03*
D23*
X215650000Y-60900000D03*
X222900000Y-78750000D03*
D24*
X231000000Y-64400000D03*
D23*
X165800000Y-54250000D03*
X192500000Y-59600000D03*
X164600000Y-62250000D03*
X217600000Y-66650000D03*
D24*
X169800000Y-95200000D03*
X168000000Y-37625000D03*
D23*
X165800000Y-61050000D03*
X198700000Y-47800000D03*
D24*
X181800000Y-95200000D03*
X231000000Y-65400000D03*
X231000000Y-41875000D03*
D23*
X163400000Y-53050000D03*
D24*
X170800000Y-95200000D03*
X223800000Y-95200000D03*
X173800000Y-95200000D03*
X160800000Y-82600000D03*
X204800000Y-95200000D03*
X171800000Y-95200000D03*
X202800000Y-95200000D03*
D23*
X164600000Y-61050000D03*
D24*
X160800000Y-46600000D03*
X231000000Y-76400000D03*
X197800000Y-95200000D03*
D23*
X224400000Y-77250000D03*
X185000000Y-45200000D03*
D24*
X165000000Y-37625000D03*
D23*
X190750000Y-72375000D03*
D24*
X194800000Y-95200000D03*
X160800000Y-67600000D03*
X231000000Y-83400000D03*
D23*
X177125000Y-71750000D03*
D24*
X231000000Y-61400000D03*
X167800000Y-95200000D03*
D23*
X228750000Y-81625000D03*
D24*
X195800000Y-95200000D03*
X160800000Y-47600000D03*
D23*
X171000000Y-54250000D03*
X176850000Y-49200000D03*
X231000000Y-49100000D03*
X230900000Y-58500000D03*
D24*
X190800000Y-95200000D03*
D23*
X194500000Y-54860000D03*
D24*
X160800000Y-43600000D03*
X160800000Y-50600000D03*
D23*
X178600000Y-73600000D03*
D24*
X222750000Y-37625000D03*
D23*
X222900000Y-90150000D03*
X212770000Y-51575000D03*
X171000000Y-86800000D03*
D24*
X160800000Y-66600000D03*
X184800000Y-95200000D03*
X160800000Y-58600000D03*
D23*
X171625000Y-74000000D03*
D24*
X174800000Y-95200000D03*
X199800000Y-95200000D03*
X192800000Y-95200000D03*
D23*
X212600000Y-66650000D03*
X166500000Y-85750000D03*
X224400000Y-90150000D03*
X169800000Y-53050000D03*
X215310000Y-51575000D03*
D24*
X205800000Y-95200000D03*
D23*
X214450000Y-62100000D03*
X204125000Y-65250000D03*
X172200000Y-54250000D03*
X230900000Y-56100000D03*
D24*
X170000000Y-37625000D03*
X160800000Y-65600000D03*
X231000000Y-89400000D03*
X160800000Y-68600000D03*
D23*
X215650000Y-62100000D03*
X205600000Y-87600000D03*
X211400000Y-66650000D03*
D24*
X231000000Y-80400000D03*
D23*
X173250000Y-88875000D03*
X163250000Y-84125000D03*
D24*
X231000000Y-79400000D03*
X188800000Y-95200000D03*
D23*
X231000000Y-51500000D03*
X210230000Y-46625000D03*
D24*
X206800000Y-95200000D03*
X231000000Y-72400000D03*
D23*
X176310000Y-78890000D03*
D24*
X160800000Y-41600000D03*
X180800000Y-95200000D03*
X231000000Y-74400000D03*
X185800000Y-95200000D03*
X231000000Y-82400000D03*
X166000000Y-37625000D03*
D23*
X188400000Y-84400000D03*
X195900000Y-52060000D03*
X225900000Y-78750000D03*
X222900000Y-88650000D03*
X207690000Y-51575000D03*
D24*
X160800000Y-44600000D03*
X231000000Y-71400000D03*
X215800000Y-95200000D03*
D23*
X165800000Y-62250000D03*
X189125000Y-77125000D03*
X185600000Y-84250000D03*
D24*
X231000000Y-78400000D03*
X160800000Y-80600000D03*
D23*
X172200000Y-62250000D03*
X193100000Y-53460000D03*
X165800000Y-53050000D03*
X229700000Y-56100000D03*
D24*
X231000000Y-62400000D03*
X231000000Y-86400000D03*
X160800000Y-62600000D03*
X225800000Y-95200000D03*
D23*
X181625000Y-78375000D03*
D24*
X160800000Y-64600000D03*
D23*
X218800000Y-66650000D03*
D24*
X160800000Y-57600000D03*
X160800000Y-83600000D03*
D23*
X202400000Y-88400000D03*
X205230000Y-68250000D03*
D24*
X231000000Y-81400000D03*
D23*
X229700000Y-58500000D03*
X193100000Y-54860000D03*
X224400000Y-78750000D03*
X177510000Y-78890000D03*
D24*
X231000000Y-87400000D03*
D23*
X194500000Y-52060000D03*
D24*
X160800000Y-71600000D03*
X160800000Y-84600000D03*
D23*
X184125000Y-59125000D03*
D24*
X225750000Y-37625000D03*
X160800000Y-79600000D03*
X224750000Y-37625000D03*
D23*
X225900000Y-77250000D03*
X224400000Y-88650000D03*
X163400000Y-54250000D03*
X176850000Y-46800000D03*
X230900000Y-57300000D03*
X191000000Y-77200000D03*
D24*
X160800000Y-69600000D03*
D23*
X229700000Y-57300000D03*
X178875000Y-88250000D03*
X178050000Y-46800000D03*
D24*
X179800000Y-95200000D03*
D23*
X184000000Y-70000000D03*
D24*
X231000000Y-43875000D03*
D23*
X174375000Y-71750000D03*
D24*
X211800000Y-95200000D03*
X160800000Y-59600000D03*
X226750000Y-37625000D03*
X160800000Y-56600000D03*
X160800000Y-75600000D03*
D23*
X169800000Y-54250000D03*
D24*
X160800000Y-63600000D03*
D23*
X184125000Y-61125000D03*
D24*
X160800000Y-53600000D03*
D23*
X174000000Y-83750000D03*
D24*
X160800000Y-78600000D03*
D23*
X201800000Y-93200000D03*
D24*
X160800000Y-55600000D03*
X207800000Y-95200000D03*
D23*
X162750000Y-80250000D03*
D24*
X175800000Y-95200000D03*
D23*
X205230000Y-72150000D03*
D24*
X191800000Y-95200000D03*
X224800000Y-95200000D03*
X221750000Y-37625000D03*
X231000000Y-63400000D03*
D23*
X169800000Y-62250000D03*
D24*
X176800000Y-95200000D03*
D23*
X163400000Y-61050000D03*
X203960000Y-68250000D03*
D24*
X160800000Y-72600000D03*
D23*
X206500000Y-72150000D03*
X201800000Y-90000000D03*
D24*
X160800000Y-77600000D03*
D23*
X165375000Y-84250000D03*
X164600000Y-54250000D03*
D24*
X160800000Y-73600000D03*
X222800000Y-95200000D03*
X160800000Y-88600000D03*
D23*
X176850000Y-48000000D03*
X177510000Y-80090000D03*
D24*
X231000000Y-66400000D03*
D23*
X172200000Y-53050000D03*
D24*
X231000000Y-73400000D03*
X231000000Y-67400000D03*
D23*
X221270000Y-53550000D03*
D24*
X231000000Y-46000000D03*
D23*
X172500000Y-81125000D03*
D24*
X203800000Y-95200000D03*
D23*
X178375000Y-70250000D03*
D24*
X201800000Y-95200000D03*
X231000000Y-69400000D03*
D23*
X164400000Y-82600000D03*
D24*
X219800000Y-95200000D03*
D23*
X184000000Y-84200000D03*
D24*
X220800000Y-95200000D03*
X210800000Y-95200000D03*
D23*
X217600000Y-65450000D03*
D24*
X231000000Y-44875000D03*
D23*
X226900000Y-41800000D03*
X171000000Y-53050000D03*
X221500000Y-38375000D03*
X181900000Y-88810000D03*
X231000000Y-47900000D03*
X214040000Y-46625000D03*
X169375000Y-78000000D03*
X203250000Y-65250000D03*
X198625000Y-67250000D03*
X177000000Y-73600000D03*
D24*
X178800000Y-95200000D03*
X160800000Y-51600000D03*
D23*
X176000000Y-70250000D03*
D24*
X160800000Y-54600000D03*
D23*
X183200000Y-51800000D03*
X188300000Y-88810000D03*
D24*
X231000000Y-90400000D03*
D23*
X218800000Y-65450000D03*
D24*
X208800000Y-95200000D03*
D23*
X176310000Y-80090000D03*
D24*
X231000000Y-47000000D03*
D23*
X164600000Y-53050000D03*
X163400000Y-62250000D03*
X194500000Y-53460000D03*
X190285000Y-63500000D03*
D24*
X182800000Y-95200000D03*
X160800000Y-61600000D03*
D23*
X173500000Y-76875000D03*
X167750000Y-84250000D03*
D24*
X213800000Y-95200000D03*
X186800000Y-95200000D03*
D23*
X171250000Y-70125000D03*
%TO.N,VUSB*%
X179600000Y-86400000D03*
X180600000Y-70200000D03*
X195400000Y-73000000D03*
%TO.N,/USBC/3.3V_intern*%
X169400000Y-75400000D03*
X178800000Y-76600000D03*
%TO.N,/USBC/Vout*%
X182307815Y-81492185D03*
X181400000Y-83200000D03*
X189200000Y-66800000D03*
%TO.N,Net-(C14-Pad2)*%
X193400000Y-74400000D03*
X189800000Y-76000000D03*
%TO.N,+12V*%
X197800000Y-75800000D03*
X212800000Y-86600000D03*
X212200000Y-85200000D03*
X211400000Y-75800000D03*
%TO.N,+5V*%
X208960000Y-46625000D03*
X207690000Y-46625000D03*
X211500000Y-51575000D03*
X212770000Y-46625000D03*
X221500000Y-44175000D03*
%TO.N,+3.3V*%
X172200000Y-66150000D03*
X165800000Y-67350000D03*
X211255000Y-63000000D03*
X169800000Y-67350000D03*
X181950000Y-46800000D03*
X163400000Y-67350000D03*
X171000000Y-66150000D03*
X221270000Y-49650000D03*
X187250000Y-47010000D03*
X181950000Y-48000000D03*
X172200000Y-67350000D03*
X175600000Y-53100000D03*
X183200000Y-53600000D03*
X185000000Y-47800000D03*
X181950000Y-49200000D03*
X183150000Y-46800000D03*
X208700000Y-65575000D03*
X171000000Y-67350000D03*
X164600000Y-67350000D03*
X183150000Y-49200000D03*
X206500000Y-68250000D03*
X164600000Y-66150000D03*
X163400000Y-66150000D03*
X169800000Y-66150000D03*
X183150000Y-48000000D03*
X165800000Y-66150000D03*
%TO.N,/ESP 32/EN*%
X217000000Y-53800000D03*
X207600000Y-58300000D03*
%TO.N,Net-(U1-VBUS_FET_EN)*%
X165800000Y-76000000D03*
X173800000Y-79800000D03*
%TO.N,/ESP 32/ESP_TDI*%
X189200000Y-62000000D03*
X201400000Y-65800000D03*
%TO.N,/ESP 32/ESP_TXD*%
X215500000Y-49400000D03*
X203600000Y-49400000D03*
%TO.N,/ESP 32/ESP_IO0*%
X219500000Y-47000000D03*
X203499998Y-60800000D03*
%TO.N,Net-(U6-IO16)*%
X206800000Y-65200000D03*
X203000000Y-59800000D03*
%TO.N,/ESP 32/GPIO_lvl_shfit*%
X203000000Y-47200000D03*
X206300000Y-47200000D03*
%TO.N,Net-(J1-CC1)*%
X182625000Y-86625000D03*
X186750000Y-86625000D03*
%TD*%
D25*
%TO.N,VUSB*%
X196401000Y-81468892D02*
X195638892Y-82231000D01*
D26*
X179600000Y-84242950D02*
X180200000Y-83642950D01*
X180200000Y-83642950D02*
X180200000Y-79400000D01*
X180200000Y-70600000D02*
X180600000Y-70200000D01*
D25*
X181200000Y-79400000D02*
X180200000Y-79400000D01*
D26*
X179600000Y-86400000D02*
X179600000Y-84242950D01*
D25*
X184031000Y-82231000D02*
X181200000Y-79400000D01*
D26*
X180200000Y-71000000D02*
X180200000Y-70600000D01*
X180200000Y-79400000D02*
X180200000Y-71000000D01*
D25*
X196401000Y-74001000D02*
X196401000Y-81468892D01*
X195638892Y-82231000D02*
X184031000Y-82231000D01*
X195400000Y-73000000D02*
X196401000Y-74001000D01*
%TO.N,/USBC/3.3V_intern*%
X178000000Y-75400000D02*
X169400000Y-75400000D01*
X178800000Y-76200000D02*
X178000000Y-75400000D01*
X178800000Y-76600000D02*
X178800000Y-76200000D01*
%TO.N,/USBC/Vout*%
X182307815Y-82292185D02*
X182307815Y-81492185D01*
D27*
X188730000Y-80930000D02*
X195100000Y-80930000D01*
X186200000Y-78400000D02*
X188730000Y-80930000D01*
X186200000Y-72200000D02*
X186200000Y-78400000D01*
D25*
X181400000Y-83200000D02*
X182307815Y-82292185D01*
X188600000Y-69800000D02*
X189200000Y-69800000D01*
D27*
X189200000Y-69200000D02*
X188600000Y-69800000D01*
X189200000Y-66800000D02*
X189200000Y-69200000D01*
X188600000Y-69800000D02*
X186200000Y-72200000D01*
D25*
%TO.N,Net-(C14-Pad2)*%
X193400000Y-74400000D02*
X191800000Y-76000000D01*
X191800000Y-76000000D02*
X189800000Y-76000000D01*
D27*
%TO.N,+12V*%
X211400000Y-75800000D02*
X197800000Y-75800000D01*
D25*
%TO.N,/ESP 32/EN*%
X212100000Y-53800000D02*
X217000000Y-53800000D01*
X207900000Y-58000000D02*
X212100000Y-53800000D01*
X207900000Y-58000000D02*
X207600000Y-58300000D01*
%TO.N,Net-(U1-VBUS_FET_EN)*%
X173800000Y-79800000D02*
X173800000Y-79600000D01*
X173800000Y-79600000D02*
X170200000Y-76000000D01*
X170200000Y-76000000D02*
X165800000Y-76000000D01*
%TO.N,/ESP 32/ESP_TDI*%
X197600000Y-62000000D02*
X201400000Y-65800000D01*
X189200000Y-62000000D02*
X197600000Y-62000000D01*
%TO.N,/ESP 32/ESP_TXD*%
X215500000Y-49400000D02*
X203600000Y-49400000D01*
%TO.N,/ESP 32/ESP_IO0*%
X211100998Y-53199000D02*
X203499998Y-60800000D01*
X219500000Y-47000000D02*
X219000000Y-47000000D01*
X212801000Y-53199000D02*
X211100998Y-53199000D01*
X219000000Y-47000000D02*
X212801000Y-53199000D01*
%TO.N,Net-(U6-IO16)*%
X204800000Y-63800000D02*
X202600000Y-61600000D01*
X205400000Y-63800000D02*
X204800000Y-63800000D01*
X202600000Y-61600000D02*
X202600000Y-60200000D01*
X206800000Y-65200000D02*
X205400000Y-63800000D01*
X202600000Y-60200000D02*
X203000000Y-59800000D01*
%TO.N,/ESP 32/GPIO_lvl_shfit*%
X206300000Y-47200000D02*
X203000000Y-47200000D01*
%TO.N,Net-(J1-CC1)*%
X186750000Y-86625000D02*
X186750000Y-86250000D01*
X183000000Y-85500000D02*
X182625000Y-85875000D01*
X186750000Y-86250000D02*
X186000000Y-85500000D01*
X182625000Y-85875000D02*
X182625000Y-86625000D01*
X186000000Y-85500000D02*
X183000000Y-85500000D01*
%TD*%
%TA.AperFunction,Conductor*%
%TO.N,GND*%
G36*
X229068247Y-37250724D02*
G01*
X229297482Y-37264589D01*
X229312340Y-37266393D01*
X229594475Y-37318095D01*
X229609008Y-37321677D01*
X229779091Y-37374676D01*
X229882859Y-37407011D01*
X229896860Y-37412321D01*
X230158422Y-37530039D01*
X230171680Y-37536997D01*
X230417150Y-37685389D01*
X230429461Y-37693887D01*
X230655259Y-37870788D01*
X230666467Y-37880718D01*
X230869281Y-38083532D01*
X230879211Y-38094740D01*
X231056108Y-38320532D01*
X231064614Y-38332855D01*
X231213001Y-38578318D01*
X231219960Y-38591577D01*
X231337678Y-38853139D01*
X231342988Y-38867140D01*
X231428321Y-39140988D01*
X231431904Y-39155527D01*
X231483605Y-39437655D01*
X231485410Y-39452520D01*
X231502953Y-39742576D01*
X231503179Y-39750071D01*
X231499504Y-92926476D01*
X231499504Y-92934068D01*
X231499504Y-92934092D01*
X231499500Y-92934108D01*
X231499500Y-92988763D01*
X231499500Y-92996249D01*
X231499274Y-93003736D01*
X231481728Y-93293794D01*
X231479923Y-93308659D01*
X231428219Y-93590798D01*
X231424635Y-93605336D01*
X231339306Y-93879167D01*
X231333997Y-93893168D01*
X231216275Y-94154736D01*
X231209316Y-94167995D01*
X231060928Y-94413459D01*
X231052422Y-94425782D01*
X230875526Y-94651573D01*
X230865596Y-94662781D01*
X230662781Y-94865596D01*
X230651573Y-94875526D01*
X230425782Y-95052422D01*
X230413459Y-95060928D01*
X230167995Y-95209316D01*
X230154736Y-95216275D01*
X229893168Y-95333997D01*
X229879167Y-95339306D01*
X229605336Y-95424635D01*
X229590798Y-95428219D01*
X229308659Y-95479923D01*
X229293794Y-95481728D01*
X229003736Y-95499274D01*
X228996249Y-95499500D01*
X162803751Y-95499500D01*
X162796264Y-95499274D01*
X162506205Y-95481728D01*
X162491340Y-95479923D01*
X162209201Y-95428219D01*
X162194663Y-95424635D01*
X161920832Y-95339306D01*
X161906831Y-95333997D01*
X161645263Y-95216275D01*
X161632004Y-95209316D01*
X161386540Y-95060928D01*
X161374217Y-95052422D01*
X161148426Y-94875526D01*
X161137218Y-94865596D01*
X160934403Y-94662781D01*
X160924473Y-94651573D01*
X160885997Y-94602462D01*
X160747573Y-94425776D01*
X160739075Y-94413465D01*
X160590680Y-94167989D01*
X160583727Y-94154743D01*
X160466000Y-93893163D01*
X160460696Y-93879177D01*
X160375363Y-93605335D01*
X160371780Y-93590798D01*
X160320076Y-93308659D01*
X160318271Y-93293794D01*
X160312628Y-93200499D01*
X160304523Y-93066504D01*
X179780000Y-93066504D01*
X179780000Y-93315000D01*
X180480000Y-93315000D01*
X180480000Y-93815000D01*
X179780000Y-93815000D01*
X179780000Y-94063495D01*
X179818427Y-94256681D01*
X179818430Y-94256693D01*
X179893807Y-94438671D01*
X179893814Y-94438684D01*
X180003248Y-94602462D01*
X180003251Y-94602466D01*
X180142533Y-94741748D01*
X180142537Y-94741751D01*
X180306315Y-94851185D01*
X180306328Y-94851192D01*
X180488308Y-94926569D01*
X180530000Y-94934862D01*
X180530000Y-94131988D01*
X180539940Y-94149205D01*
X180595795Y-94205060D01*
X180664204Y-94244556D01*
X180740504Y-94265000D01*
X180819496Y-94265000D01*
X180895796Y-94244556D01*
X180964205Y-94205060D01*
X181020060Y-94149205D01*
X181030000Y-94131988D01*
X181030000Y-94934862D01*
X181071690Y-94926569D01*
X181071692Y-94926569D01*
X181253671Y-94851192D01*
X181253684Y-94851185D01*
X181417462Y-94741751D01*
X181417466Y-94741748D01*
X181556748Y-94602466D01*
X181556751Y-94602462D01*
X181666185Y-94438684D01*
X181666192Y-94438671D01*
X181741569Y-94256693D01*
X181741572Y-94256681D01*
X181779999Y-94063495D01*
X181780000Y-94063492D01*
X181780000Y-93815000D01*
X181080000Y-93815000D01*
X181080000Y-93315000D01*
X181780000Y-93315000D01*
X181780000Y-93066508D01*
X181779999Y-93066504D01*
X188420000Y-93066504D01*
X188420000Y-93315000D01*
X189120000Y-93315000D01*
X189120000Y-93815000D01*
X188420000Y-93815000D01*
X188420000Y-94063495D01*
X188458427Y-94256681D01*
X188458430Y-94256693D01*
X188533807Y-94438671D01*
X188533814Y-94438684D01*
X188643248Y-94602462D01*
X188643251Y-94602466D01*
X188782533Y-94741748D01*
X188782537Y-94741751D01*
X188946315Y-94851185D01*
X188946328Y-94851192D01*
X189128308Y-94926569D01*
X189170000Y-94934862D01*
X189170000Y-94131988D01*
X189179940Y-94149205D01*
X189235795Y-94205060D01*
X189304204Y-94244556D01*
X189380504Y-94265000D01*
X189459496Y-94265000D01*
X189535796Y-94244556D01*
X189604205Y-94205060D01*
X189660060Y-94149205D01*
X189670000Y-94131988D01*
X189670000Y-94934862D01*
X189711690Y-94926569D01*
X189711692Y-94926569D01*
X189893671Y-94851192D01*
X189893684Y-94851185D01*
X190057462Y-94741751D01*
X190057466Y-94741748D01*
X190196748Y-94602466D01*
X190196751Y-94602462D01*
X190306185Y-94438684D01*
X190306192Y-94438671D01*
X190381569Y-94256693D01*
X190381572Y-94256681D01*
X190419999Y-94063495D01*
X190420000Y-94063492D01*
X190420000Y-93815000D01*
X189720000Y-93815000D01*
X189720000Y-93315000D01*
X190420000Y-93315000D01*
X190420000Y-93066508D01*
X190419999Y-93066504D01*
X190381572Y-92873318D01*
X190381569Y-92873306D01*
X190306192Y-92691328D01*
X190306185Y-92691315D01*
X190196751Y-92527537D01*
X190196748Y-92527533D01*
X190057466Y-92388251D01*
X190057462Y-92388248D01*
X189893684Y-92278814D01*
X189893671Y-92278807D01*
X189711691Y-92203429D01*
X189711683Y-92203427D01*
X189670000Y-92195135D01*
X189670000Y-92998011D01*
X189660060Y-92980795D01*
X189604205Y-92924940D01*
X189535796Y-92885444D01*
X189459496Y-92865000D01*
X189380504Y-92865000D01*
X189304204Y-92885444D01*
X189235795Y-92924940D01*
X189179940Y-92980795D01*
X189170000Y-92998011D01*
X189170000Y-92195136D01*
X189169999Y-92195135D01*
X189128316Y-92203427D01*
X189128308Y-92203429D01*
X188946328Y-92278807D01*
X188946315Y-92278814D01*
X188782537Y-92388248D01*
X188782533Y-92388251D01*
X188643251Y-92527533D01*
X188643248Y-92527537D01*
X188533814Y-92691315D01*
X188533807Y-92691328D01*
X188458430Y-92873306D01*
X188458427Y-92873318D01*
X188420000Y-93066504D01*
X181779999Y-93066504D01*
X181741572Y-92873318D01*
X181741569Y-92873306D01*
X181666192Y-92691328D01*
X181666185Y-92691315D01*
X181556751Y-92527537D01*
X181556748Y-92527533D01*
X181417466Y-92388251D01*
X181417462Y-92388248D01*
X181253684Y-92278814D01*
X181253671Y-92278807D01*
X181071691Y-92203429D01*
X181071683Y-92203427D01*
X181030000Y-92195135D01*
X181030000Y-92998011D01*
X181020060Y-92980795D01*
X180964205Y-92924940D01*
X180895796Y-92885444D01*
X180819496Y-92865000D01*
X180740504Y-92865000D01*
X180664204Y-92885444D01*
X180595795Y-92924940D01*
X180539940Y-92980795D01*
X180530000Y-92998011D01*
X180530000Y-92195136D01*
X180529999Y-92195135D01*
X180488316Y-92203427D01*
X180488308Y-92203429D01*
X180306328Y-92278807D01*
X180306315Y-92278814D01*
X180142537Y-92388248D01*
X180142533Y-92388251D01*
X180003251Y-92527533D01*
X180003248Y-92527537D01*
X179893814Y-92691315D01*
X179893807Y-92691328D01*
X179818430Y-92873306D01*
X179818427Y-92873318D01*
X179780000Y-93066504D01*
X160304523Y-93066504D01*
X160300726Y-93003735D01*
X160300500Y-92996249D01*
X160300500Y-92925888D01*
X160300487Y-92925713D01*
X160299804Y-88736504D01*
X179780000Y-88736504D01*
X179780000Y-89135000D01*
X180480000Y-89135000D01*
X180480000Y-89635000D01*
X179780000Y-89635000D01*
X179780000Y-90033495D01*
X179818427Y-90226681D01*
X179818430Y-90226693D01*
X179893807Y-90408671D01*
X179893814Y-90408684D01*
X180003248Y-90572462D01*
X180003251Y-90572466D01*
X180142533Y-90711748D01*
X180142537Y-90711751D01*
X180306315Y-90821185D01*
X180306328Y-90821192D01*
X180488308Y-90896569D01*
X180530000Y-90904862D01*
X180530000Y-90101988D01*
X180539940Y-90119205D01*
X180595795Y-90175060D01*
X180664204Y-90214556D01*
X180740504Y-90235000D01*
X180819496Y-90235000D01*
X180895796Y-90214556D01*
X180964205Y-90175060D01*
X181020060Y-90119205D01*
X181030000Y-90101988D01*
X181030000Y-90904862D01*
X181071690Y-90896569D01*
X181071692Y-90896569D01*
X181253671Y-90821192D01*
X181253684Y-90821185D01*
X181417462Y-90711751D01*
X181417466Y-90711748D01*
X181556748Y-90572466D01*
X181556751Y-90572462D01*
X181666185Y-90408684D01*
X181666192Y-90408671D01*
X181731583Y-90250802D01*
X181775423Y-90196398D01*
X181841718Y-90174333D01*
X181909417Y-90191612D01*
X181933825Y-90210573D01*
X181948737Y-90225485D01*
X182045763Y-90281503D01*
X182153982Y-90310500D01*
X182153984Y-90310500D01*
X182266016Y-90310500D01*
X182266018Y-90310500D01*
X182374237Y-90281503D01*
X182471263Y-90225485D01*
X182550485Y-90146263D01*
X182606503Y-90049237D01*
X182635500Y-89941018D01*
X182635500Y-89828982D01*
X187564500Y-89828982D01*
X187564500Y-89941018D01*
X187593497Y-90049237D01*
X187649515Y-90146263D01*
X187728737Y-90225485D01*
X187825763Y-90281503D01*
X187933982Y-90310500D01*
X187933984Y-90310500D01*
X188046016Y-90310500D01*
X188046018Y-90310500D01*
X188154237Y-90281503D01*
X188251263Y-90225485D01*
X188266174Y-90210573D01*
X188327494Y-90177088D01*
X188397186Y-90182071D01*
X188453120Y-90223941D01*
X188468416Y-90250801D01*
X188533809Y-90408675D01*
X188533814Y-90408684D01*
X188643248Y-90572462D01*
X188643251Y-90572466D01*
X188782533Y-90711748D01*
X188782537Y-90711751D01*
X188946315Y-90821185D01*
X188946328Y-90821192D01*
X189128308Y-90896569D01*
X189170000Y-90904862D01*
X189170000Y-90101988D01*
X189179940Y-90119205D01*
X189235795Y-90175060D01*
X189304204Y-90214556D01*
X189380504Y-90235000D01*
X189459496Y-90235000D01*
X189535796Y-90214556D01*
X189604205Y-90175060D01*
X189660060Y-90119205D01*
X189670000Y-90101988D01*
X189670000Y-90904862D01*
X189711690Y-90896569D01*
X189711692Y-90896569D01*
X189893671Y-90821192D01*
X189893684Y-90821185D01*
X190057462Y-90711751D01*
X190057466Y-90711748D01*
X190196748Y-90572466D01*
X190196751Y-90572462D01*
X190306185Y-90408684D01*
X190306190Y-90408675D01*
X190315664Y-90385803D01*
X203400000Y-90385803D01*
X203400000Y-90950000D01*
X204532096Y-90950000D01*
X204500000Y-91111358D01*
X204500000Y-91288642D01*
X204532096Y-91450000D01*
X203400001Y-91450000D01*
X203400001Y-92014197D01*
X203410400Y-92146332D01*
X203465377Y-92364519D01*
X203558428Y-92569374D01*
X203558431Y-92569380D01*
X203686559Y-92754323D01*
X203686569Y-92754335D01*
X203845664Y-92913430D01*
X203845676Y-92913440D01*
X204030619Y-93041568D01*
X204030625Y-93041571D01*
X204235480Y-93134622D01*
X204453667Y-93189599D01*
X204585810Y-93199999D01*
X205149999Y-93199999D01*
X205150000Y-93199998D01*
X205150000Y-92067904D01*
X205311358Y-92100000D01*
X205488642Y-92100000D01*
X205650000Y-92067904D01*
X205650000Y-93199999D01*
X206214182Y-93199999D01*
X206214197Y-93199998D01*
X206346332Y-93189599D01*
X206564519Y-93134622D01*
X206769374Y-93041571D01*
X206769380Y-93041568D01*
X206954323Y-92913440D01*
X206954335Y-92913430D01*
X207113430Y-92754335D01*
X207113440Y-92754323D01*
X207241568Y-92569380D01*
X207241571Y-92569374D01*
X207334622Y-92364519D01*
X207389599Y-92146332D01*
X207399999Y-92014196D01*
X207400000Y-92014184D01*
X207400000Y-91450000D01*
X206267904Y-91450000D01*
X206300000Y-91288642D01*
X206300000Y-91111358D01*
X206291549Y-91068872D01*
X208399500Y-91068872D01*
X208399500Y-91331127D01*
X208426123Y-91533339D01*
X208433730Y-91591116D01*
X208482658Y-91773717D01*
X208501602Y-91844418D01*
X208501605Y-91844428D01*
X208601953Y-92086690D01*
X208601958Y-92086700D01*
X208733075Y-92313803D01*
X208892718Y-92521851D01*
X208892726Y-92521860D01*
X209078140Y-92707274D01*
X209078148Y-92707281D01*
X209286196Y-92866924D01*
X209513299Y-92998041D01*
X209513309Y-92998046D01*
X209755571Y-93098394D01*
X209755581Y-93098398D01*
X210008884Y-93166270D01*
X210257188Y-93198960D01*
X210265074Y-93199999D01*
X210268880Y-93200500D01*
X210268887Y-93200500D01*
X210531113Y-93200500D01*
X210531120Y-93200500D01*
X210791116Y-93166270D01*
X211044419Y-93098398D01*
X211272953Y-93003736D01*
X211286690Y-92998046D01*
X211286691Y-92998045D01*
X211286697Y-92998043D01*
X211513803Y-92866924D01*
X211721851Y-92707282D01*
X211721855Y-92707277D01*
X211721860Y-92707274D01*
X211907274Y-92521860D01*
X211907277Y-92521855D01*
X211907282Y-92521851D01*
X212066924Y-92313803D01*
X212198043Y-92086697D01*
X212298398Y-91844419D01*
X212366270Y-91591116D01*
X212400500Y-91331120D01*
X212400500Y-91068880D01*
X212366270Y-90808884D01*
X212298398Y-90555581D01*
X212298394Y-90555571D01*
X212198046Y-90313309D01*
X212198041Y-90313299D01*
X212066924Y-90086196D01*
X211907281Y-89878148D01*
X211907274Y-89878140D01*
X211721860Y-89692726D01*
X211721851Y-89692718D01*
X211513803Y-89533075D01*
X211286700Y-89401958D01*
X211286690Y-89401953D01*
X211044428Y-89301605D01*
X211044421Y-89301603D01*
X211044419Y-89301602D01*
X210791116Y-89233730D01*
X210733339Y-89226123D01*
X210531127Y-89199500D01*
X210531120Y-89199500D01*
X210268880Y-89199500D01*
X210268872Y-89199500D01*
X210037772Y-89229926D01*
X210008884Y-89233730D01*
X209755581Y-89301602D01*
X209755571Y-89301605D01*
X209513309Y-89401953D01*
X209513299Y-89401958D01*
X209286196Y-89533075D01*
X209078148Y-89692718D01*
X208892718Y-89878148D01*
X208733075Y-90086196D01*
X208601958Y-90313299D01*
X208601953Y-90313309D01*
X208501605Y-90555571D01*
X208501602Y-90555581D01*
X208459758Y-90711748D01*
X208433730Y-90808885D01*
X208399500Y-91068872D01*
X206291549Y-91068872D01*
X206267904Y-90950000D01*
X207399999Y-90950000D01*
X207399999Y-90385817D01*
X207399998Y-90385802D01*
X207389599Y-90253667D01*
X207334622Y-90035480D01*
X207241571Y-89830625D01*
X207241568Y-89830619D01*
X207113440Y-89645676D01*
X207113430Y-89645664D01*
X206954335Y-89486569D01*
X206954323Y-89486559D01*
X206769380Y-89358431D01*
X206769374Y-89358428D01*
X206564519Y-89265377D01*
X206346332Y-89210400D01*
X206214196Y-89200000D01*
X205650000Y-89200000D01*
X205650000Y-90332095D01*
X205488642Y-90300000D01*
X205311358Y-90300000D01*
X205150000Y-90332095D01*
X205150000Y-89200000D01*
X204585817Y-89200000D01*
X204585802Y-89200001D01*
X204453667Y-89210400D01*
X204235480Y-89265377D01*
X204030625Y-89358428D01*
X204030619Y-89358431D01*
X203845676Y-89486559D01*
X203845664Y-89486569D01*
X203686569Y-89645664D01*
X203686559Y-89645676D01*
X203558431Y-89830619D01*
X203558428Y-89830625D01*
X203465377Y-90035480D01*
X203410400Y-90253667D01*
X203400000Y-90385803D01*
X190315664Y-90385803D01*
X190336326Y-90335921D01*
X190336326Y-90335919D01*
X190381569Y-90226693D01*
X190381572Y-90226681D01*
X190419999Y-90033495D01*
X190420000Y-90033492D01*
X190420000Y-89635000D01*
X189720000Y-89635000D01*
X189720000Y-89135000D01*
X190420000Y-89135000D01*
X190420000Y-88736508D01*
X190419999Y-88736504D01*
X190381572Y-88543318D01*
X190381569Y-88543306D01*
X190306192Y-88361328D01*
X190306185Y-88361315D01*
X190196751Y-88197537D01*
X190196748Y-88197533D01*
X190057466Y-88058251D01*
X190057462Y-88058248D01*
X189893684Y-87948814D01*
X189893671Y-87948807D01*
X189711691Y-87873429D01*
X189711683Y-87873427D01*
X189670000Y-87865135D01*
X189670000Y-88668011D01*
X189660060Y-88650795D01*
X189604205Y-88594940D01*
X189535796Y-88555444D01*
X189459496Y-88535000D01*
X189380504Y-88535000D01*
X189304204Y-88555444D01*
X189235795Y-88594940D01*
X189179940Y-88650795D01*
X189170000Y-88668011D01*
X189170000Y-87865136D01*
X189169999Y-87865135D01*
X189128316Y-87873427D01*
X189128308Y-87873429D01*
X188946328Y-87948807D01*
X188946315Y-87948814D01*
X188782537Y-88058248D01*
X188782533Y-88058251D01*
X188643251Y-88197533D01*
X188643248Y-88197537D01*
X188533814Y-88361315D01*
X188533807Y-88361328D01*
X188458430Y-88543306D01*
X188458427Y-88543318D01*
X188420000Y-88736504D01*
X188420000Y-89135000D01*
X189120000Y-89135000D01*
X189120000Y-89635000D01*
X188393110Y-89635000D01*
X188326071Y-89615315D01*
X188305429Y-89598681D01*
X188251265Y-89544517D01*
X188251263Y-89544515D01*
X188154237Y-89488497D01*
X188046018Y-89459500D01*
X187933982Y-89459500D01*
X187825763Y-89488497D01*
X187825760Y-89488498D01*
X187728740Y-89544513D01*
X187728734Y-89544517D01*
X187649517Y-89623734D01*
X187649513Y-89623740D01*
X187593498Y-89720760D01*
X187593497Y-89720763D01*
X187564500Y-89828982D01*
X182635500Y-89828982D01*
X182606503Y-89720763D01*
X182550485Y-89623737D01*
X182471263Y-89544515D01*
X182374237Y-89488497D01*
X182266018Y-89459500D01*
X182153982Y-89459500D01*
X182045763Y-89488497D01*
X182045760Y-89488498D01*
X181948740Y-89544513D01*
X181948734Y-89544517D01*
X181894571Y-89598681D01*
X181833248Y-89632166D01*
X181806890Y-89635000D01*
X181080000Y-89635000D01*
X181080000Y-89135000D01*
X181780000Y-89135000D01*
X181780000Y-88736508D01*
X181779999Y-88736504D01*
X181741572Y-88543318D01*
X181741569Y-88543306D01*
X181666192Y-88361328D01*
X181666185Y-88361315D01*
X181556751Y-88197537D01*
X181556748Y-88197533D01*
X181417466Y-88058251D01*
X181417462Y-88058248D01*
X181253684Y-87948814D01*
X181253671Y-87948807D01*
X181071691Y-87873429D01*
X181071683Y-87873427D01*
X181030000Y-87865135D01*
X181030000Y-88668011D01*
X181020060Y-88650795D01*
X180964205Y-88594940D01*
X180895796Y-88555444D01*
X180819496Y-88535000D01*
X180740504Y-88535000D01*
X180664204Y-88555444D01*
X180595795Y-88594940D01*
X180539940Y-88650795D01*
X180530000Y-88668011D01*
X180530000Y-87865136D01*
X180529999Y-87865135D01*
X180488316Y-87873427D01*
X180488308Y-87873429D01*
X180306328Y-87948807D01*
X180306315Y-87948814D01*
X180142537Y-88058248D01*
X180142533Y-88058251D01*
X180003251Y-88197533D01*
X180003248Y-88197537D01*
X179893814Y-88361315D01*
X179893807Y-88361328D01*
X179818430Y-88543306D01*
X179818427Y-88543318D01*
X179780000Y-88736504D01*
X160299804Y-88736504D01*
X160297715Y-75921153D01*
X164999500Y-75921153D01*
X164999500Y-76078846D01*
X165030261Y-76233489D01*
X165030264Y-76233501D01*
X165090602Y-76379172D01*
X165090609Y-76379185D01*
X165178210Y-76510288D01*
X165178213Y-76510292D01*
X165289707Y-76621786D01*
X165289711Y-76621789D01*
X165420814Y-76709390D01*
X165420827Y-76709397D01*
X165520060Y-76750500D01*
X165566503Y-76769737D01*
X165721153Y-76800499D01*
X165721156Y-76800500D01*
X165721158Y-76800500D01*
X165878844Y-76800500D01*
X165878845Y-76800499D01*
X166033497Y-76769737D01*
X166163482Y-76715896D01*
X166179172Y-76709397D01*
X166179172Y-76709396D01*
X166179179Y-76709394D01*
X166197801Y-76696951D01*
X166310875Y-76621398D01*
X166377553Y-76600520D01*
X166379766Y-76600500D01*
X169899903Y-76600500D01*
X169966942Y-76620185D01*
X169987584Y-76636819D01*
X172964649Y-79613884D01*
X172998134Y-79675207D01*
X172998490Y-79714937D01*
X173000097Y-79715096D01*
X172999500Y-79721158D01*
X172999500Y-79878846D01*
X173030261Y-80033489D01*
X173030264Y-80033501D01*
X173090602Y-80179172D01*
X173090609Y-80179185D01*
X173178210Y-80310288D01*
X173178213Y-80310292D01*
X173289707Y-80421786D01*
X173289711Y-80421789D01*
X173420814Y-80509390D01*
X173420827Y-80509397D01*
X173546414Y-80561416D01*
X173566503Y-80569737D01*
X173721153Y-80600499D01*
X173721156Y-80600500D01*
X173721158Y-80600500D01*
X173878844Y-80600500D01*
X173878845Y-80600499D01*
X174033497Y-80569737D01*
X174179179Y-80509394D01*
X174310289Y-80421789D01*
X174421789Y-80310289D01*
X174509394Y-80179179D01*
X174569737Y-80033497D01*
X174600500Y-79878842D01*
X174600500Y-79721158D01*
X174600500Y-79721155D01*
X174600499Y-79721153D01*
X174588484Y-79660750D01*
X174569737Y-79566503D01*
X174512989Y-79429500D01*
X174509397Y-79420827D01*
X174509390Y-79420814D01*
X174421789Y-79289711D01*
X174421786Y-79289707D01*
X174310292Y-79178213D01*
X174310288Y-79178210D01*
X174179185Y-79090609D01*
X174179176Y-79090604D01*
X174134811Y-79072228D01*
X174094583Y-79045348D01*
X171261416Y-76212181D01*
X171227931Y-76150858D01*
X171232915Y-76081166D01*
X171274787Y-76025233D01*
X171340251Y-76000816D01*
X171349097Y-76000500D01*
X177699903Y-76000500D01*
X177766942Y-76020185D01*
X177787584Y-76036819D01*
X177997958Y-76247193D01*
X178031443Y-76308516D01*
X178029382Y-76360116D01*
X178031451Y-76360528D01*
X177999500Y-76521153D01*
X177999500Y-76678846D01*
X178030261Y-76833489D01*
X178030264Y-76833501D01*
X178090602Y-76979172D01*
X178090609Y-76979185D01*
X178178210Y-77110288D01*
X178178213Y-77110292D01*
X178289707Y-77221786D01*
X178289711Y-77221789D01*
X178420814Y-77309390D01*
X178420827Y-77309397D01*
X178566498Y-77369735D01*
X178566503Y-77369737D01*
X178721153Y-77400499D01*
X178721156Y-77400500D01*
X178721158Y-77400500D01*
X178878843Y-77400500D01*
X178894564Y-77397372D01*
X178951309Y-77386085D01*
X179020899Y-77392312D01*
X179076077Y-77435174D01*
X179099322Y-77501063D01*
X179099500Y-77507702D01*
X179099500Y-83135746D01*
X179079815Y-83202785D01*
X179063181Y-83223427D01*
X178760588Y-83526019D01*
X178760588Y-83526020D01*
X178760586Y-83526022D01*
X178721970Y-83579172D01*
X178658768Y-83666161D01*
X178580128Y-83820502D01*
X178526597Y-83985252D01*
X178524182Y-84000500D01*
X178499500Y-84156339D01*
X178499500Y-86486611D01*
X178526598Y-86657701D01*
X178580127Y-86822445D01*
X178658768Y-86976788D01*
X178760586Y-87116928D01*
X178883072Y-87239414D01*
X179023212Y-87341232D01*
X179177555Y-87419873D01*
X179342299Y-87473402D01*
X179513389Y-87500500D01*
X179513390Y-87500500D01*
X179686610Y-87500500D01*
X179686611Y-87500500D01*
X179857701Y-87473402D01*
X180022445Y-87419873D01*
X180176788Y-87341232D01*
X180316928Y-87239414D01*
X180439414Y-87116928D01*
X180541232Y-86976788D01*
X180619873Y-86822445D01*
X180673402Y-86657701D01*
X180691069Y-86546153D01*
X181824500Y-86546153D01*
X181824500Y-86703846D01*
X181855261Y-86858489D01*
X181855264Y-86858501D01*
X181915602Y-87004172D01*
X181915609Y-87004185D01*
X182003210Y-87135288D01*
X182003213Y-87135292D01*
X182114707Y-87246786D01*
X182114711Y-87246789D01*
X182245814Y-87334390D01*
X182245827Y-87334397D01*
X182391498Y-87394735D01*
X182391503Y-87394737D01*
X182546153Y-87425499D01*
X182546156Y-87425500D01*
X182546158Y-87425500D01*
X182703844Y-87425500D01*
X182703845Y-87425499D01*
X182858497Y-87394737D01*
X182971166Y-87348067D01*
X183004172Y-87334397D01*
X183004172Y-87334396D01*
X183004179Y-87334394D01*
X183135289Y-87246789D01*
X183246789Y-87135289D01*
X183334394Y-87004179D01*
X183394737Y-86858497D01*
X183425500Y-86703842D01*
X183425500Y-86546158D01*
X183425500Y-86546155D01*
X183425499Y-86546153D01*
X183420527Y-86521158D01*
X183394737Y-86391503D01*
X183393774Y-86389179D01*
X183345218Y-86271952D01*
X183337749Y-86202483D01*
X183369024Y-86140004D01*
X183429113Y-86104352D01*
X183459779Y-86100500D01*
X185699903Y-86100500D01*
X185729343Y-86109144D01*
X185759330Y-86115668D01*
X185764345Y-86119422D01*
X185766942Y-86120185D01*
X185787584Y-86136819D01*
X185943683Y-86292918D01*
X185977168Y-86354241D01*
X185977619Y-86404790D01*
X185949500Y-86546153D01*
X185949500Y-86703846D01*
X185980261Y-86858489D01*
X185980264Y-86858501D01*
X186040602Y-87004172D01*
X186040609Y-87004185D01*
X186128210Y-87135288D01*
X186128213Y-87135292D01*
X186239707Y-87246786D01*
X186239711Y-87246789D01*
X186370814Y-87334390D01*
X186370827Y-87334397D01*
X186516498Y-87394735D01*
X186516503Y-87394737D01*
X186671153Y-87425499D01*
X186671156Y-87425500D01*
X186671158Y-87425500D01*
X186828844Y-87425500D01*
X186828845Y-87425499D01*
X186983497Y-87394737D01*
X187096166Y-87348067D01*
X187129172Y-87334397D01*
X187129172Y-87334396D01*
X187129179Y-87334394D01*
X187260289Y-87246789D01*
X187371789Y-87135289D01*
X187459394Y-87004179D01*
X187519737Y-86858497D01*
X187550500Y-86703842D01*
X187550500Y-86546158D01*
X187550500Y-86546155D01*
X187550499Y-86546153D01*
X187545527Y-86521158D01*
X187519737Y-86391503D01*
X187518774Y-86389179D01*
X187459397Y-86245827D01*
X187459390Y-86245814D01*
X187371790Y-86114712D01*
X187361430Y-86104352D01*
X187345617Y-86088539D01*
X187320341Y-86052009D01*
X187316154Y-86042762D01*
X187309577Y-86018216D01*
X187309577Y-86018215D01*
X187280639Y-85968095D01*
X187259311Y-85931153D01*
X194299500Y-85931153D01*
X194299500Y-86088846D01*
X194330261Y-86243489D01*
X194330264Y-86243501D01*
X194390602Y-86389172D01*
X194390609Y-86389185D01*
X194478210Y-86520288D01*
X194478213Y-86520292D01*
X194589707Y-86631786D01*
X194589711Y-86631789D01*
X194720814Y-86719390D01*
X194720827Y-86719397D01*
X194866498Y-86779735D01*
X194866503Y-86779737D01*
X195021153Y-86810499D01*
X195021156Y-86810500D01*
X195021158Y-86810500D01*
X195178844Y-86810500D01*
X195178845Y-86810499D01*
X195333497Y-86779737D01*
X195479179Y-86719394D01*
X195610289Y-86631789D01*
X195721789Y-86520289D01*
X195809394Y-86389179D01*
X195869737Y-86243497D01*
X195900500Y-86088842D01*
X195900500Y-85931158D01*
X195900500Y-85931155D01*
X195900499Y-85931153D01*
X196839500Y-85931153D01*
X196839500Y-86088846D01*
X196870261Y-86243489D01*
X196870264Y-86243501D01*
X196930602Y-86389172D01*
X196930609Y-86389185D01*
X197018210Y-86520288D01*
X197018213Y-86520292D01*
X197129707Y-86631786D01*
X197129711Y-86631789D01*
X197260814Y-86719390D01*
X197260827Y-86719397D01*
X197406498Y-86779735D01*
X197406503Y-86779737D01*
X197561153Y-86810499D01*
X197561156Y-86810500D01*
X197561158Y-86810500D01*
X197718844Y-86810500D01*
X197718845Y-86810499D01*
X197873497Y-86779737D01*
X198019179Y-86719394D01*
X198150289Y-86631789D01*
X198261789Y-86520289D01*
X198349394Y-86389179D01*
X198409737Y-86243497D01*
X198440500Y-86088842D01*
X198440500Y-85931158D01*
X198440500Y-85931155D01*
X198440499Y-85931153D01*
X198432433Y-85890602D01*
X198409737Y-85776503D01*
X198382312Y-85710292D01*
X198349397Y-85630827D01*
X198349390Y-85630814D01*
X198261789Y-85499711D01*
X198261786Y-85499707D01*
X198150292Y-85388213D01*
X198150288Y-85388210D01*
X198019185Y-85300609D01*
X198019172Y-85300602D01*
X197873501Y-85240264D01*
X197873491Y-85240261D01*
X197855501Y-85236683D01*
X197855500Y-85236682D01*
X197718845Y-85209500D01*
X197718842Y-85209500D01*
X197561158Y-85209500D01*
X197561155Y-85209500D01*
X197406510Y-85240261D01*
X197406498Y-85240264D01*
X197260827Y-85300602D01*
X197260814Y-85300609D01*
X197129711Y-85388210D01*
X197129707Y-85388213D01*
X197018213Y-85499707D01*
X197018210Y-85499711D01*
X196930609Y-85630814D01*
X196930602Y-85630827D01*
X196870264Y-85776498D01*
X196870261Y-85776510D01*
X196839500Y-85931153D01*
X195900499Y-85931153D01*
X195892433Y-85890602D01*
X195869737Y-85776503D01*
X195842312Y-85710292D01*
X195809397Y-85630827D01*
X195809390Y-85630814D01*
X195721789Y-85499711D01*
X195721786Y-85499707D01*
X195610292Y-85388213D01*
X195610288Y-85388210D01*
X195479185Y-85300609D01*
X195479172Y-85300602D01*
X195333501Y-85240264D01*
X195333489Y-85240261D01*
X195178845Y-85209500D01*
X195178842Y-85209500D01*
X195021158Y-85209500D01*
X195021155Y-85209500D01*
X194866510Y-85240261D01*
X194866498Y-85240264D01*
X194720827Y-85300602D01*
X194720814Y-85300609D01*
X194589711Y-85388210D01*
X194589707Y-85388213D01*
X194478213Y-85499707D01*
X194478210Y-85499711D01*
X194390609Y-85630814D01*
X194390602Y-85630827D01*
X194330264Y-85776498D01*
X194330261Y-85776510D01*
X194299500Y-85931153D01*
X187259311Y-85931153D01*
X187230520Y-85881284D01*
X187118716Y-85769480D01*
X187118715Y-85769479D01*
X187114385Y-85765149D01*
X187114374Y-85765139D01*
X186487590Y-85138355D01*
X186487588Y-85138352D01*
X186470389Y-85121153D01*
X211399500Y-85121153D01*
X211399500Y-85278846D01*
X211430261Y-85433489D01*
X211430264Y-85433501D01*
X211490602Y-85579172D01*
X211490609Y-85579185D01*
X211578210Y-85710288D01*
X211578213Y-85710292D01*
X211689707Y-85821786D01*
X211689711Y-85821789D01*
X211820814Y-85909390D01*
X211820827Y-85909397D01*
X211873352Y-85931153D01*
X211966503Y-85969737D01*
X212042122Y-85984778D01*
X212104030Y-86017162D01*
X212138604Y-86077878D01*
X212134865Y-86147647D01*
X212121031Y-86175285D01*
X212090608Y-86220816D01*
X212090602Y-86220827D01*
X212030264Y-86366498D01*
X212030261Y-86366510D01*
X211999500Y-86521153D01*
X211999500Y-86678846D01*
X212030261Y-86833489D01*
X212030264Y-86833501D01*
X212090602Y-86979172D01*
X212090609Y-86979185D01*
X212178210Y-87110288D01*
X212178213Y-87110292D01*
X212289707Y-87221786D01*
X212289711Y-87221789D01*
X212420814Y-87309390D01*
X212420827Y-87309397D01*
X212497685Y-87341232D01*
X212566503Y-87369737D01*
X212692176Y-87394735D01*
X212721153Y-87400499D01*
X212721156Y-87400500D01*
X212721158Y-87400500D01*
X212878844Y-87400500D01*
X212878845Y-87400499D01*
X213033497Y-87369737D01*
X213179179Y-87309394D01*
X213310289Y-87221789D01*
X213421789Y-87110289D01*
X213509394Y-86979179D01*
X213569737Y-86833497D01*
X213600500Y-86678842D01*
X213600500Y-86521158D01*
X213600500Y-86521155D01*
X213600499Y-86521153D01*
X213574709Y-86391498D01*
X213569737Y-86366503D01*
X213561931Y-86347658D01*
X213509397Y-86220827D01*
X213509390Y-86220814D01*
X213421789Y-86089711D01*
X213421786Y-86089707D01*
X213310292Y-85978213D01*
X213310288Y-85978210D01*
X213179185Y-85890609D01*
X213179172Y-85890602D01*
X213033501Y-85830264D01*
X213033491Y-85830261D01*
X212957879Y-85815221D01*
X212895968Y-85782836D01*
X212861394Y-85722120D01*
X212865134Y-85652351D01*
X212878970Y-85624712D01*
X212909389Y-85579187D01*
X212909390Y-85579184D01*
X212909394Y-85579179D01*
X212969737Y-85433497D01*
X213000500Y-85278842D01*
X213000500Y-85121158D01*
X213000500Y-85121155D01*
X213000499Y-85121153D01*
X212980275Y-85019480D01*
X212969737Y-84966503D01*
X212969735Y-84966498D01*
X212909397Y-84820827D01*
X212909390Y-84820814D01*
X212821789Y-84689711D01*
X212821786Y-84689707D01*
X212710292Y-84578213D01*
X212710288Y-84578210D01*
X212579185Y-84490609D01*
X212579172Y-84490602D01*
X212433501Y-84430264D01*
X212433489Y-84430261D01*
X212278845Y-84399500D01*
X212278842Y-84399500D01*
X212121158Y-84399500D01*
X212121155Y-84399500D01*
X211966510Y-84430261D01*
X211966498Y-84430264D01*
X211820827Y-84490602D01*
X211820814Y-84490609D01*
X211689711Y-84578210D01*
X211689707Y-84578213D01*
X211578213Y-84689707D01*
X211578210Y-84689711D01*
X211490609Y-84820814D01*
X211490602Y-84820827D01*
X211430264Y-84966498D01*
X211430261Y-84966510D01*
X211399500Y-85121153D01*
X186470389Y-85121153D01*
X186368717Y-85019481D01*
X186368716Y-85019480D01*
X186276956Y-84966503D01*
X186276955Y-84966502D01*
X186231783Y-84940422D01*
X186175881Y-84925443D01*
X186079057Y-84899499D01*
X185920943Y-84899499D01*
X185913347Y-84899499D01*
X185913331Y-84899500D01*
X182920943Y-84899500D01*
X182768214Y-84940423D01*
X182723044Y-84966503D01*
X182723043Y-84966503D01*
X182631287Y-85019477D01*
X182631282Y-85019481D01*
X182144481Y-85506282D01*
X182144480Y-85506284D01*
X182102395Y-85579179D01*
X182094361Y-85593094D01*
X182094359Y-85593096D01*
X182065425Y-85643209D01*
X182065424Y-85643210D01*
X182065423Y-85643215D01*
X182024499Y-85795943D01*
X182024499Y-85795945D01*
X182024499Y-85964046D01*
X182024500Y-85964059D01*
X182024500Y-86045234D01*
X182004815Y-86112273D01*
X182003602Y-86114125D01*
X181915609Y-86245814D01*
X181915602Y-86245827D01*
X181855264Y-86391498D01*
X181855261Y-86391510D01*
X181824500Y-86546153D01*
X180691069Y-86546153D01*
X180700500Y-86486611D01*
X180700500Y-84750154D01*
X180720185Y-84683115D01*
X180736819Y-84662473D01*
X180821082Y-84578210D01*
X181039414Y-84359878D01*
X181141232Y-84219738D01*
X181218441Y-84068206D01*
X181266415Y-84017409D01*
X181328926Y-84000500D01*
X181478844Y-84000500D01*
X181478845Y-84000499D01*
X181633497Y-83969737D01*
X181779179Y-83909394D01*
X181910289Y-83821789D01*
X182021789Y-83710289D01*
X182109394Y-83579179D01*
X182169737Y-83433497D01*
X182200500Y-83278842D01*
X182200638Y-83278150D01*
X182233023Y-83216239D01*
X182234522Y-83214712D01*
X182666321Y-82782912D01*
X182666326Y-82782909D01*
X182676529Y-82772705D01*
X182676531Y-82772705D01*
X182788335Y-82660901D01*
X182856722Y-82542450D01*
X182867392Y-82523970D01*
X182908315Y-82371243D01*
X182908315Y-82256913D01*
X182928000Y-82189874D01*
X182980804Y-82144119D01*
X183049962Y-82134175D01*
X183113518Y-82163200D01*
X183119996Y-82169232D01*
X183662284Y-82711520D01*
X183662286Y-82711521D01*
X183662290Y-82711524D01*
X183785948Y-82782917D01*
X183799216Y-82790577D01*
X183951943Y-82831501D01*
X183951945Y-82831501D01*
X184117654Y-82831501D01*
X184117670Y-82831500D01*
X195552223Y-82831500D01*
X195552239Y-82831501D01*
X195559835Y-82831501D01*
X195717946Y-82831501D01*
X195717949Y-82831501D01*
X195870677Y-82790577D01*
X195920796Y-82761639D01*
X196007608Y-82711520D01*
X196119412Y-82599716D01*
X196119412Y-82599714D01*
X196129620Y-82589507D01*
X196129622Y-82589504D01*
X196759506Y-81959620D01*
X196759511Y-81959616D01*
X196769714Y-81949412D01*
X196769716Y-81949412D01*
X196881520Y-81837608D01*
X196960577Y-81700676D01*
X197001500Y-81547949D01*
X197001500Y-77279544D01*
X197021185Y-77212505D01*
X197073989Y-77166750D01*
X197143147Y-77156806D01*
X197181796Y-77169060D01*
X197224001Y-77190565D01*
X197224004Y-77190565D01*
X197224008Y-77190568D01*
X197379151Y-77240977D01*
X197448631Y-77263553D01*
X197681903Y-77300500D01*
X197681908Y-77300500D01*
X211518097Y-77300500D01*
X211751368Y-77263553D01*
X211975992Y-77190568D01*
X212186433Y-77083343D01*
X212377510Y-76944517D01*
X212544517Y-76777510D01*
X212683343Y-76586433D01*
X212790568Y-76375992D01*
X212863553Y-76151368D01*
X212874672Y-76081166D01*
X212900500Y-75918097D01*
X212900500Y-75681902D01*
X212863553Y-75448631D01*
X212812206Y-75290602D01*
X212790568Y-75224008D01*
X212790566Y-75224005D01*
X212790566Y-75224003D01*
X212695973Y-75038355D01*
X212683343Y-75013567D01*
X212544517Y-74822490D01*
X212377510Y-74655483D01*
X212186433Y-74516657D01*
X212112221Y-74478844D01*
X211975996Y-74409433D01*
X211751368Y-74336446D01*
X211518097Y-74299500D01*
X211518092Y-74299500D01*
X197681908Y-74299500D01*
X197681903Y-74299500D01*
X197448631Y-74336446D01*
X197224000Y-74409434D01*
X197181794Y-74430940D01*
X197179089Y-74431447D01*
X197177011Y-74433249D01*
X197144957Y-74437857D01*
X197113125Y-74443836D01*
X197110576Y-74442801D01*
X197107853Y-74443193D01*
X197078391Y-74429738D01*
X197048384Y-74417559D01*
X197046799Y-74415310D01*
X197044297Y-74414168D01*
X197026786Y-74386920D01*
X197008128Y-74360452D01*
X197007555Y-74356996D01*
X197006523Y-74355390D01*
X197001500Y-74320455D01*
X197001500Y-74090060D01*
X197001501Y-74090047D01*
X197001501Y-73921944D01*
X196977674Y-73833023D01*
X196960577Y-73769216D01*
X196915190Y-73690602D01*
X196881524Y-73632290D01*
X196881518Y-73632282D01*
X196234573Y-72985337D01*
X196201088Y-72924014D01*
X196200637Y-72921847D01*
X196200499Y-72921153D01*
X196169737Y-72766503D01*
X196169735Y-72766498D01*
X196109397Y-72620827D01*
X196109390Y-72620814D01*
X196021789Y-72489711D01*
X196021786Y-72489707D01*
X195910292Y-72378213D01*
X195910288Y-72378210D01*
X195779185Y-72290609D01*
X195779172Y-72290602D01*
X195633501Y-72230264D01*
X195633489Y-72230261D01*
X195478845Y-72199500D01*
X195478842Y-72199500D01*
X195321158Y-72199500D01*
X195321155Y-72199500D01*
X195166510Y-72230261D01*
X195166498Y-72230264D01*
X195020827Y-72290602D01*
X195020814Y-72290609D01*
X194889711Y-72378210D01*
X194889707Y-72378213D01*
X194778213Y-72489707D01*
X194778210Y-72489711D01*
X194690609Y-72620814D01*
X194690602Y-72620827D01*
X194630264Y-72766498D01*
X194630261Y-72766510D01*
X194599500Y-72921153D01*
X194599500Y-73078846D01*
X194630261Y-73233489D01*
X194630264Y-73233501D01*
X194690602Y-73379172D01*
X194690609Y-73379185D01*
X194778210Y-73510288D01*
X194778213Y-73510292D01*
X194889707Y-73621786D01*
X194889711Y-73621789D01*
X195020814Y-73709390D01*
X195020827Y-73709397D01*
X195165228Y-73769209D01*
X195166503Y-73769737D01*
X195231147Y-73782595D01*
X195321849Y-73800638D01*
X195383760Y-73833023D01*
X195385339Y-73834574D01*
X195764181Y-74213416D01*
X195797666Y-74274739D01*
X195800500Y-74301097D01*
X195800500Y-75003048D01*
X195780815Y-75070087D01*
X195728011Y-75115842D01*
X195658853Y-75125786D01*
X195607609Y-75106150D01*
X195526553Y-75051990D01*
X195526540Y-75051983D01*
X195362667Y-74984106D01*
X195362658Y-74984103D01*
X195188694Y-74949500D01*
X195188691Y-74949500D01*
X195011309Y-74949500D01*
X195011306Y-74949500D01*
X194837341Y-74984103D01*
X194837332Y-74984106D01*
X194673459Y-75051983D01*
X194673446Y-75051990D01*
X194525965Y-75150535D01*
X194525961Y-75150538D01*
X194400538Y-75275961D01*
X194400535Y-75275965D01*
X194301990Y-75423446D01*
X194301983Y-75423459D01*
X194234106Y-75587332D01*
X194234103Y-75587341D01*
X194199500Y-75761304D01*
X194199500Y-75938695D01*
X194234103Y-76112658D01*
X194234106Y-76112667D01*
X194301983Y-76276540D01*
X194301990Y-76276553D01*
X194400535Y-76424034D01*
X194400538Y-76424038D01*
X194525961Y-76549461D01*
X194525965Y-76549464D01*
X194673446Y-76648009D01*
X194673459Y-76648016D01*
X194747891Y-76678846D01*
X194837334Y-76715894D01*
X194837336Y-76715894D01*
X194837341Y-76715896D01*
X195011304Y-76750499D01*
X195011307Y-76750500D01*
X195011309Y-76750500D01*
X195188693Y-76750500D01*
X195188694Y-76750499D01*
X195246682Y-76738964D01*
X195362658Y-76715896D01*
X195362661Y-76715894D01*
X195362666Y-76715894D01*
X195526547Y-76648013D01*
X195607609Y-76593849D01*
X195674286Y-76572971D01*
X195741666Y-76591455D01*
X195788357Y-76643434D01*
X195800500Y-76696951D01*
X195800500Y-77543048D01*
X195780815Y-77610087D01*
X195728011Y-77655842D01*
X195658853Y-77665786D01*
X195607609Y-77646150D01*
X195526553Y-77591990D01*
X195526540Y-77591983D01*
X195362667Y-77524106D01*
X195362658Y-77524103D01*
X195188694Y-77489500D01*
X195188691Y-77489500D01*
X195011309Y-77489500D01*
X195011306Y-77489500D01*
X194837341Y-77524103D01*
X194837332Y-77524106D01*
X194673459Y-77591983D01*
X194673446Y-77591990D01*
X194525965Y-77690535D01*
X194525961Y-77690538D01*
X194400538Y-77815961D01*
X194400535Y-77815965D01*
X194301990Y-77963446D01*
X194301983Y-77963459D01*
X194234106Y-78127332D01*
X194234103Y-78127341D01*
X194199500Y-78301304D01*
X194199500Y-78478695D01*
X194234103Y-78652658D01*
X194234106Y-78652667D01*
X194301983Y-78816540D01*
X194301990Y-78816553D01*
X194400535Y-78964034D01*
X194400538Y-78964038D01*
X194525961Y-79089461D01*
X194525965Y-79089464D01*
X194673446Y-79188009D01*
X194673453Y-79188013D01*
X194680515Y-79190938D01*
X194734919Y-79234779D01*
X194756985Y-79301072D01*
X194739707Y-79368772D01*
X194688570Y-79416383D01*
X194633064Y-79429500D01*
X189402889Y-79429500D01*
X189335850Y-79409815D01*
X189315208Y-79393181D01*
X187736819Y-77814792D01*
X187703334Y-77753469D01*
X187700500Y-77727111D01*
X187700500Y-75921153D01*
X188999500Y-75921153D01*
X188999500Y-76078846D01*
X189030261Y-76233489D01*
X189030264Y-76233501D01*
X189090602Y-76379172D01*
X189090609Y-76379185D01*
X189178210Y-76510288D01*
X189178213Y-76510292D01*
X189289707Y-76621786D01*
X189289711Y-76621789D01*
X189420814Y-76709390D01*
X189420827Y-76709397D01*
X189520060Y-76750500D01*
X189566503Y-76769737D01*
X189721153Y-76800499D01*
X189721156Y-76800500D01*
X189721158Y-76800500D01*
X189878844Y-76800500D01*
X189878845Y-76800499D01*
X190033497Y-76769737D01*
X190163482Y-76715896D01*
X190179172Y-76709397D01*
X190179172Y-76709396D01*
X190179179Y-76709394D01*
X190197801Y-76696951D01*
X190310875Y-76621398D01*
X190377553Y-76600520D01*
X190379766Y-76600500D01*
X191713331Y-76600500D01*
X191713347Y-76600501D01*
X191720943Y-76600501D01*
X191879054Y-76600501D01*
X191879057Y-76600501D01*
X192031785Y-76559577D01*
X192116570Y-76510626D01*
X192168716Y-76480520D01*
X192280520Y-76368716D01*
X192280520Y-76368714D01*
X192290724Y-76358511D01*
X192290727Y-76358506D01*
X193414664Y-75234571D01*
X193475985Y-75201088D01*
X193478152Y-75200637D01*
X193478841Y-75200500D01*
X193478842Y-75200500D01*
X193633497Y-75169737D01*
X193779179Y-75109394D01*
X193910289Y-75021789D01*
X194021789Y-74910289D01*
X194109394Y-74779179D01*
X194169737Y-74633497D01*
X194200500Y-74478842D01*
X194200500Y-74321158D01*
X194200500Y-74321155D01*
X194200499Y-74321153D01*
X194186293Y-74249735D01*
X194169737Y-74166503D01*
X194133931Y-74080058D01*
X194109397Y-74020827D01*
X194109390Y-74020814D01*
X194021789Y-73889711D01*
X194021786Y-73889707D01*
X193910292Y-73778213D01*
X193910288Y-73778210D01*
X193779185Y-73690609D01*
X193779172Y-73690602D01*
X193633501Y-73630264D01*
X193633489Y-73630261D01*
X193478845Y-73599500D01*
X193478842Y-73599500D01*
X193321158Y-73599500D01*
X193321155Y-73599500D01*
X193166510Y-73630261D01*
X193166498Y-73630264D01*
X193020827Y-73690602D01*
X193020814Y-73690609D01*
X192889711Y-73778210D01*
X192889707Y-73778213D01*
X192778213Y-73889707D01*
X192778210Y-73889711D01*
X192690609Y-74020814D01*
X192690602Y-74020827D01*
X192630264Y-74166498D01*
X192630261Y-74166508D01*
X192599362Y-74321848D01*
X192566977Y-74383759D01*
X192565426Y-74385337D01*
X191587584Y-75363181D01*
X191526261Y-75396666D01*
X191499903Y-75399500D01*
X190379766Y-75399500D01*
X190312727Y-75379815D01*
X190310875Y-75378602D01*
X190179185Y-75290609D01*
X190179172Y-75290602D01*
X190033501Y-75230264D01*
X190033489Y-75230261D01*
X189878845Y-75199500D01*
X189878842Y-75199500D01*
X189721158Y-75199500D01*
X189721155Y-75199500D01*
X189566510Y-75230261D01*
X189566498Y-75230264D01*
X189420827Y-75290602D01*
X189420814Y-75290609D01*
X189289711Y-75378210D01*
X189289707Y-75378213D01*
X189178213Y-75489707D01*
X189178210Y-75489711D01*
X189090609Y-75620814D01*
X189090602Y-75620827D01*
X189030264Y-75766498D01*
X189030261Y-75766510D01*
X188999500Y-75921153D01*
X187700500Y-75921153D01*
X187700500Y-72872889D01*
X187720185Y-72805850D01*
X187736819Y-72785208D01*
X188673396Y-71848631D01*
X189744518Y-70777510D01*
X189744519Y-70777508D01*
X189751579Y-70770448D01*
X189751584Y-70770441D01*
X190344517Y-70177510D01*
X190483343Y-69986434D01*
X190590568Y-69775992D01*
X190663553Y-69551369D01*
X190679973Y-69447690D01*
X190700500Y-69318097D01*
X190700500Y-68171153D01*
X205699500Y-68171153D01*
X205699500Y-68328846D01*
X205730261Y-68483489D01*
X205730264Y-68483501D01*
X205790602Y-68629172D01*
X205790609Y-68629185D01*
X205878210Y-68760288D01*
X205878213Y-68760292D01*
X205989707Y-68871786D01*
X205989711Y-68871789D01*
X206120814Y-68959390D01*
X206120827Y-68959397D01*
X206266498Y-69019735D01*
X206266503Y-69019737D01*
X206421153Y-69050499D01*
X206421156Y-69050500D01*
X206421158Y-69050500D01*
X206578844Y-69050500D01*
X206578845Y-69050499D01*
X206733497Y-69019737D01*
X206879179Y-68959394D01*
X207010289Y-68871789D01*
X207121789Y-68760289D01*
X207209394Y-68629179D01*
X207215355Y-68614789D01*
X207251672Y-68527109D01*
X207269737Y-68483497D01*
X207300500Y-68328842D01*
X207300500Y-68171158D01*
X207300500Y-68171155D01*
X207300499Y-68171153D01*
X207278269Y-68059397D01*
X207269737Y-68016503D01*
X207267220Y-68010427D01*
X207209397Y-67870827D01*
X207209390Y-67870814D01*
X207121789Y-67739711D01*
X207121786Y-67739707D01*
X207010292Y-67628213D01*
X207010288Y-67628210D01*
X206879185Y-67540609D01*
X206879172Y-67540602D01*
X206733501Y-67480264D01*
X206733489Y-67480261D01*
X206578845Y-67449500D01*
X206578842Y-67449500D01*
X206421158Y-67449500D01*
X206421155Y-67449500D01*
X206266510Y-67480261D01*
X206266498Y-67480264D01*
X206120827Y-67540602D01*
X206120814Y-67540609D01*
X205989711Y-67628210D01*
X205989707Y-67628213D01*
X205878213Y-67739707D01*
X205878210Y-67739711D01*
X205790609Y-67870814D01*
X205790602Y-67870827D01*
X205730264Y-68016498D01*
X205730261Y-68016510D01*
X205699500Y-68171153D01*
X190700500Y-68171153D01*
X190700500Y-66681902D01*
X190663553Y-66448631D01*
X190618602Y-66310288D01*
X190590568Y-66224008D01*
X190590566Y-66224005D01*
X190590566Y-66224003D01*
X190512687Y-66071158D01*
X190483343Y-66013567D01*
X190344517Y-65822490D01*
X190177510Y-65655483D01*
X189986433Y-65516657D01*
X189775996Y-65409433D01*
X189551368Y-65336446D01*
X189318097Y-65299500D01*
X189318092Y-65299500D01*
X189081908Y-65299500D01*
X189081903Y-65299500D01*
X188848631Y-65336446D01*
X188624003Y-65409433D01*
X188413566Y-65516657D01*
X188344967Y-65566498D01*
X188222490Y-65655483D01*
X188222488Y-65655485D01*
X188222487Y-65655485D01*
X188055485Y-65822487D01*
X188055485Y-65822488D01*
X188055483Y-65822490D01*
X187999934Y-65898946D01*
X187916657Y-66013566D01*
X187809433Y-66224003D01*
X187736446Y-66448631D01*
X187699500Y-66681902D01*
X187699500Y-68527109D01*
X187690856Y-68556546D01*
X187684333Y-68586535D01*
X187680577Y-68591551D01*
X187679815Y-68594148D01*
X187663182Y-68614789D01*
X187622491Y-68655481D01*
X185055484Y-71222488D01*
X184916659Y-71413562D01*
X184916657Y-71413566D01*
X184912131Y-71422449D01*
X184809433Y-71624003D01*
X184736446Y-71848631D01*
X184699500Y-72081902D01*
X184699500Y-78518097D01*
X184736446Y-78751368D01*
X184809433Y-78975996D01*
X184867829Y-79090604D01*
X184916657Y-79186434D01*
X185049134Y-79368772D01*
X185055484Y-79377511D01*
X187096792Y-81418819D01*
X187130277Y-81480142D01*
X187125293Y-81549834D01*
X187083421Y-81605767D01*
X187017957Y-81630184D01*
X187009111Y-81630500D01*
X184331098Y-81630500D01*
X184264059Y-81610815D01*
X184243417Y-81594181D01*
X181687590Y-79038355D01*
X181687588Y-79038352D01*
X181568717Y-78919481D01*
X181568716Y-78919480D01*
X181547412Y-78907180D01*
X181488019Y-78872890D01*
X181488015Y-78872888D01*
X181481904Y-78869360D01*
X181431785Y-78840423D01*
X181383523Y-78827490D01*
X181375088Y-78823826D01*
X181355039Y-78807094D01*
X181332745Y-78793505D01*
X181328647Y-78785068D01*
X181321445Y-78779058D01*
X181313623Y-78754140D01*
X181302217Y-78730657D01*
X181300753Y-78713137D01*
X181300521Y-78712395D01*
X181300652Y-78711916D01*
X181300500Y-78710096D01*
X181300500Y-71107204D01*
X181320185Y-71040165D01*
X181336819Y-71019523D01*
X181439414Y-70916928D01*
X181541232Y-70776788D01*
X181619873Y-70622446D01*
X181673402Y-70457701D01*
X181700500Y-70286611D01*
X181700500Y-70113390D01*
X181700500Y-70113384D01*
X181673402Y-69942302D01*
X181673402Y-69942299D01*
X181619873Y-69777555D01*
X181541232Y-69623213D01*
X181439414Y-69483073D01*
X181316927Y-69360586D01*
X181176787Y-69258768D01*
X181022445Y-69180127D01*
X180857701Y-69126598D01*
X180857699Y-69126597D01*
X180857697Y-69126597D01*
X180686615Y-69099500D01*
X180686610Y-69099500D01*
X180513389Y-69099500D01*
X180427844Y-69113049D01*
X180342298Y-69126598D01*
X180177549Y-69180128D01*
X180023211Y-69258768D01*
X179943256Y-69316859D01*
X179883072Y-69360586D01*
X179883070Y-69360588D01*
X179883069Y-69360588D01*
X179360588Y-69883069D01*
X179360588Y-69883070D01*
X179360586Y-69883072D01*
X179317555Y-69942299D01*
X179258768Y-70023211D01*
X179180128Y-70177552D01*
X179126597Y-70342302D01*
X179099500Y-70513389D01*
X179099500Y-75350903D01*
X179079815Y-75417942D01*
X179027011Y-75463697D01*
X178957853Y-75473641D01*
X178894297Y-75444616D01*
X178887819Y-75438584D01*
X178487590Y-75038355D01*
X178487588Y-75038352D01*
X178368717Y-74919481D01*
X178368716Y-74919480D01*
X178281904Y-74869360D01*
X178281904Y-74869359D01*
X178281900Y-74869358D01*
X178231785Y-74840423D01*
X178079057Y-74799499D01*
X177920943Y-74799499D01*
X177913347Y-74799499D01*
X177913331Y-74799500D01*
X169979766Y-74799500D01*
X169912727Y-74779815D01*
X169910875Y-74778602D01*
X169779185Y-74690609D01*
X169779172Y-74690602D01*
X169633501Y-74630264D01*
X169633489Y-74630261D01*
X169478845Y-74599500D01*
X169478842Y-74599500D01*
X169321158Y-74599500D01*
X169321155Y-74599500D01*
X169166510Y-74630261D01*
X169166498Y-74630264D01*
X169020827Y-74690602D01*
X169020814Y-74690609D01*
X168889711Y-74778210D01*
X168889707Y-74778213D01*
X168778213Y-74889707D01*
X168778210Y-74889711D01*
X168690609Y-75020814D01*
X168690602Y-75020827D01*
X168630264Y-75166498D01*
X168630261Y-75166508D01*
X168603769Y-75299692D01*
X168571384Y-75361603D01*
X168510668Y-75396177D01*
X168482152Y-75399500D01*
X166379766Y-75399500D01*
X166312727Y-75379815D01*
X166310875Y-75378602D01*
X166179185Y-75290609D01*
X166179172Y-75290602D01*
X166033501Y-75230264D01*
X166033489Y-75230261D01*
X165878845Y-75199500D01*
X165878842Y-75199500D01*
X165721158Y-75199500D01*
X165721155Y-75199500D01*
X165566510Y-75230261D01*
X165566498Y-75230264D01*
X165420827Y-75290602D01*
X165420814Y-75290609D01*
X165289711Y-75378210D01*
X165289707Y-75378213D01*
X165178213Y-75489707D01*
X165178210Y-75489711D01*
X165090609Y-75620814D01*
X165090602Y-75620827D01*
X165030264Y-75766498D01*
X165030261Y-75766510D01*
X164999500Y-75921153D01*
X160297715Y-75921153D01*
X160296110Y-66071153D01*
X162599500Y-66071153D01*
X162599500Y-66228846D01*
X162630261Y-66383489D01*
X162630264Y-66383501D01*
X162690602Y-66529172D01*
X162690609Y-66529185D01*
X162778210Y-66660288D01*
X162778213Y-66660292D01*
X162780240Y-66662319D01*
X162780962Y-66663642D01*
X162782076Y-66664999D01*
X162781818Y-66665210D01*
X162813725Y-66723642D01*
X162808741Y-66793334D01*
X162782001Y-66834939D01*
X162782076Y-66835001D01*
X162781552Y-66835639D01*
X162780240Y-66837681D01*
X162778213Y-66839707D01*
X162778210Y-66839711D01*
X162690609Y-66970814D01*
X162690602Y-66970827D01*
X162630264Y-67116498D01*
X162630261Y-67116510D01*
X162599500Y-67271153D01*
X162599500Y-67428846D01*
X162630261Y-67583489D01*
X162630264Y-67583501D01*
X162690602Y-67729172D01*
X162690609Y-67729185D01*
X162778210Y-67860288D01*
X162778213Y-67860292D01*
X162889707Y-67971786D01*
X162889711Y-67971789D01*
X163020814Y-68059390D01*
X163020827Y-68059397D01*
X163166498Y-68119735D01*
X163166503Y-68119737D01*
X163321153Y-68150499D01*
X163321156Y-68150500D01*
X163321158Y-68150500D01*
X163478844Y-68150500D01*
X163478845Y-68150499D01*
X163633497Y-68119737D01*
X163779179Y-68059394D01*
X163910289Y-67971789D01*
X163912312Y-67969766D01*
X163913634Y-67969043D01*
X163914999Y-67967924D01*
X163915211Y-67968182D01*
X163973632Y-67936276D01*
X164043324Y-67941255D01*
X164084939Y-67967999D01*
X164085001Y-67967924D01*
X164085648Y-67968454D01*
X164087688Y-67969766D01*
X164089711Y-67971789D01*
X164220814Y-68059390D01*
X164220827Y-68059397D01*
X164366498Y-68119735D01*
X164366503Y-68119737D01*
X164521153Y-68150499D01*
X164521156Y-68150500D01*
X164521158Y-68150500D01*
X164678844Y-68150500D01*
X164678845Y-68150499D01*
X164833497Y-68119737D01*
X164979179Y-68059394D01*
X165110289Y-67971789D01*
X165112312Y-67969766D01*
X165113634Y-67969043D01*
X165114999Y-67967924D01*
X165115211Y-67968182D01*
X165173632Y-67936276D01*
X165243324Y-67941255D01*
X165284939Y-67967999D01*
X165285001Y-67967924D01*
X165285648Y-67968454D01*
X165287688Y-67969766D01*
X165289711Y-67971789D01*
X165420814Y-68059390D01*
X165420827Y-68059397D01*
X165566498Y-68119735D01*
X165566503Y-68119737D01*
X165721153Y-68150499D01*
X165721156Y-68150500D01*
X165721158Y-68150500D01*
X165878844Y-68150500D01*
X165878845Y-68150499D01*
X166033497Y-68119737D01*
X166179179Y-68059394D01*
X166310289Y-67971789D01*
X166421789Y-67860289D01*
X166509394Y-67729179D01*
X166569737Y-67583497D01*
X166600500Y-67428842D01*
X166600500Y-67271158D01*
X166600500Y-67271155D01*
X166600499Y-67271153D01*
X166598357Y-67260383D01*
X166569737Y-67116503D01*
X166569735Y-67116498D01*
X166509397Y-66970827D01*
X166509390Y-66970814D01*
X166421789Y-66839711D01*
X166419766Y-66837688D01*
X166419043Y-66836365D01*
X166417924Y-66835001D01*
X166418182Y-66834788D01*
X166386276Y-66776368D01*
X166391255Y-66706676D01*
X166417999Y-66665060D01*
X166417924Y-66664999D01*
X166418454Y-66664351D01*
X166419766Y-66662312D01*
X166421789Y-66660289D01*
X166509394Y-66529179D01*
X166569737Y-66383497D01*
X166600500Y-66228842D01*
X166600500Y-66071158D01*
X166600500Y-66071155D01*
X166600499Y-66071153D01*
X168999500Y-66071153D01*
X168999500Y-66228846D01*
X169030261Y-66383489D01*
X169030264Y-66383501D01*
X169090602Y-66529172D01*
X169090609Y-66529185D01*
X169178210Y-66660288D01*
X169178213Y-66660292D01*
X169180240Y-66662319D01*
X169180962Y-66663642D01*
X169182076Y-66664999D01*
X169181818Y-66665210D01*
X169213725Y-66723642D01*
X169208741Y-66793334D01*
X169182001Y-66834939D01*
X169182076Y-66835001D01*
X169181552Y-66835639D01*
X169180240Y-66837681D01*
X169178213Y-66839707D01*
X169178210Y-66839711D01*
X169090609Y-66970814D01*
X169090602Y-66970827D01*
X169030264Y-67116498D01*
X169030261Y-67116510D01*
X168999500Y-67271153D01*
X168999500Y-67428846D01*
X169030261Y-67583489D01*
X169030264Y-67583501D01*
X169090602Y-67729172D01*
X169090609Y-67729185D01*
X169178210Y-67860288D01*
X169178213Y-67860292D01*
X169289707Y-67971786D01*
X169289711Y-67971789D01*
X169420814Y-68059390D01*
X169420827Y-68059397D01*
X169566498Y-68119735D01*
X169566503Y-68119737D01*
X169721153Y-68150499D01*
X169721156Y-68150500D01*
X169721158Y-68150500D01*
X169878844Y-68150500D01*
X169878845Y-68150499D01*
X170033497Y-68119737D01*
X170179179Y-68059394D01*
X170310289Y-67971789D01*
X170312312Y-67969766D01*
X170313634Y-67969043D01*
X170314999Y-67967924D01*
X170315211Y-67968182D01*
X170373632Y-67936276D01*
X170443324Y-67941255D01*
X170484939Y-67967999D01*
X170485001Y-67967924D01*
X170485648Y-67968454D01*
X170487688Y-67969766D01*
X170489711Y-67971789D01*
X170620814Y-68059390D01*
X170620827Y-68059397D01*
X170766498Y-68119735D01*
X170766503Y-68119737D01*
X170921153Y-68150499D01*
X170921156Y-68150500D01*
X170921158Y-68150500D01*
X171078844Y-68150500D01*
X171078845Y-68150499D01*
X171233497Y-68119737D01*
X171379179Y-68059394D01*
X171510289Y-67971789D01*
X171512312Y-67969766D01*
X171513634Y-67969043D01*
X171514999Y-67967924D01*
X171515211Y-67968182D01*
X171573632Y-67936276D01*
X171643324Y-67941255D01*
X171684939Y-67967999D01*
X171685001Y-67967924D01*
X171685648Y-67968454D01*
X171687688Y-67969766D01*
X171689711Y-67971789D01*
X171820814Y-68059390D01*
X171820827Y-68059397D01*
X171966498Y-68119735D01*
X171966503Y-68119737D01*
X172121153Y-68150499D01*
X172121156Y-68150500D01*
X172121158Y-68150500D01*
X172278844Y-68150500D01*
X172278845Y-68150499D01*
X172433497Y-68119737D01*
X172579179Y-68059394D01*
X172710289Y-67971789D01*
X172821789Y-67860289D01*
X172909394Y-67729179D01*
X172969737Y-67583497D01*
X173000500Y-67428842D01*
X173000500Y-67271158D01*
X173000500Y-67271155D01*
X173000499Y-67271153D01*
X172998357Y-67260383D01*
X172969737Y-67116503D01*
X172969735Y-67116498D01*
X172909397Y-66970827D01*
X172909390Y-66970814D01*
X172821789Y-66839711D01*
X172819766Y-66837688D01*
X172819043Y-66836365D01*
X172817924Y-66835001D01*
X172818182Y-66834788D01*
X172786276Y-66776368D01*
X172791255Y-66706676D01*
X172817999Y-66665060D01*
X172817924Y-66664999D01*
X172818454Y-66664351D01*
X172819766Y-66662312D01*
X172821789Y-66660289D01*
X172909394Y-66529179D01*
X172969737Y-66383497D01*
X173000500Y-66228842D01*
X173000500Y-66071158D01*
X173000500Y-66071155D01*
X173000499Y-66071153D01*
X172999292Y-66065086D01*
X172969737Y-65916503D01*
X172954138Y-65878844D01*
X172909397Y-65770827D01*
X172909390Y-65770814D01*
X172821789Y-65639711D01*
X172821786Y-65639707D01*
X172710292Y-65528213D01*
X172710288Y-65528210D01*
X172579185Y-65440609D01*
X172579172Y-65440602D01*
X172433501Y-65380264D01*
X172433489Y-65380261D01*
X172278845Y-65349500D01*
X172278842Y-65349500D01*
X172121158Y-65349500D01*
X172121155Y-65349500D01*
X171966510Y-65380261D01*
X171966498Y-65380264D01*
X171820827Y-65440602D01*
X171820814Y-65440609D01*
X171689711Y-65528210D01*
X171689707Y-65528213D01*
X171687681Y-65530240D01*
X171686357Y-65530962D01*
X171685001Y-65532076D01*
X171684789Y-65531818D01*
X171626358Y-65563725D01*
X171556666Y-65558741D01*
X171515060Y-65532001D01*
X171514999Y-65532076D01*
X171514360Y-65531552D01*
X171512319Y-65530240D01*
X171510292Y-65528213D01*
X171510288Y-65528210D01*
X171379185Y-65440609D01*
X171379172Y-65440602D01*
X171233501Y-65380264D01*
X171233489Y-65380261D01*
X171078845Y-65349500D01*
X171078842Y-65349500D01*
X170921158Y-65349500D01*
X170921155Y-65349500D01*
X170766510Y-65380261D01*
X170766498Y-65380264D01*
X170620827Y-65440602D01*
X170620814Y-65440609D01*
X170489711Y-65528210D01*
X170489707Y-65528213D01*
X170487681Y-65530240D01*
X170486357Y-65530962D01*
X170485001Y-65532076D01*
X170484789Y-65531818D01*
X170426358Y-65563725D01*
X170356666Y-65558741D01*
X170315060Y-65532001D01*
X170314999Y-65532076D01*
X170314360Y-65531552D01*
X170312319Y-65530240D01*
X170310292Y-65528213D01*
X170310288Y-65528210D01*
X170179185Y-65440609D01*
X170179172Y-65440602D01*
X170033501Y-65380264D01*
X170033489Y-65380261D01*
X169878845Y-65349500D01*
X169878842Y-65349500D01*
X169721158Y-65349500D01*
X169721155Y-65349500D01*
X169566510Y-65380261D01*
X169566498Y-65380264D01*
X169420827Y-65440602D01*
X169420814Y-65440609D01*
X169289711Y-65528210D01*
X169289707Y-65528213D01*
X169178213Y-65639707D01*
X169178210Y-65639711D01*
X169090609Y-65770814D01*
X169090602Y-65770827D01*
X169030264Y-65916498D01*
X169030261Y-65916510D01*
X168999500Y-66071153D01*
X166600499Y-66071153D01*
X166599292Y-66065086D01*
X166569737Y-65916503D01*
X166554138Y-65878844D01*
X166509397Y-65770827D01*
X166509390Y-65770814D01*
X166421789Y-65639711D01*
X166421786Y-65639707D01*
X166310292Y-65528213D01*
X166310288Y-65528210D01*
X166179185Y-65440609D01*
X166179172Y-65440602D01*
X166033501Y-65380264D01*
X166033489Y-65380261D01*
X165878845Y-65349500D01*
X165878842Y-65349500D01*
X165721158Y-65349500D01*
X165721155Y-65349500D01*
X165566510Y-65380261D01*
X165566498Y-65380264D01*
X165420827Y-65440602D01*
X165420814Y-65440609D01*
X165289711Y-65528210D01*
X165289707Y-65528213D01*
X165287681Y-65530240D01*
X165286357Y-65530962D01*
X165285001Y-65532076D01*
X165284789Y-65531818D01*
X165226358Y-65563725D01*
X165156666Y-65558741D01*
X165115060Y-65532001D01*
X165114999Y-65532076D01*
X165114360Y-65531552D01*
X165112319Y-65530240D01*
X165110292Y-65528213D01*
X165110288Y-65528210D01*
X164979185Y-65440609D01*
X164979172Y-65440602D01*
X164833501Y-65380264D01*
X164833489Y-65380261D01*
X164678845Y-65349500D01*
X164678842Y-65349500D01*
X164521158Y-65349500D01*
X164521155Y-65349500D01*
X164366510Y-65380261D01*
X164366498Y-65380264D01*
X164220827Y-65440602D01*
X164220814Y-65440609D01*
X164089711Y-65528210D01*
X164089707Y-65528213D01*
X164087681Y-65530240D01*
X164086357Y-65530962D01*
X164085001Y-65532076D01*
X164084789Y-65531818D01*
X164026358Y-65563725D01*
X163956666Y-65558741D01*
X163915060Y-65532001D01*
X163914999Y-65532076D01*
X163914360Y-65531552D01*
X163912319Y-65530240D01*
X163910292Y-65528213D01*
X163910288Y-65528210D01*
X163779185Y-65440609D01*
X163779172Y-65440602D01*
X163633501Y-65380264D01*
X163633489Y-65380261D01*
X163478845Y-65349500D01*
X163478842Y-65349500D01*
X163321158Y-65349500D01*
X163321155Y-65349500D01*
X163166510Y-65380261D01*
X163166498Y-65380264D01*
X163020827Y-65440602D01*
X163020814Y-65440609D01*
X162889711Y-65528210D01*
X162889707Y-65528213D01*
X162778213Y-65639707D01*
X162778210Y-65639711D01*
X162690609Y-65770814D01*
X162690602Y-65770827D01*
X162630264Y-65916498D01*
X162630261Y-65916510D01*
X162599500Y-66071153D01*
X160296110Y-66071153D01*
X160294756Y-57761577D01*
X175649500Y-57761577D01*
X175649500Y-57958422D01*
X175680290Y-58152826D01*
X175741117Y-58340029D01*
X175812203Y-58479542D01*
X175830476Y-58515405D01*
X175946172Y-58674646D01*
X176085354Y-58813828D01*
X176204784Y-58900600D01*
X176244596Y-58929525D01*
X176421763Y-59019795D01*
X176472560Y-59067769D01*
X176489355Y-59135590D01*
X176466818Y-59201725D01*
X176421764Y-59240765D01*
X176244859Y-59330902D01*
X176209873Y-59356320D01*
X176209872Y-59356320D01*
X176770590Y-59917037D01*
X176707007Y-59934075D01*
X176592993Y-59999901D01*
X176499901Y-60092993D01*
X176434075Y-60207007D01*
X176417037Y-60270590D01*
X175856320Y-59709872D01*
X175856320Y-59709873D01*
X175830902Y-59744859D01*
X175830899Y-59744863D01*
X175741582Y-59920161D01*
X175680778Y-60107294D01*
X175650000Y-60301617D01*
X175650000Y-60498382D01*
X175680778Y-60692705D01*
X175741581Y-60879835D01*
X175830905Y-61055145D01*
X175856319Y-61090125D01*
X175856320Y-61090125D01*
X176417037Y-60529408D01*
X176434075Y-60592993D01*
X176499901Y-60707007D01*
X176592993Y-60800099D01*
X176707007Y-60865925D01*
X176770590Y-60882962D01*
X176209873Y-61443677D01*
X176209873Y-61443678D01*
X176244858Y-61469096D01*
X176421764Y-61559234D01*
X176472560Y-61607209D01*
X176489355Y-61675030D01*
X176466818Y-61741164D01*
X176421764Y-61780204D01*
X176244594Y-61870476D01*
X176153741Y-61936485D01*
X176085354Y-61986172D01*
X176085352Y-61986174D01*
X176085351Y-61986174D01*
X175946174Y-62125351D01*
X175946174Y-62125352D01*
X175946172Y-62125354D01*
X175896485Y-62193741D01*
X175830476Y-62284594D01*
X175741117Y-62459970D01*
X175680290Y-62647173D01*
X175649500Y-62841577D01*
X175649500Y-63038422D01*
X175680290Y-63232826D01*
X175741117Y-63420029D01*
X175830476Y-63595405D01*
X175946172Y-63754646D01*
X176085354Y-63893828D01*
X176244595Y-64009524D01*
X176327455Y-64051743D01*
X176419970Y-64098882D01*
X176419972Y-64098882D01*
X176419975Y-64098884D01*
X176520317Y-64131487D01*
X176607173Y-64159709D01*
X176801578Y-64190500D01*
X176801583Y-64190500D01*
X176998422Y-64190500D01*
X177192826Y-64159709D01*
X177380025Y-64098884D01*
X177555405Y-64009524D01*
X177714646Y-63893828D01*
X177853828Y-63754646D01*
X177969524Y-63595405D01*
X178058884Y-63420025D01*
X178119709Y-63232826D01*
X178124987Y-63199500D01*
X178150500Y-63038422D01*
X178150500Y-62841577D01*
X178119709Y-62647173D01*
X178068546Y-62489711D01*
X178058884Y-62459975D01*
X178058882Y-62459972D01*
X178058882Y-62459970D01*
X177972588Y-62290609D01*
X177969524Y-62284595D01*
X177853828Y-62125354D01*
X177714646Y-61986172D01*
X177625156Y-61921153D01*
X188399500Y-61921153D01*
X188399500Y-62078846D01*
X188430261Y-62233489D01*
X188430264Y-62233501D01*
X188490602Y-62379172D01*
X188490609Y-62379185D01*
X188578210Y-62510288D01*
X188578213Y-62510292D01*
X188689707Y-62621786D01*
X188689711Y-62621789D01*
X188820814Y-62709390D01*
X188820827Y-62709397D01*
X188958683Y-62766498D01*
X188966503Y-62769737D01*
X189121153Y-62800499D01*
X189121156Y-62800500D01*
X189121158Y-62800500D01*
X189278844Y-62800500D01*
X189278845Y-62800499D01*
X189433497Y-62769737D01*
X189579179Y-62709394D01*
X189672298Y-62647174D01*
X189710875Y-62621398D01*
X189777553Y-62600520D01*
X189779766Y-62600500D01*
X197299903Y-62600500D01*
X197366942Y-62620185D01*
X197387584Y-62636819D01*
X200565425Y-65814660D01*
X200598910Y-65875983D01*
X200599361Y-65878149D01*
X200630261Y-66033491D01*
X200630264Y-66033501D01*
X200690602Y-66179172D01*
X200690609Y-66179185D01*
X200778210Y-66310288D01*
X200778213Y-66310292D01*
X200889707Y-66421786D01*
X200889711Y-66421789D01*
X201020814Y-66509390D01*
X201020827Y-66509397D01*
X201166498Y-66569735D01*
X201166503Y-66569737D01*
X201321153Y-66600499D01*
X201321156Y-66600500D01*
X201321158Y-66600500D01*
X201478844Y-66600500D01*
X201478845Y-66600499D01*
X201633497Y-66569737D01*
X201779179Y-66509394D01*
X201910289Y-66421789D01*
X202021789Y-66310289D01*
X202109394Y-66179179D01*
X202169737Y-66033497D01*
X202200500Y-65878842D01*
X202200500Y-65721158D01*
X202200500Y-65721155D01*
X202200499Y-65721153D01*
X202176036Y-65598170D01*
X202169737Y-65566503D01*
X202155016Y-65530962D01*
X202109397Y-65420827D01*
X202109390Y-65420814D01*
X202021789Y-65289711D01*
X202021786Y-65289707D01*
X201910292Y-65178213D01*
X201910288Y-65178210D01*
X201779185Y-65090609D01*
X201779172Y-65090602D01*
X201633501Y-65030264D01*
X201633491Y-65030261D01*
X201478151Y-64999362D01*
X201416241Y-64966977D01*
X201414662Y-64965426D01*
X198128289Y-61679054D01*
X201999498Y-61679054D01*
X202040423Y-61831785D01*
X202069358Y-61881900D01*
X202069359Y-61881904D01*
X202069360Y-61881904D01*
X202119479Y-61968714D01*
X202119481Y-61968717D01*
X202238349Y-62087585D01*
X202238355Y-62087590D01*
X204315139Y-64164374D01*
X204315149Y-64164385D01*
X204319479Y-64168715D01*
X204319480Y-64168716D01*
X204431284Y-64280520D01*
X204518095Y-64330639D01*
X204518097Y-64330641D01*
X204556151Y-64352611D01*
X204568215Y-64359577D01*
X204720943Y-64400501D01*
X204720946Y-64400501D01*
X204886653Y-64400501D01*
X204886669Y-64400500D01*
X205099903Y-64400500D01*
X205166942Y-64420185D01*
X205187584Y-64436819D01*
X205965425Y-65214660D01*
X205998910Y-65275983D01*
X205999361Y-65278149D01*
X206030261Y-65433491D01*
X206030264Y-65433501D01*
X206090602Y-65579172D01*
X206090609Y-65579185D01*
X206178210Y-65710288D01*
X206178213Y-65710292D01*
X206289707Y-65821786D01*
X206289711Y-65821789D01*
X206420814Y-65909390D01*
X206420827Y-65909397D01*
X206566498Y-65969735D01*
X206566503Y-65969737D01*
X206721153Y-66000499D01*
X206721156Y-66000500D01*
X206721158Y-66000500D01*
X206878844Y-66000500D01*
X206878845Y-66000499D01*
X207033497Y-65969737D01*
X207179179Y-65909394D01*
X207310289Y-65821789D01*
X207421789Y-65710289D01*
X207509394Y-65579179D01*
X207528936Y-65532001D01*
X207543785Y-65496153D01*
X207899500Y-65496153D01*
X207899500Y-65653846D01*
X207930261Y-65808489D01*
X207930264Y-65808501D01*
X207990602Y-65954172D01*
X207990609Y-65954185D01*
X208078210Y-66085288D01*
X208078213Y-66085292D01*
X208189707Y-66196786D01*
X208189711Y-66196789D01*
X208320814Y-66284390D01*
X208320827Y-66284397D01*
X208434524Y-66331491D01*
X208466503Y-66344737D01*
X208621153Y-66375499D01*
X208621156Y-66375500D01*
X208621158Y-66375500D01*
X208778844Y-66375500D01*
X208778845Y-66375499D01*
X208933497Y-66344737D01*
X209079179Y-66284394D01*
X209210289Y-66196789D01*
X209321789Y-66085289D01*
X209321794Y-66085280D01*
X209322458Y-66084289D01*
X209322458Y-66084288D01*
X209409390Y-65954185D01*
X209409390Y-65954184D01*
X209409394Y-65954179D01*
X209469737Y-65808497D01*
X209500500Y-65653842D01*
X209500500Y-65496158D01*
X209500500Y-65496155D01*
X209500499Y-65496153D01*
X209489849Y-65442614D01*
X209469737Y-65341503D01*
X209431312Y-65248735D01*
X209409397Y-65195827D01*
X209409390Y-65195814D01*
X209321789Y-65064711D01*
X209321786Y-65064707D01*
X209210292Y-64953213D01*
X209210288Y-64953210D01*
X209079185Y-64865609D01*
X209079172Y-64865602D01*
X208933501Y-64805264D01*
X208933489Y-64805261D01*
X208778845Y-64774500D01*
X208778842Y-64774500D01*
X208621158Y-64774500D01*
X208621155Y-64774500D01*
X208466510Y-64805261D01*
X208466498Y-64805264D01*
X208320827Y-64865602D01*
X208320814Y-64865609D01*
X208189711Y-64953210D01*
X208189707Y-64953213D01*
X208078213Y-65064707D01*
X208078210Y-65064711D01*
X207990609Y-65195814D01*
X207990602Y-65195827D01*
X207930264Y-65341498D01*
X207930261Y-65341510D01*
X207899500Y-65496153D01*
X207543785Y-65496153D01*
X207565958Y-65442621D01*
X207565958Y-65442619D01*
X207569737Y-65433497D01*
X207600500Y-65278842D01*
X207600500Y-65121158D01*
X207600500Y-65121155D01*
X207600499Y-65121153D01*
X207582419Y-65030261D01*
X207569737Y-64966503D01*
X207564231Y-64953210D01*
X207509397Y-64820827D01*
X207509390Y-64820814D01*
X207421789Y-64689711D01*
X207421786Y-64689707D01*
X207310292Y-64578213D01*
X207310288Y-64578210D01*
X207179185Y-64490609D01*
X207179172Y-64490602D01*
X207033501Y-64430264D01*
X207033491Y-64430261D01*
X206878149Y-64399361D01*
X206816238Y-64366976D01*
X206814660Y-64365425D01*
X205887590Y-63438355D01*
X205887588Y-63438352D01*
X205768717Y-63319481D01*
X205768716Y-63319480D01*
X205681904Y-63269360D01*
X205681904Y-63269359D01*
X205681900Y-63269358D01*
X205631785Y-63240423D01*
X205479057Y-63199499D01*
X205320943Y-63199499D01*
X205313347Y-63199499D01*
X205313331Y-63199500D01*
X205100097Y-63199500D01*
X205033058Y-63179815D01*
X205012416Y-63163181D01*
X204770388Y-62921153D01*
X210454500Y-62921153D01*
X210454500Y-63078846D01*
X210485261Y-63233489D01*
X210485264Y-63233501D01*
X210545602Y-63379172D01*
X210545609Y-63379185D01*
X210633210Y-63510288D01*
X210633213Y-63510292D01*
X210744707Y-63621786D01*
X210744711Y-63621789D01*
X210875814Y-63709390D01*
X210875827Y-63709397D01*
X211021498Y-63769735D01*
X211021503Y-63769737D01*
X211176153Y-63800499D01*
X211176156Y-63800500D01*
X211176158Y-63800500D01*
X211333844Y-63800500D01*
X211333845Y-63800499D01*
X211488497Y-63769737D01*
X211634179Y-63709394D01*
X211765289Y-63621789D01*
X211769065Y-63618013D01*
X227987000Y-63618013D01*
X227987000Y-63806986D01*
X228016559Y-63993618D01*
X228074954Y-64173336D01*
X228155105Y-64330639D01*
X228160740Y-64341699D01*
X228271810Y-64494573D01*
X228405427Y-64628190D01*
X228558301Y-64739260D01*
X228726668Y-64825047D01*
X228849112Y-64864831D01*
X228906787Y-64904269D01*
X228933985Y-64968627D01*
X228922070Y-65037474D01*
X228874826Y-65088949D01*
X228849112Y-65100693D01*
X228726861Y-65140415D01*
X228558560Y-65226169D01*
X228533170Y-65244616D01*
X228533169Y-65244616D01*
X228976441Y-65687887D01*
X228955909Y-65693389D01*
X228819092Y-65772381D01*
X228707381Y-65884092D01*
X228628389Y-66020909D01*
X228622887Y-66041440D01*
X228179616Y-65598169D01*
X228179616Y-65598170D01*
X228161169Y-65623560D01*
X228075414Y-65791862D01*
X228017048Y-65971497D01*
X227987500Y-66158052D01*
X227987500Y-66346947D01*
X228017048Y-66533502D01*
X228075414Y-66713137D01*
X228161166Y-66881433D01*
X228179616Y-66906828D01*
X228622887Y-66463558D01*
X228628389Y-66484091D01*
X228707381Y-66620908D01*
X228819092Y-66732619D01*
X228955909Y-66811611D01*
X228976440Y-66817112D01*
X228533169Y-67260382D01*
X228533170Y-67260383D01*
X228558559Y-67278829D01*
X228726862Y-67364585D01*
X228849111Y-67404306D01*
X228906786Y-67443743D01*
X228933985Y-67508102D01*
X228922071Y-67576948D01*
X228874827Y-67628424D01*
X228849112Y-67640168D01*
X228726663Y-67679954D01*
X228558300Y-67765740D01*
X228471079Y-67829110D01*
X228405427Y-67876810D01*
X228405425Y-67876812D01*
X228405424Y-67876812D01*
X228271812Y-68010424D01*
X228271812Y-68010425D01*
X228271810Y-68010427D01*
X228236236Y-68059390D01*
X228160740Y-68163300D01*
X228074954Y-68331663D01*
X228016559Y-68511381D01*
X227987000Y-68698013D01*
X227987000Y-68886986D01*
X228016559Y-69073618D01*
X228074954Y-69253336D01*
X228107952Y-69318097D01*
X228160740Y-69421699D01*
X228271810Y-69574573D01*
X228405427Y-69708190D01*
X228558301Y-69819260D01*
X228637847Y-69859790D01*
X228726663Y-69905045D01*
X228726665Y-69905045D01*
X228726668Y-69905047D01*
X228822997Y-69936346D01*
X228906381Y-69963440D01*
X229093014Y-69993000D01*
X229093019Y-69993000D01*
X229281986Y-69993000D01*
X229468618Y-69963440D01*
X229648332Y-69905047D01*
X229816699Y-69819260D01*
X229969573Y-69708190D01*
X230103190Y-69574573D01*
X230214260Y-69421699D01*
X230300047Y-69253332D01*
X230358440Y-69073618D01*
X230388000Y-68886986D01*
X230388000Y-68698013D01*
X230358440Y-68511381D01*
X230300045Y-68331663D01*
X230218263Y-68171158D01*
X230214260Y-68163301D01*
X230103190Y-68010427D01*
X229969573Y-67876810D01*
X229816699Y-67765740D01*
X229648336Y-67679954D01*
X229525887Y-67640168D01*
X229468212Y-67600730D01*
X229441014Y-67536371D01*
X229452929Y-67467525D01*
X229500173Y-67416049D01*
X229525889Y-67404306D01*
X229648135Y-67364586D01*
X229816437Y-67278831D01*
X229841828Y-67260383D01*
X229841828Y-67260382D01*
X229398559Y-66817112D01*
X229419091Y-66811611D01*
X229555908Y-66732619D01*
X229667619Y-66620908D01*
X229746611Y-66484091D01*
X229752112Y-66463558D01*
X230195382Y-66906828D01*
X230195383Y-66906828D01*
X230213831Y-66881437D01*
X230299585Y-66713137D01*
X230357951Y-66533502D01*
X230387500Y-66346947D01*
X230387500Y-66158052D01*
X230357951Y-65971497D01*
X230299585Y-65791862D01*
X230213829Y-65623559D01*
X230195383Y-65598170D01*
X230195382Y-65598169D01*
X229752112Y-66041440D01*
X229746611Y-66020909D01*
X229667619Y-65884092D01*
X229555908Y-65772381D01*
X229419091Y-65693389D01*
X229398558Y-65687887D01*
X229841828Y-65244616D01*
X229816433Y-65226166D01*
X229648137Y-65140414D01*
X229525888Y-65100693D01*
X229468212Y-65061255D01*
X229441014Y-64996897D01*
X229452929Y-64928050D01*
X229500173Y-64876575D01*
X229525882Y-64864833D01*
X229648332Y-64825047D01*
X229816699Y-64739260D01*
X229969573Y-64628190D01*
X230103190Y-64494573D01*
X230214260Y-64341699D01*
X230300047Y-64173332D01*
X230358440Y-63993618D01*
X230374245Y-63893828D01*
X230388000Y-63806986D01*
X230388000Y-63618013D01*
X230358440Y-63431381D01*
X230322081Y-63319481D01*
X230300047Y-63251668D01*
X230300045Y-63251665D01*
X230300045Y-63251663D01*
X230214259Y-63083300D01*
X230211023Y-63078846D01*
X230103190Y-62930427D01*
X229969573Y-62796810D01*
X229816699Y-62685740D01*
X229648336Y-62599954D01*
X229468618Y-62541559D01*
X229281986Y-62512000D01*
X229281981Y-62512000D01*
X229093019Y-62512000D01*
X229093014Y-62512000D01*
X228906381Y-62541559D01*
X228726663Y-62599954D01*
X228558300Y-62685740D01*
X228471079Y-62749110D01*
X228405427Y-62796810D01*
X228405425Y-62796812D01*
X228405424Y-62796812D01*
X228271812Y-62930424D01*
X228271812Y-62930425D01*
X228271810Y-62930427D01*
X228224110Y-62996079D01*
X228160740Y-63083300D01*
X228074954Y-63251663D01*
X228016559Y-63431381D01*
X227987000Y-63618013D01*
X211769065Y-63618013D01*
X211791673Y-63595405D01*
X211861613Y-63525466D01*
X211876786Y-63510292D01*
X211876789Y-63510289D01*
X211964394Y-63379179D01*
X212024737Y-63233497D01*
X212055500Y-63078842D01*
X212055500Y-62921158D01*
X212055500Y-62921155D01*
X212055499Y-62921153D01*
X212024738Y-62766510D01*
X212024737Y-62766503D01*
X211975310Y-62647174D01*
X211964397Y-62620827D01*
X211964390Y-62620814D01*
X211876789Y-62489711D01*
X211876786Y-62489707D01*
X211765292Y-62378213D01*
X211765288Y-62378210D01*
X211634185Y-62290609D01*
X211634172Y-62290602D01*
X211488501Y-62230264D01*
X211488489Y-62230261D01*
X211333845Y-62199500D01*
X211333842Y-62199500D01*
X211176158Y-62199500D01*
X211176155Y-62199500D01*
X211021510Y-62230261D01*
X211021498Y-62230264D01*
X210875827Y-62290602D01*
X210875814Y-62290609D01*
X210744711Y-62378210D01*
X210744707Y-62378213D01*
X210633213Y-62489707D01*
X210633210Y-62489711D01*
X210545609Y-62620814D01*
X210545602Y-62620827D01*
X210485264Y-62766498D01*
X210485261Y-62766510D01*
X210454500Y-62921153D01*
X204770388Y-62921153D01*
X203635194Y-61785959D01*
X203601709Y-61724636D01*
X203606693Y-61654944D01*
X203648565Y-61599011D01*
X203698682Y-61576661D01*
X203733495Y-61569737D01*
X203854827Y-61519480D01*
X203879170Y-61509397D01*
X203879170Y-61509396D01*
X203879177Y-61509394D01*
X204010287Y-61421789D01*
X204121787Y-61310289D01*
X204209392Y-61179179D01*
X204269735Y-61033497D01*
X204289111Y-60936085D01*
X204300636Y-60878150D01*
X204333021Y-60816239D01*
X204334516Y-60814716D01*
X206636207Y-58513025D01*
X206697528Y-58479542D01*
X206767220Y-58484526D01*
X206823153Y-58526398D01*
X206838447Y-58553256D01*
X206890602Y-58679172D01*
X206890609Y-58679185D01*
X206978210Y-58810288D01*
X206978213Y-58810292D01*
X207089707Y-58921786D01*
X207089711Y-58921789D01*
X207220814Y-59009390D01*
X207220827Y-59009397D01*
X207361752Y-59067769D01*
X207366503Y-59069737D01*
X207521153Y-59100499D01*
X207521156Y-59100500D01*
X207521158Y-59100500D01*
X207678844Y-59100500D01*
X207678845Y-59100499D01*
X207833497Y-59069737D01*
X207979179Y-59009394D01*
X208110289Y-58921789D01*
X208221789Y-58810289D01*
X208309394Y-58679179D01*
X208369737Y-58533497D01*
X208400500Y-58378842D01*
X208400638Y-58378150D01*
X208433023Y-58316239D01*
X208434518Y-58314716D01*
X212312416Y-54436819D01*
X212373739Y-54403334D01*
X212400097Y-54400500D01*
X216420234Y-54400500D01*
X216487273Y-54420185D01*
X216489125Y-54421398D01*
X216620814Y-54509390D01*
X216620827Y-54509397D01*
X216766498Y-54569735D01*
X216766503Y-54569737D01*
X216921153Y-54600499D01*
X216921156Y-54600500D01*
X216921158Y-54600500D01*
X217078844Y-54600500D01*
X217078845Y-54600499D01*
X217233497Y-54569737D01*
X217379179Y-54509394D01*
X217510289Y-54421789D01*
X217621789Y-54310289D01*
X217709394Y-54179179D01*
X217769737Y-54033497D01*
X217800500Y-53878842D01*
X217800500Y-53721158D01*
X217800500Y-53721155D01*
X217800499Y-53721153D01*
X217769737Y-53566503D01*
X217750955Y-53521158D01*
X217709397Y-53420827D01*
X217709390Y-53420814D01*
X217621789Y-53289711D01*
X217621786Y-53289707D01*
X217510292Y-53178213D01*
X217510288Y-53178210D01*
X217379185Y-53090609D01*
X217379172Y-53090602D01*
X217233501Y-53030264D01*
X217233489Y-53030261D01*
X217078845Y-52999500D01*
X217078842Y-52999500D01*
X216921158Y-52999500D01*
X216921155Y-52999500D01*
X216766510Y-53030261D01*
X216766498Y-53030264D01*
X216620827Y-53090602D01*
X216620814Y-53090609D01*
X216489125Y-53178602D01*
X216422447Y-53199480D01*
X216420234Y-53199500D01*
X213949097Y-53199500D01*
X213882058Y-53179815D01*
X213836303Y-53127011D01*
X213826359Y-53057853D01*
X213855384Y-52994297D01*
X213861416Y-52987819D01*
X214932478Y-51916757D01*
X217278081Y-49571153D01*
X220469500Y-49571153D01*
X220469500Y-49728846D01*
X220500261Y-49883489D01*
X220500264Y-49883501D01*
X220560602Y-50029172D01*
X220560609Y-50029185D01*
X220648210Y-50160288D01*
X220648213Y-50160292D01*
X220759707Y-50271786D01*
X220759711Y-50271789D01*
X220890814Y-50359390D01*
X220890827Y-50359397D01*
X221029067Y-50416657D01*
X221036503Y-50419737D01*
X221191153Y-50450499D01*
X221191156Y-50450500D01*
X221191158Y-50450500D01*
X221348844Y-50450500D01*
X221348845Y-50450499D01*
X221503497Y-50419737D01*
X221649179Y-50359394D01*
X221780289Y-50271789D01*
X221891789Y-50160289D01*
X221979394Y-50029179D01*
X222039737Y-49883497D01*
X222070500Y-49728842D01*
X222070500Y-49571158D01*
X222070500Y-49571155D01*
X222070499Y-49571153D01*
X222051847Y-49477385D01*
X222039737Y-49416503D01*
X221993684Y-49305320D01*
X221979397Y-49270827D01*
X221979390Y-49270814D01*
X221891789Y-49139711D01*
X221891786Y-49139707D01*
X221780292Y-49028213D01*
X221780288Y-49028210D01*
X221649185Y-48940609D01*
X221649172Y-48940602D01*
X221503501Y-48880264D01*
X221503489Y-48880261D01*
X221348845Y-48849500D01*
X221348842Y-48849500D01*
X221191158Y-48849500D01*
X221191155Y-48849500D01*
X221036510Y-48880261D01*
X221036498Y-48880264D01*
X220890827Y-48940602D01*
X220890814Y-48940609D01*
X220759711Y-49028210D01*
X220759707Y-49028213D01*
X220648213Y-49139707D01*
X220648210Y-49139711D01*
X220560609Y-49270814D01*
X220560602Y-49270827D01*
X220500264Y-49416498D01*
X220500261Y-49416510D01*
X220469500Y-49571153D01*
X217278081Y-49571153D01*
X219075685Y-47773548D01*
X219137006Y-47740065D01*
X219206698Y-47745049D01*
X219210798Y-47746663D01*
X219235706Y-47756980D01*
X219266497Y-47769735D01*
X219266499Y-47769735D01*
X219266503Y-47769737D01*
X219421153Y-47800499D01*
X219421156Y-47800500D01*
X219421158Y-47800500D01*
X219578844Y-47800500D01*
X219578845Y-47800499D01*
X219733497Y-47769737D01*
X219850790Y-47721153D01*
X219879172Y-47709397D01*
X219879172Y-47709396D01*
X219879179Y-47709394D01*
X220010289Y-47621789D01*
X220121789Y-47510289D01*
X220209394Y-47379179D01*
X220211688Y-47373642D01*
X220245049Y-47293099D01*
X220269737Y-47233497D01*
X220300500Y-47078842D01*
X220300500Y-46921158D01*
X220300500Y-46921155D01*
X220300499Y-46921153D01*
X220293271Y-46884814D01*
X220269737Y-46766503D01*
X220250955Y-46721158D01*
X220209397Y-46620827D01*
X220209390Y-46620814D01*
X220121789Y-46489711D01*
X220121786Y-46489707D01*
X220010292Y-46378213D01*
X220010288Y-46378210D01*
X219879185Y-46290609D01*
X219879172Y-46290602D01*
X219733501Y-46230264D01*
X219733489Y-46230261D01*
X219578845Y-46199500D01*
X219578842Y-46199500D01*
X219421158Y-46199500D01*
X219421155Y-46199500D01*
X219266510Y-46230261D01*
X219266498Y-46230264D01*
X219120827Y-46290602D01*
X219120814Y-46290609D01*
X218989127Y-46378601D01*
X218928875Y-46397467D01*
X218929003Y-46398438D01*
X218923431Y-46399171D01*
X218922450Y-46399479D01*
X218920997Y-46399492D01*
X218920945Y-46399498D01*
X218768216Y-46440422D01*
X218726551Y-46464478D01*
X218726550Y-46464477D01*
X218631287Y-46519477D01*
X218631282Y-46519481D01*
X218519478Y-46631286D01*
X216279102Y-48871661D01*
X216217779Y-48905146D01*
X216148087Y-48900162D01*
X216103740Y-48871661D01*
X216010292Y-48778213D01*
X216010288Y-48778210D01*
X215879185Y-48690609D01*
X215879172Y-48690602D01*
X215733501Y-48630264D01*
X215733489Y-48630261D01*
X215578845Y-48599500D01*
X215578842Y-48599500D01*
X215421158Y-48599500D01*
X215421155Y-48599500D01*
X215266510Y-48630261D01*
X215266498Y-48630264D01*
X215120827Y-48690602D01*
X215120814Y-48690609D01*
X214989125Y-48778602D01*
X214922447Y-48799480D01*
X214920234Y-48799500D01*
X204179766Y-48799500D01*
X204112727Y-48779815D01*
X204110875Y-48778602D01*
X203979185Y-48690609D01*
X203979172Y-48690602D01*
X203833501Y-48630264D01*
X203833489Y-48630261D01*
X203678845Y-48599500D01*
X203678842Y-48599500D01*
X203521158Y-48599500D01*
X203521155Y-48599500D01*
X203366510Y-48630261D01*
X203366498Y-48630264D01*
X203220827Y-48690602D01*
X203220814Y-48690609D01*
X203089711Y-48778210D01*
X203089707Y-48778213D01*
X202978213Y-48889707D01*
X202978210Y-48889711D01*
X202890609Y-49020814D01*
X202890602Y-49020827D01*
X202830264Y-49166498D01*
X202830261Y-49166510D01*
X202799500Y-49321153D01*
X202799500Y-49478846D01*
X202830261Y-49633489D01*
X202830264Y-49633501D01*
X202890602Y-49779172D01*
X202890609Y-49779185D01*
X202978210Y-49910288D01*
X202978213Y-49910292D01*
X203089707Y-50021786D01*
X203089711Y-50021789D01*
X203220814Y-50109390D01*
X203220827Y-50109397D01*
X203366498Y-50169735D01*
X203366503Y-50169737D01*
X203521153Y-50200499D01*
X203521156Y-50200500D01*
X203521158Y-50200500D01*
X203678844Y-50200500D01*
X203678845Y-50200499D01*
X203833497Y-50169737D01*
X203979179Y-50109394D01*
X203979185Y-50109390D01*
X204110875Y-50021398D01*
X204177553Y-50000520D01*
X204179766Y-50000500D01*
X214850902Y-50000500D01*
X214917941Y-50020185D01*
X214963696Y-50072989D01*
X214973640Y-50142147D01*
X214944615Y-50205703D01*
X214938583Y-50212181D01*
X212588584Y-52562181D01*
X212527261Y-52595666D01*
X212500903Y-52598500D01*
X211716738Y-52598500D01*
X211649699Y-52578815D01*
X211603944Y-52526011D01*
X211594000Y-52456853D01*
X211623025Y-52393297D01*
X211681803Y-52355523D01*
X211692547Y-52352883D01*
X211710965Y-52349218D01*
X211733497Y-52344737D01*
X211879179Y-52284394D01*
X212010289Y-52196789D01*
X212121789Y-52085289D01*
X212209394Y-51954179D01*
X212269737Y-51808497D01*
X212300500Y-51653842D01*
X212300500Y-51496158D01*
X212300500Y-51496155D01*
X212300499Y-51496153D01*
X212269738Y-51341510D01*
X212269737Y-51341503D01*
X212255676Y-51307557D01*
X212209397Y-51195827D01*
X212209390Y-51195814D01*
X212121789Y-51064711D01*
X212121786Y-51064707D01*
X212010292Y-50953213D01*
X212010288Y-50953210D01*
X211879185Y-50865609D01*
X211879172Y-50865602D01*
X211733501Y-50805264D01*
X211733489Y-50805261D01*
X211578845Y-50774500D01*
X211578842Y-50774500D01*
X211421158Y-50774500D01*
X211421155Y-50774500D01*
X211266510Y-50805261D01*
X211266498Y-50805264D01*
X211120827Y-50865602D01*
X211120814Y-50865609D01*
X210989711Y-50953210D01*
X210989707Y-50953213D01*
X210878213Y-51064707D01*
X210878210Y-51064711D01*
X210790609Y-51195814D01*
X210790602Y-51195827D01*
X210730264Y-51341498D01*
X210730261Y-51341510D01*
X210699500Y-51496153D01*
X210699500Y-51653846D01*
X210730261Y-51808489D01*
X210730264Y-51808501D01*
X210790602Y-51954172D01*
X210790609Y-51954185D01*
X210878210Y-52085288D01*
X210878213Y-52085292D01*
X210989707Y-52196786D01*
X210989711Y-52196789D01*
X211120814Y-52284390D01*
X211120827Y-52284397D01*
X211266498Y-52344735D01*
X211266503Y-52344737D01*
X211284851Y-52348386D01*
X211307453Y-52352883D01*
X211369364Y-52385268D01*
X211403938Y-52445983D01*
X211400199Y-52515753D01*
X211359332Y-52572425D01*
X211294314Y-52598006D01*
X211283262Y-52598500D01*
X211180055Y-52598500D01*
X211021940Y-52598500D01*
X210869213Y-52639423D01*
X210869212Y-52639423D01*
X210869210Y-52639424D01*
X210869207Y-52639425D01*
X210819094Y-52668359D01*
X210819093Y-52668360D01*
X210775687Y-52693420D01*
X210732283Y-52718479D01*
X210732280Y-52718481D01*
X210620476Y-52830286D01*
X203934504Y-59516257D01*
X203873181Y-59549742D01*
X203803489Y-59544758D01*
X203747556Y-59502886D01*
X203732262Y-59476029D01*
X203709395Y-59420823D01*
X203709390Y-59420814D01*
X203621789Y-59289711D01*
X203621786Y-59289707D01*
X203510292Y-59178213D01*
X203510288Y-59178210D01*
X203379185Y-59090609D01*
X203379172Y-59090602D01*
X203233501Y-59030264D01*
X203233489Y-59030261D01*
X203078845Y-58999500D01*
X203078842Y-58999500D01*
X202921158Y-58999500D01*
X202921155Y-58999500D01*
X202766510Y-59030261D01*
X202766498Y-59030264D01*
X202620827Y-59090602D01*
X202620814Y-59090609D01*
X202489711Y-59178210D01*
X202489707Y-59178213D01*
X202378213Y-59289707D01*
X202378210Y-59289711D01*
X202290609Y-59420814D01*
X202290602Y-59420827D01*
X202230264Y-59566498D01*
X202230261Y-59566508D01*
X202199362Y-59721848D01*
X202193371Y-59734618D01*
X202192185Y-59745400D01*
X202179278Y-59764662D01*
X202174098Y-59775707D01*
X202170007Y-59780756D01*
X202119480Y-59831284D01*
X202100552Y-59864069D01*
X202040423Y-59968215D01*
X201999499Y-60120943D01*
X201999499Y-60279057D01*
X201999499Y-60279059D01*
X201999500Y-60289053D01*
X201999500Y-61513330D01*
X201999499Y-61513348D01*
X201999499Y-61679054D01*
X201999498Y-61679054D01*
X198128289Y-61679054D01*
X198087590Y-61638355D01*
X198087588Y-61638352D01*
X197968717Y-61519481D01*
X197968716Y-61519480D01*
X197881904Y-61469360D01*
X197881904Y-61469359D01*
X197881900Y-61469358D01*
X197831785Y-61440423D01*
X197679057Y-61399499D01*
X197520943Y-61399499D01*
X197513347Y-61399499D01*
X197513331Y-61399500D01*
X189779766Y-61399500D01*
X189712727Y-61379815D01*
X189710875Y-61378602D01*
X189579185Y-61290609D01*
X189579172Y-61290602D01*
X189433501Y-61230264D01*
X189433489Y-61230261D01*
X189278845Y-61199500D01*
X189278842Y-61199500D01*
X189121158Y-61199500D01*
X189121155Y-61199500D01*
X188966510Y-61230261D01*
X188966498Y-61230264D01*
X188820827Y-61290602D01*
X188820814Y-61290609D01*
X188689711Y-61378210D01*
X188689707Y-61378213D01*
X188578213Y-61489707D01*
X188578210Y-61489711D01*
X188490609Y-61620814D01*
X188490602Y-61620827D01*
X188430264Y-61766498D01*
X188430261Y-61766510D01*
X188399500Y-61921153D01*
X177625156Y-61921153D01*
X177555405Y-61870476D01*
X177380025Y-61781116D01*
X177380024Y-61781115D01*
X177378235Y-61780204D01*
X177327439Y-61732230D01*
X177310644Y-61664409D01*
X177333181Y-61598274D01*
X177378236Y-61559234D01*
X177555141Y-61469097D01*
X177590125Y-61443678D01*
X177590126Y-61443678D01*
X177029410Y-60882962D01*
X177092993Y-60865925D01*
X177207007Y-60800099D01*
X177300099Y-60707007D01*
X177365925Y-60592993D01*
X177382962Y-60529410D01*
X177943678Y-61090126D01*
X177943678Y-61090125D01*
X177969095Y-61055143D01*
X178058418Y-60879835D01*
X178119221Y-60692705D01*
X178150000Y-60498382D01*
X178150000Y-60301618D01*
X178123168Y-60132214D01*
X178123167Y-60132211D01*
X178119220Y-60107289D01*
X178058418Y-59920164D01*
X177969096Y-59744858D01*
X177943678Y-59709873D01*
X177943677Y-59709873D01*
X177382962Y-60270589D01*
X177365925Y-60207007D01*
X177300099Y-60092993D01*
X177207007Y-59999901D01*
X177092993Y-59934075D01*
X177029409Y-59917037D01*
X177590125Y-59356320D01*
X177590125Y-59356319D01*
X177555145Y-59330905D01*
X177378235Y-59240765D01*
X177327439Y-59192790D01*
X177310644Y-59124969D01*
X177333182Y-59058834D01*
X177378236Y-59019795D01*
X177380022Y-59018884D01*
X177380025Y-59018884D01*
X177555405Y-58929524D01*
X177714646Y-58813828D01*
X177853828Y-58674646D01*
X177969524Y-58515405D01*
X178058884Y-58340025D01*
X178119709Y-58152826D01*
X178150500Y-57958422D01*
X178150500Y-57761577D01*
X178119709Y-57567173D01*
X178058882Y-57379970D01*
X177969523Y-57204594D01*
X177853828Y-57045354D01*
X177714646Y-56906172D01*
X177555405Y-56790476D01*
X177380029Y-56701117D01*
X177192826Y-56640290D01*
X176998422Y-56609500D01*
X176998417Y-56609500D01*
X176801583Y-56609500D01*
X176801578Y-56609500D01*
X176607173Y-56640290D01*
X176419970Y-56701117D01*
X176244594Y-56790476D01*
X176153741Y-56856485D01*
X176085354Y-56906172D01*
X176085352Y-56906174D01*
X176085351Y-56906174D01*
X175946174Y-57045351D01*
X175946174Y-57045352D01*
X175946172Y-57045354D01*
X175896485Y-57113741D01*
X175830476Y-57204594D01*
X175741117Y-57379970D01*
X175680290Y-57567173D01*
X175649500Y-57761577D01*
X160294756Y-57761577D01*
X160293983Y-53021153D01*
X174799500Y-53021153D01*
X174799500Y-53178846D01*
X174830261Y-53333489D01*
X174830264Y-53333501D01*
X174890602Y-53479172D01*
X174890609Y-53479185D01*
X174978210Y-53610288D01*
X174978213Y-53610292D01*
X175089707Y-53721786D01*
X175089711Y-53721789D01*
X175220814Y-53809390D01*
X175220827Y-53809397D01*
X175366498Y-53869735D01*
X175366503Y-53869737D01*
X175521153Y-53900499D01*
X175521156Y-53900500D01*
X175521158Y-53900500D01*
X175678844Y-53900500D01*
X175678845Y-53900499D01*
X175833497Y-53869737D01*
X175979179Y-53809394D01*
X176110289Y-53721789D01*
X176221789Y-53610289D01*
X176281348Y-53521153D01*
X182399500Y-53521153D01*
X182399500Y-53678846D01*
X182430261Y-53833489D01*
X182430264Y-53833501D01*
X182490602Y-53979172D01*
X182490609Y-53979185D01*
X182578210Y-54110288D01*
X182578213Y-54110292D01*
X182689707Y-54221786D01*
X182689711Y-54221789D01*
X182820814Y-54309390D01*
X182820827Y-54309397D01*
X182966498Y-54369735D01*
X182966503Y-54369737D01*
X183121153Y-54400499D01*
X183121156Y-54400500D01*
X183121158Y-54400500D01*
X183278844Y-54400500D01*
X183278845Y-54400499D01*
X183433497Y-54369737D01*
X183579179Y-54309394D01*
X183710289Y-54221789D01*
X183821789Y-54110289D01*
X183909394Y-53979179D01*
X183969737Y-53833497D01*
X184000500Y-53678842D01*
X184000500Y-53521158D01*
X184000500Y-53521155D01*
X184000499Y-53521153D01*
X183980543Y-53420827D01*
X183969737Y-53366503D01*
X183937929Y-53289711D01*
X183909397Y-53220827D01*
X183909390Y-53220814D01*
X183821789Y-53089711D01*
X183821786Y-53089707D01*
X183710292Y-52978213D01*
X183710288Y-52978210D01*
X183579185Y-52890609D01*
X183579172Y-52890602D01*
X183433501Y-52830264D01*
X183433489Y-52830261D01*
X183278845Y-52799500D01*
X183278842Y-52799500D01*
X183121158Y-52799500D01*
X183121155Y-52799500D01*
X182966510Y-52830261D01*
X182966498Y-52830264D01*
X182820827Y-52890602D01*
X182820814Y-52890609D01*
X182689711Y-52978210D01*
X182689707Y-52978213D01*
X182578213Y-53089707D01*
X182578210Y-53089711D01*
X182490609Y-53220814D01*
X182490602Y-53220827D01*
X182430264Y-53366498D01*
X182430261Y-53366510D01*
X182399500Y-53521153D01*
X176281348Y-53521153D01*
X176309394Y-53479179D01*
X176369737Y-53333497D01*
X176400500Y-53178842D01*
X176400500Y-53021158D01*
X176400500Y-53021155D01*
X176400499Y-53021153D01*
X176374531Y-52890606D01*
X176369737Y-52866503D01*
X176354735Y-52830284D01*
X176309397Y-52720827D01*
X176309390Y-52720814D01*
X176221789Y-52589711D01*
X176221786Y-52589707D01*
X176110292Y-52478213D01*
X176110288Y-52478210D01*
X175979185Y-52390609D01*
X175979172Y-52390602D01*
X175833501Y-52330264D01*
X175833489Y-52330261D01*
X175678845Y-52299500D01*
X175678842Y-52299500D01*
X175521158Y-52299500D01*
X175521155Y-52299500D01*
X175366510Y-52330261D01*
X175366498Y-52330264D01*
X175220827Y-52390602D01*
X175220814Y-52390609D01*
X175089711Y-52478210D01*
X175089707Y-52478213D01*
X174978213Y-52589707D01*
X174978210Y-52589711D01*
X174890609Y-52720814D01*
X174890602Y-52720827D01*
X174830264Y-52866498D01*
X174830261Y-52866510D01*
X174799500Y-53021153D01*
X160293983Y-53021153D01*
X160292956Y-46721153D01*
X181149500Y-46721153D01*
X181149500Y-46878846D01*
X181180261Y-47033489D01*
X181180264Y-47033501D01*
X181240602Y-47179172D01*
X181240609Y-47179185D01*
X181328210Y-47310288D01*
X181328213Y-47310292D01*
X181330240Y-47312319D01*
X181330962Y-47313642D01*
X181332076Y-47314999D01*
X181331818Y-47315210D01*
X181363725Y-47373642D01*
X181358741Y-47443334D01*
X181332001Y-47484939D01*
X181332076Y-47485001D01*
X181331552Y-47485639D01*
X181330240Y-47487681D01*
X181328213Y-47489707D01*
X181328210Y-47489711D01*
X181240609Y-47620814D01*
X181240602Y-47620827D01*
X181180264Y-47766498D01*
X181180261Y-47766510D01*
X181149500Y-47921153D01*
X181149500Y-48078846D01*
X181180261Y-48233489D01*
X181180264Y-48233501D01*
X181240602Y-48379172D01*
X181240609Y-48379185D01*
X181328210Y-48510288D01*
X181328213Y-48510292D01*
X181330240Y-48512319D01*
X181330962Y-48513642D01*
X181332076Y-48514999D01*
X181331818Y-48515210D01*
X181363725Y-48573642D01*
X181358741Y-48643334D01*
X181332001Y-48684939D01*
X181332076Y-48685001D01*
X181331552Y-48685639D01*
X181330240Y-48687681D01*
X181328213Y-48689707D01*
X181328210Y-48689711D01*
X181240609Y-48820814D01*
X181240602Y-48820827D01*
X181180264Y-48966498D01*
X181180261Y-48966510D01*
X181149500Y-49121153D01*
X181149500Y-49278846D01*
X181180261Y-49433489D01*
X181180264Y-49433501D01*
X181240602Y-49579172D01*
X181240609Y-49579185D01*
X181328210Y-49710288D01*
X181328213Y-49710292D01*
X181439707Y-49821786D01*
X181439711Y-49821789D01*
X181570814Y-49909390D01*
X181570827Y-49909397D01*
X181716498Y-49969735D01*
X181716503Y-49969737D01*
X181871153Y-50000499D01*
X181871156Y-50000500D01*
X181871158Y-50000500D01*
X182028844Y-50000500D01*
X182028845Y-50000499D01*
X182183497Y-49969737D01*
X182329179Y-49909394D01*
X182460289Y-49821789D01*
X182462312Y-49819766D01*
X182463634Y-49819043D01*
X182464999Y-49817924D01*
X182465211Y-49818182D01*
X182523632Y-49786276D01*
X182593324Y-49791255D01*
X182634939Y-49817999D01*
X182635001Y-49817924D01*
X182635648Y-49818454D01*
X182637688Y-49819766D01*
X182639711Y-49821789D01*
X182770814Y-49909390D01*
X182770827Y-49909397D01*
X182916498Y-49969735D01*
X182916503Y-49969737D01*
X183071153Y-50000499D01*
X183071156Y-50000500D01*
X183071158Y-50000500D01*
X183228844Y-50000500D01*
X183228845Y-50000499D01*
X183383497Y-49969737D01*
X183529179Y-49909394D01*
X183660289Y-49821789D01*
X183771789Y-49710289D01*
X183859394Y-49579179D01*
X183862719Y-49571153D01*
X183900953Y-49478846D01*
X183919737Y-49433497D01*
X183950500Y-49278842D01*
X183950500Y-49121158D01*
X183950500Y-49121155D01*
X183950499Y-49121153D01*
X183932012Y-49028213D01*
X183919737Y-48966503D01*
X183919735Y-48966498D01*
X183859397Y-48820827D01*
X183859390Y-48820814D01*
X183771789Y-48689711D01*
X183769766Y-48687688D01*
X183769043Y-48686365D01*
X183767924Y-48685001D01*
X183768182Y-48684788D01*
X183736276Y-48626368D01*
X183741255Y-48556676D01*
X183767999Y-48515060D01*
X183767924Y-48514999D01*
X183768454Y-48514351D01*
X183769766Y-48512312D01*
X183771789Y-48510289D01*
X183859394Y-48379179D01*
X183919737Y-48233497D01*
X183950500Y-48078842D01*
X183950500Y-47921158D01*
X183950500Y-47921155D01*
X183950499Y-47921153D01*
X183948159Y-47909390D01*
X183919737Y-47766503D01*
X183918084Y-47762512D01*
X183900953Y-47721153D01*
X184199500Y-47721153D01*
X184199500Y-47878846D01*
X184230261Y-48033489D01*
X184230264Y-48033501D01*
X184290602Y-48179172D01*
X184290609Y-48179185D01*
X184378210Y-48310288D01*
X184378213Y-48310292D01*
X184489707Y-48421786D01*
X184489711Y-48421789D01*
X184620814Y-48509390D01*
X184620827Y-48509397D01*
X184766498Y-48569735D01*
X184766503Y-48569737D01*
X184916131Y-48599500D01*
X184921153Y-48600499D01*
X184921156Y-48600500D01*
X184921158Y-48600500D01*
X185078844Y-48600500D01*
X185078845Y-48600499D01*
X185233497Y-48569737D01*
X185367212Y-48514351D01*
X185379172Y-48509397D01*
X185379172Y-48509396D01*
X185379179Y-48509394D01*
X185510289Y-48421789D01*
X185621789Y-48310289D01*
X185709394Y-48179179D01*
X185769737Y-48033497D01*
X185800500Y-47878842D01*
X185800500Y-47721158D01*
X185800500Y-47721155D01*
X185800499Y-47721153D01*
X185782723Y-47631789D01*
X185769737Y-47566503D01*
X185737929Y-47489711D01*
X185709397Y-47420827D01*
X185709390Y-47420814D01*
X185621789Y-47289711D01*
X185621786Y-47289707D01*
X185510292Y-47178213D01*
X185510288Y-47178210D01*
X185379185Y-47090609D01*
X185379172Y-47090602D01*
X185256109Y-47039628D01*
X185256106Y-47039628D01*
X185233497Y-47030263D01*
X185233492Y-47030262D01*
X185233489Y-47030261D01*
X185078845Y-46999500D01*
X185078842Y-46999500D01*
X184921158Y-46999500D01*
X184921155Y-46999500D01*
X184766510Y-47030261D01*
X184766498Y-47030264D01*
X184620827Y-47090602D01*
X184620814Y-47090609D01*
X184489711Y-47178210D01*
X184489707Y-47178213D01*
X184378213Y-47289707D01*
X184378210Y-47289711D01*
X184290609Y-47420814D01*
X184290602Y-47420827D01*
X184230264Y-47566498D01*
X184230261Y-47566510D01*
X184199500Y-47721153D01*
X183900953Y-47721153D01*
X183859397Y-47620827D01*
X183859390Y-47620814D01*
X183771789Y-47489711D01*
X183769766Y-47487688D01*
X183769043Y-47486365D01*
X183767924Y-47485001D01*
X183768182Y-47484788D01*
X183736276Y-47426368D01*
X183741255Y-47356676D01*
X183767999Y-47315060D01*
X183767924Y-47314999D01*
X183768454Y-47314351D01*
X183769766Y-47312312D01*
X183771789Y-47310289D01*
X183859394Y-47179179D01*
X183919737Y-47033497D01*
X183940095Y-46931153D01*
X186449500Y-46931153D01*
X186449500Y-47088846D01*
X186480261Y-47243489D01*
X186480264Y-47243501D01*
X186540602Y-47389172D01*
X186540609Y-47389185D01*
X186628210Y-47520288D01*
X186628213Y-47520292D01*
X186739707Y-47631786D01*
X186739711Y-47631789D01*
X186870814Y-47719390D01*
X186870827Y-47719397D01*
X186992363Y-47769738D01*
X187016503Y-47779737D01*
X187171153Y-47810499D01*
X187171156Y-47810500D01*
X187171158Y-47810500D01*
X187328844Y-47810500D01*
X187328845Y-47810499D01*
X187483497Y-47779737D01*
X187596166Y-47733067D01*
X187629172Y-47719397D01*
X187629172Y-47719396D01*
X187629179Y-47719394D01*
X187760289Y-47631789D01*
X187871789Y-47520289D01*
X187959394Y-47389179D01*
X188019737Y-47243497D01*
X188038001Y-47151675D01*
X188044073Y-47121153D01*
X202199500Y-47121153D01*
X202199500Y-47278846D01*
X202230261Y-47433489D01*
X202230264Y-47433501D01*
X202290602Y-47579172D01*
X202290609Y-47579185D01*
X202378210Y-47710288D01*
X202378213Y-47710292D01*
X202489707Y-47821786D01*
X202489711Y-47821789D01*
X202620814Y-47909390D01*
X202620827Y-47909397D01*
X202766498Y-47969735D01*
X202766503Y-47969737D01*
X202887038Y-47993713D01*
X202921153Y-48000499D01*
X202921156Y-48000500D01*
X202921158Y-48000500D01*
X203078844Y-48000500D01*
X203078845Y-48000499D01*
X203233497Y-47969737D01*
X203379179Y-47909394D01*
X203379185Y-47909390D01*
X203510875Y-47821398D01*
X203577553Y-47800520D01*
X203579766Y-47800500D01*
X205720234Y-47800500D01*
X205787273Y-47820185D01*
X205789125Y-47821398D01*
X205920814Y-47909390D01*
X205920827Y-47909397D01*
X206066498Y-47969735D01*
X206066503Y-47969737D01*
X206187038Y-47993713D01*
X206221153Y-48000499D01*
X206221156Y-48000500D01*
X206221158Y-48000500D01*
X206378844Y-48000500D01*
X206378845Y-48000499D01*
X206533497Y-47969737D01*
X206679179Y-47909394D01*
X206810289Y-47821789D01*
X206921789Y-47710289D01*
X207009394Y-47579179D01*
X207069737Y-47433497D01*
X207077956Y-47392179D01*
X207079216Y-47385845D01*
X207111601Y-47323934D01*
X207172316Y-47289360D01*
X207242086Y-47293099D01*
X207269722Y-47306932D01*
X207310821Y-47334394D01*
X207310823Y-47334395D01*
X207310827Y-47334397D01*
X207443099Y-47389185D01*
X207456503Y-47394737D01*
X207611153Y-47425499D01*
X207611156Y-47425500D01*
X207611158Y-47425500D01*
X207768844Y-47425500D01*
X207768845Y-47425499D01*
X207923497Y-47394737D01*
X208069179Y-47334394D01*
X208200289Y-47246789D01*
X208213589Y-47233489D01*
X208237319Y-47209760D01*
X208298642Y-47176275D01*
X208368334Y-47181259D01*
X208412681Y-47209760D01*
X208449707Y-47246786D01*
X208449711Y-47246789D01*
X208580814Y-47334390D01*
X208580827Y-47334397D01*
X208713099Y-47389185D01*
X208726503Y-47394737D01*
X208881153Y-47425499D01*
X208881156Y-47425500D01*
X208881158Y-47425500D01*
X209038844Y-47425500D01*
X209038845Y-47425499D01*
X209193497Y-47394737D01*
X209339179Y-47334394D01*
X209470289Y-47246789D01*
X209581789Y-47135289D01*
X209669394Y-47004179D01*
X209729737Y-46858497D01*
X209760500Y-46703842D01*
X209760500Y-46546158D01*
X209760500Y-46546155D01*
X209760499Y-46546153D01*
X211969500Y-46546153D01*
X211969500Y-46703846D01*
X212000261Y-46858489D01*
X212000264Y-46858501D01*
X212060602Y-47004172D01*
X212060609Y-47004185D01*
X212148210Y-47135288D01*
X212148213Y-47135292D01*
X212259707Y-47246786D01*
X212259711Y-47246789D01*
X212390814Y-47334390D01*
X212390827Y-47334397D01*
X212523099Y-47389185D01*
X212536503Y-47394737D01*
X212691153Y-47425499D01*
X212691156Y-47425500D01*
X212691158Y-47425500D01*
X212848844Y-47425500D01*
X212848845Y-47425499D01*
X213003497Y-47394737D01*
X213149179Y-47334394D01*
X213280289Y-47246789D01*
X213391789Y-47135289D01*
X213479394Y-47004179D01*
X213539737Y-46858497D01*
X213570500Y-46703842D01*
X213570500Y-46546158D01*
X213570500Y-46546155D01*
X213570499Y-46546153D01*
X213561260Y-46499707D01*
X213539737Y-46391503D01*
X213538374Y-46388213D01*
X213479397Y-46245827D01*
X213479390Y-46245814D01*
X213391789Y-46114711D01*
X213391786Y-46114707D01*
X213280292Y-46003213D01*
X213280288Y-46003210D01*
X213149185Y-45915609D01*
X213149172Y-45915602D01*
X213003501Y-45855264D01*
X213003489Y-45855261D01*
X212848845Y-45824500D01*
X212848842Y-45824500D01*
X212691158Y-45824500D01*
X212691155Y-45824500D01*
X212536510Y-45855261D01*
X212536498Y-45855264D01*
X212390827Y-45915602D01*
X212390814Y-45915609D01*
X212259711Y-46003210D01*
X212259707Y-46003213D01*
X212148213Y-46114707D01*
X212148210Y-46114711D01*
X212060609Y-46245814D01*
X212060602Y-46245827D01*
X212000264Y-46391498D01*
X212000261Y-46391510D01*
X211969500Y-46546153D01*
X209760499Y-46546153D01*
X209751260Y-46499707D01*
X209729737Y-46391503D01*
X209728374Y-46388213D01*
X209669397Y-46245827D01*
X209669390Y-46245814D01*
X209581789Y-46114711D01*
X209581786Y-46114707D01*
X209470292Y-46003213D01*
X209470288Y-46003210D01*
X209339185Y-45915609D01*
X209339172Y-45915602D01*
X209193501Y-45855264D01*
X209193489Y-45855261D01*
X209038845Y-45824500D01*
X209038842Y-45824500D01*
X208881158Y-45824500D01*
X208881155Y-45824500D01*
X208726510Y-45855261D01*
X208726498Y-45855264D01*
X208580827Y-45915602D01*
X208580814Y-45915609D01*
X208449711Y-46003210D01*
X208449707Y-46003213D01*
X208412681Y-46040240D01*
X208351358Y-46073725D01*
X208281666Y-46068741D01*
X208237319Y-46040240D01*
X208200292Y-46003213D01*
X208200288Y-46003210D01*
X208069185Y-45915609D01*
X208069172Y-45915602D01*
X207923501Y-45855264D01*
X207923489Y-45855261D01*
X207768845Y-45824500D01*
X207768842Y-45824500D01*
X207611158Y-45824500D01*
X207611155Y-45824500D01*
X207456510Y-45855261D01*
X207456498Y-45855264D01*
X207310827Y-45915602D01*
X207310814Y-45915609D01*
X207179711Y-46003210D01*
X207179707Y-46003213D01*
X207068213Y-46114707D01*
X207068210Y-46114711D01*
X206980609Y-46245814D01*
X206980602Y-46245827D01*
X206920264Y-46391498D01*
X206920262Y-46391505D01*
X206910783Y-46439157D01*
X206878397Y-46501067D01*
X206817680Y-46535640D01*
X206747911Y-46531899D01*
X206720275Y-46518065D01*
X206679185Y-46490609D01*
X206679172Y-46490602D01*
X206533501Y-46430264D01*
X206533489Y-46430261D01*
X206378845Y-46399500D01*
X206378842Y-46399500D01*
X206221158Y-46399500D01*
X206221155Y-46399500D01*
X206066510Y-46430261D01*
X206066498Y-46430264D01*
X205920827Y-46490602D01*
X205920814Y-46490609D01*
X205789125Y-46578602D01*
X205722447Y-46599480D01*
X205720234Y-46599500D01*
X203579766Y-46599500D01*
X203512727Y-46579815D01*
X203510875Y-46578602D01*
X203379185Y-46490609D01*
X203379172Y-46490602D01*
X203233501Y-46430264D01*
X203233489Y-46430261D01*
X203078845Y-46399500D01*
X203078842Y-46399500D01*
X202921158Y-46399500D01*
X202921155Y-46399500D01*
X202766510Y-46430261D01*
X202766498Y-46430264D01*
X202620827Y-46490602D01*
X202620814Y-46490609D01*
X202489711Y-46578210D01*
X202489707Y-46578213D01*
X202378213Y-46689707D01*
X202378210Y-46689711D01*
X202290609Y-46820814D01*
X202290602Y-46820827D01*
X202230264Y-46966498D01*
X202230261Y-46966510D01*
X202199500Y-47121153D01*
X188044073Y-47121153D01*
X188050096Y-47090875D01*
X188050096Y-47090874D01*
X188050097Y-47090870D01*
X188050500Y-47088844D01*
X188050500Y-46931155D01*
X188050499Y-46931153D01*
X188041951Y-46888178D01*
X188019737Y-46776503D01*
X187996813Y-46721158D01*
X187959397Y-46630827D01*
X187959390Y-46630814D01*
X187871789Y-46499711D01*
X187871786Y-46499707D01*
X187760292Y-46388213D01*
X187760288Y-46388210D01*
X187629185Y-46300609D01*
X187629172Y-46300602D01*
X187483501Y-46240264D01*
X187483489Y-46240261D01*
X187328845Y-46209500D01*
X187328842Y-46209500D01*
X187171158Y-46209500D01*
X187171155Y-46209500D01*
X187016510Y-46240261D01*
X187016498Y-46240264D01*
X186870827Y-46300602D01*
X186870814Y-46300609D01*
X186739711Y-46388210D01*
X186739707Y-46388213D01*
X186628213Y-46499707D01*
X186628210Y-46499711D01*
X186540609Y-46630814D01*
X186540602Y-46630827D01*
X186480264Y-46776498D01*
X186480261Y-46776510D01*
X186449500Y-46931153D01*
X183940095Y-46931153D01*
X183950500Y-46878842D01*
X183950500Y-46721158D01*
X183950500Y-46721155D01*
X183950499Y-46721153D01*
X183940057Y-46668657D01*
X183919737Y-46566503D01*
X183900260Y-46519480D01*
X183859397Y-46420827D01*
X183859390Y-46420814D01*
X183771789Y-46289711D01*
X183771786Y-46289707D01*
X183660292Y-46178213D01*
X183660288Y-46178210D01*
X183529185Y-46090609D01*
X183529172Y-46090602D01*
X183383501Y-46030264D01*
X183383489Y-46030261D01*
X183228845Y-45999500D01*
X183228842Y-45999500D01*
X183071158Y-45999500D01*
X183071155Y-45999500D01*
X182916510Y-46030261D01*
X182916498Y-46030264D01*
X182770827Y-46090602D01*
X182770814Y-46090609D01*
X182639711Y-46178210D01*
X182639707Y-46178213D01*
X182637681Y-46180240D01*
X182636357Y-46180962D01*
X182635001Y-46182076D01*
X182634789Y-46181818D01*
X182576358Y-46213725D01*
X182506666Y-46208741D01*
X182465060Y-46182001D01*
X182464999Y-46182076D01*
X182464360Y-46181552D01*
X182462319Y-46180240D01*
X182460292Y-46178213D01*
X182460288Y-46178210D01*
X182329185Y-46090609D01*
X182329172Y-46090602D01*
X182183501Y-46030264D01*
X182183489Y-46030261D01*
X182028845Y-45999500D01*
X182028842Y-45999500D01*
X181871158Y-45999500D01*
X181871155Y-45999500D01*
X181716510Y-46030261D01*
X181716498Y-46030264D01*
X181570827Y-46090602D01*
X181570814Y-46090609D01*
X181439711Y-46178210D01*
X181439707Y-46178213D01*
X181328213Y-46289707D01*
X181328210Y-46289711D01*
X181240609Y-46420814D01*
X181240602Y-46420827D01*
X181180264Y-46566498D01*
X181180261Y-46566510D01*
X181149500Y-46721153D01*
X160292956Y-46721153D01*
X160291820Y-39753739D01*
X160292045Y-39746274D01*
X160309591Y-39456203D01*
X160311396Y-39441341D01*
X160363101Y-39159196D01*
X160366680Y-39144678D01*
X160452020Y-38870814D01*
X160457315Y-38856851D01*
X160575056Y-38595243D01*
X160581989Y-38582032D01*
X160730400Y-38336532D01*
X160738887Y-38324236D01*
X160915797Y-38098428D01*
X160925710Y-38087238D01*
X161128550Y-37884400D01*
X161139742Y-37874485D01*
X161365549Y-37697578D01*
X161377854Y-37689085D01*
X161623324Y-37540695D01*
X161636573Y-37533741D01*
X161898146Y-37416018D01*
X161912139Y-37410711D01*
X162185998Y-37325375D01*
X162200523Y-37321795D01*
X162482662Y-37270093D01*
X162497516Y-37268289D01*
X162766099Y-37252045D01*
X162773521Y-37251820D01*
X171875999Y-37251639D01*
X171943037Y-37271322D01*
X171988793Y-37324125D01*
X172000000Y-37375639D01*
X172000000Y-44440000D01*
X220000000Y-44440000D01*
X220000000Y-44096153D01*
X220699500Y-44096153D01*
X220699500Y-44253846D01*
X220730261Y-44408489D01*
X220730264Y-44408501D01*
X220790602Y-44554172D01*
X220790609Y-44554185D01*
X220878210Y-44685288D01*
X220878213Y-44685292D01*
X220989707Y-44796786D01*
X220989711Y-44796789D01*
X221120814Y-44884390D01*
X221120827Y-44884397D01*
X221266498Y-44944735D01*
X221266503Y-44944737D01*
X221421153Y-44975499D01*
X221421156Y-44975500D01*
X221421158Y-44975500D01*
X221578844Y-44975500D01*
X221578845Y-44975499D01*
X221707123Y-44949983D01*
X225949500Y-44949983D01*
X225949500Y-46250001D01*
X225949501Y-46250018D01*
X225960000Y-46352796D01*
X225960001Y-46352799D01*
X226015185Y-46519331D01*
X226015187Y-46519336D01*
X226031728Y-46546153D01*
X226083951Y-46630821D01*
X226107289Y-46668657D01*
X226231344Y-46792712D01*
X226386120Y-46888178D01*
X226432845Y-46940126D01*
X226444068Y-47009088D01*
X226416224Y-47073171D01*
X226408706Y-47081398D01*
X226269889Y-47220215D01*
X226144951Y-47392179D01*
X226048444Y-47581585D01*
X225982753Y-47783760D01*
X225949500Y-47993713D01*
X225949500Y-48206286D01*
X225976884Y-48379185D01*
X225982754Y-48416243D01*
X226033896Y-48573642D01*
X226048444Y-48618414D01*
X226144951Y-48807820D01*
X226269890Y-48979786D01*
X226420209Y-49130105D01*
X226420214Y-49130109D01*
X226585218Y-49249991D01*
X226627884Y-49305320D01*
X226633863Y-49374934D01*
X226601258Y-49436729D01*
X226585218Y-49450627D01*
X226420540Y-49570272D01*
X226420535Y-49570276D01*
X226270276Y-49720535D01*
X226270272Y-49720540D01*
X226145379Y-49892442D01*
X226048904Y-50081782D01*
X225983242Y-50283870D01*
X225983242Y-50283873D01*
X225972769Y-50350000D01*
X227020854Y-50350000D01*
X226982370Y-50416657D01*
X226950000Y-50537465D01*
X226950000Y-50662535D01*
X226982370Y-50783343D01*
X227020854Y-50850000D01*
X225972769Y-50850000D01*
X225983242Y-50916126D01*
X225983242Y-50916129D01*
X226048904Y-51118217D01*
X226145379Y-51307557D01*
X226270272Y-51479459D01*
X226270276Y-51479464D01*
X226420535Y-51629723D01*
X226420540Y-51629727D01*
X226592442Y-51754620D01*
X226781782Y-51851095D01*
X226983872Y-51916757D01*
X227175000Y-51947029D01*
X227175000Y-51004145D01*
X227241657Y-51042630D01*
X227362465Y-51075000D01*
X227487535Y-51075000D01*
X227608343Y-51042630D01*
X227675000Y-51004145D01*
X227675000Y-51947028D01*
X227866127Y-51916757D01*
X228068217Y-51851095D01*
X228257557Y-51754620D01*
X228429459Y-51629727D01*
X228429464Y-51629723D01*
X228579723Y-51479464D01*
X228579727Y-51479459D01*
X228704620Y-51307557D01*
X228801095Y-51118217D01*
X228866757Y-50916129D01*
X228866757Y-50916126D01*
X228877231Y-50850000D01*
X227829146Y-50850000D01*
X227867630Y-50783343D01*
X227900000Y-50662535D01*
X227900000Y-50537465D01*
X227867630Y-50416657D01*
X227829146Y-50350000D01*
X228877231Y-50350000D01*
X228866757Y-50283873D01*
X228866757Y-50283870D01*
X228801095Y-50081782D01*
X228704620Y-49892442D01*
X228579727Y-49720540D01*
X228579723Y-49720535D01*
X228429464Y-49570276D01*
X228429459Y-49570272D01*
X228264781Y-49450627D01*
X228222115Y-49395297D01*
X228216136Y-49325684D01*
X228248741Y-49263889D01*
X228264776Y-49249994D01*
X228429792Y-49130104D01*
X228580104Y-48979792D01*
X228580106Y-48979788D01*
X228580109Y-48979786D01*
X228705048Y-48807820D01*
X228705047Y-48807820D01*
X228705051Y-48807816D01*
X228801557Y-48618412D01*
X228867246Y-48416243D01*
X228900500Y-48206287D01*
X228900500Y-47993713D01*
X228867246Y-47783757D01*
X228801557Y-47581588D01*
X228705051Y-47392184D01*
X228705049Y-47392181D01*
X228705048Y-47392179D01*
X228580109Y-47220213D01*
X228441294Y-47081398D01*
X228407809Y-47020075D01*
X228412793Y-46950383D01*
X228454665Y-46894450D01*
X228463879Y-46888178D01*
X228469331Y-46884814D01*
X228469334Y-46884814D01*
X228618656Y-46792712D01*
X228742712Y-46668656D01*
X228834814Y-46519334D01*
X228889999Y-46352797D01*
X228900500Y-46250009D01*
X228900499Y-44949992D01*
X228889999Y-44847203D01*
X228834814Y-44680666D01*
X228742712Y-44531344D01*
X228618656Y-44407288D01*
X228469334Y-44315186D01*
X228302797Y-44260001D01*
X228302795Y-44260000D01*
X228200010Y-44249500D01*
X226649998Y-44249500D01*
X226649981Y-44249501D01*
X226547203Y-44260000D01*
X226547200Y-44260001D01*
X226380668Y-44315185D01*
X226380663Y-44315187D01*
X226231342Y-44407289D01*
X226107289Y-44531342D01*
X226015187Y-44680663D01*
X226015186Y-44680666D01*
X225960001Y-44847203D01*
X225960001Y-44847204D01*
X225960000Y-44847204D01*
X225949500Y-44949983D01*
X221707123Y-44949983D01*
X221733497Y-44944737D01*
X221879179Y-44884394D01*
X221879185Y-44884390D01*
X221940035Y-44843732D01*
X221976595Y-44819302D01*
X222010289Y-44796789D01*
X222121789Y-44685289D01*
X222209394Y-44554179D01*
X222218853Y-44531344D01*
X222269735Y-44408501D01*
X222269737Y-44408497D01*
X222300500Y-44253842D01*
X222300500Y-44096158D01*
X222300500Y-44096155D01*
X222300499Y-44096153D01*
X222269738Y-43941510D01*
X222269737Y-43941503D01*
X222269735Y-43941498D01*
X222209397Y-43795827D01*
X222209390Y-43795814D01*
X222121789Y-43664711D01*
X222121786Y-43664707D01*
X222010292Y-43553213D01*
X222010288Y-43553210D01*
X221879185Y-43465609D01*
X221879172Y-43465602D01*
X221733501Y-43405264D01*
X221733489Y-43405261D01*
X221578845Y-43374500D01*
X221578842Y-43374500D01*
X221421158Y-43374500D01*
X221421155Y-43374500D01*
X221266510Y-43405261D01*
X221266498Y-43405264D01*
X221120827Y-43465602D01*
X221120814Y-43465609D01*
X220989711Y-43553210D01*
X220989707Y-43553213D01*
X220878213Y-43664707D01*
X220878210Y-43664711D01*
X220790609Y-43795814D01*
X220790602Y-43795827D01*
X220730264Y-43941498D01*
X220730261Y-43941510D01*
X220699500Y-44096153D01*
X220000000Y-44096153D01*
X220000000Y-37374676D01*
X220019685Y-37307637D01*
X220072489Y-37261882D01*
X220123995Y-37250676D01*
X229060762Y-37250499D01*
X229068247Y-37250724D01*
G37*
%TD.AperFunction*%
%TD*%
M02*
