M48
; DRILL file {KiCad 9.0.7} date 2026-03-23T11:33:36+0100
; FORMAT={-:-/ absolute / metric / decimal}
; #@! TF.CreationDate,2026-03-23T11:33:36+01:00
; #@! TF.GenerationSoftware,Kicad,Pcbnew,9.0.7
; #@! TF.FileFunction,Plated,1,4,PTH
FMAT,2
METRIC
; #@! TA.AperFunction,Plated,PTH,ComponentDrill
T1C0.200
; #@! TA.AperFunction,Plated,PTH,ViaDrill
T2C0.300
; #@! TA.AperFunction,Plated,PTH,ComponentDrill
T3C0.400
; #@! TA.AperFunction,Plated,PTH,ComponentDrill
T4C0.600
; #@! TA.AperFunction,Plated,PTH,ComponentDrill
T5C0.700
; #@! TA.AperFunction,Plated,PTH,ComponentDrill
T6C0.950
; #@! TA.AperFunction,Plated,PTH,ComponentDrill
T7C1.000
; #@! TA.AperFunction,Plated,PTH,ComponentDrill
T8C1.200
; #@! TA.AperFunction,Plated,PTH,ComponentDrill
T9C1.800
; #@! TA.AperFunction,Plated,PTH,ComponentDrill
T10C2.200
%
G90
G05
T1
X193.1Y-52.76
X193.1Y-54.16
X193.8Y-52.06
X193.8Y-53.46
X193.8Y-54.86
X194.5Y-52.76
X194.5Y-54.16
X195.2Y-52.06
X195.2Y-53.46
X195.2Y-54.86
X195.9Y-52.76
X195.9Y-54.16
T2
X160.8Y-41.6
X160.8Y-42.6
X160.8Y-43.6
X160.8Y-44.6
X160.8Y-45.6
X160.8Y-46.6
X160.8Y-47.6
X160.8Y-48.6
X160.8Y-49.6
X160.8Y-50.6
X160.8Y-51.6
X160.8Y-52.6
X160.8Y-53.6
X160.8Y-54.6
X160.8Y-55.6
X160.8Y-56.6
X160.8Y-57.6
X160.8Y-58.6
X160.8Y-59.6
X160.8Y-60.6
X160.8Y-61.6
X160.8Y-62.6
X160.8Y-63.6
X160.8Y-64.6
X160.8Y-65.6
X160.8Y-66.6
X160.8Y-67.6
X160.8Y-68.6
X160.8Y-69.6
X160.8Y-70.6
X160.8Y-71.6
X160.8Y-72.6
X160.8Y-73.6
X160.8Y-74.6
X160.8Y-75.6
X160.8Y-76.6
X160.8Y-77.6
X160.8Y-78.6
X160.8Y-79.6
X160.8Y-80.6
X160.8Y-81.6
X160.8Y-82.6
X160.8Y-83.6
X160.8Y-84.6
X160.8Y-85.6
X160.8Y-86.6
X160.8Y-87.6
X160.8Y-88.6
X160.8Y-89.6
X160.8Y-90.6
X162.75Y-80.25
X163.25Y-84.125
X163.4Y-53.05
X163.4Y-54.25
X163.4Y-61.05
X163.4Y-62.25
X163.4Y-66.15
X163.4Y-67.35
X164.4Y-82.6
X164.5Y-69.875
X164.6Y-53.05
X164.6Y-54.25
X164.6Y-61.05
X164.6Y-62.25
X164.6Y-66.15
X164.6Y-67.35
X164.8Y-95.2
X165.0Y-37.625
X165.25Y-41.5
X165.375Y-84.25
X165.8Y-53.05
X165.8Y-54.25
X165.8Y-61.05
X165.8Y-62.25
X165.8Y-66.15
X165.8Y-67.35
X165.8Y-76.0
X165.8Y-95.2
X166.0Y-37.625
X166.5Y-85.75
X166.6Y-82.6
X166.8Y-95.2
X167.0Y-37.625
X167.75Y-84.25
X167.8Y-95.2
X168.0Y-37.625
X168.8Y-95.2
X169.0Y-37.625
X169.375Y-78.0
X169.4Y-75.4
X169.625Y-71.625
X169.8Y-53.05
X169.8Y-54.25
X169.8Y-61.05
X169.8Y-62.25
X169.8Y-66.15
X169.8Y-67.35
X169.8Y-95.2
X170.0Y-37.625
X170.8Y-95.2
X170.875Y-82.625
X171.0Y-37.625
X171.0Y-53.05
X171.0Y-54.25
X171.0Y-61.05
X171.0Y-62.25
X171.0Y-66.15
X171.0Y-67.35
X171.0Y-86.8
X171.25Y-70.125
X171.625Y-74.0
X171.8Y-95.2
X172.2Y-53.05
X172.2Y-54.25
X172.2Y-61.05
X172.2Y-62.25
X172.2Y-66.15
X172.2Y-67.35
X172.375Y-71.625
X172.5Y-81.125
X172.8Y-95.2
X173.25Y-88.875
X173.5Y-76.875
X173.625Y-70.125
X173.8Y-79.8
X173.8Y-95.2
X174.0Y-83.75
X174.375Y-71.75
X174.8Y-95.2
X175.4Y-73.6
X175.6Y-48.3
X175.6Y-53.1
X175.8Y-95.2
X176.0Y-70.25
X176.0Y-90.0
X176.31Y-78.89
X176.31Y-80.09
X176.8Y-95.2
X176.85Y-46.8
X176.85Y-48.0
X176.85Y-49.2
X177.0Y-73.6
X177.125Y-71.75
X177.51Y-78.89
X177.51Y-80.09
X177.8Y-95.2
X178.0Y-83.5
X178.05Y-46.8
X178.05Y-48.0
X178.05Y-49.2
X178.375Y-70.25
X178.6Y-73.6
X178.8Y-76.6
X178.8Y-95.2
X178.875Y-88.25
X179.6Y-86.4
X179.8Y-95.2
X180.6Y-70.2
X180.8Y-95.2
X181.2Y-84.2
X181.4Y-83.2
X181.625Y-78.375
X181.8Y-95.2
X181.9Y-88.81
X181.95Y-46.8
X181.95Y-48.0
X181.95Y-49.2
X182.0Y-71.875
X182.308Y-81.492
X182.625Y-77.25
X182.625Y-86.625
X182.8Y-95.2
X183.0Y-67.625
X183.15Y-46.8
X183.15Y-48.0
X183.15Y-49.2
X183.2Y-51.8
X183.2Y-53.6
X183.8Y-95.2
X184.0Y-70.0
X184.0Y-84.2
X184.125Y-57.125
X184.125Y-59.125
X184.125Y-61.125
X184.8Y-95.2
X185.0Y-45.2
X185.0Y-47.8
X185.6Y-84.25
X185.8Y-95.2
X186.75Y-86.625
X186.8Y-95.2
X187.25Y-45.74
X187.25Y-47.01
X187.8Y-95.2
X188.3Y-88.81
X188.4Y-84.4
X188.8Y-95.2
X189.125Y-77.125
X189.2Y-62.0
X189.2Y-66.8
X189.8Y-76.0
X189.8Y-95.2
X190.285Y-63.5
X190.75Y-72.375
X190.8Y-95.2
X191.0Y-77.2
X191.8Y-95.2
X192.5Y-59.6
X192.8Y-95.2
X193.1Y-52.06
X193.1Y-53.46
X193.1Y-54.86
X193.4Y-74.4
X193.8Y-95.2
X194.5Y-52.06
X194.5Y-53.46
X194.5Y-54.86
X194.8Y-95.2
X195.4Y-73.0
X195.8Y-95.2
X195.9Y-52.06
X195.9Y-53.46
X195.9Y-54.86
X196.8Y-95.2
X197.8Y-75.8
X197.8Y-95.2
X198.625Y-67.25
X198.7Y-47.8
X198.8Y-95.2
X199.8Y-95.2
X200.8Y-95.2
X201.4Y-65.8
X201.8Y-90.0
X201.8Y-91.8
X201.8Y-93.2
X201.8Y-95.2
X202.4Y-88.4
X202.6Y-94.0
X202.8Y-95.2
X203.0Y-47.2
X203.0Y-59.8
X203.25Y-65.25
X203.5Y-60.8
X203.6Y-49.4
X203.8Y-95.2
X203.96Y-68.25
X204.0Y-87.6
X204.125Y-65.25
X204.75Y-45.74
X204.8Y-95.2
X205.0Y-65.25
X205.23Y-68.25
X205.23Y-72.15
X205.6Y-87.6
X205.8Y-95.2
X206.0Y-83.0
X206.3Y-47.2
X206.5Y-68.25
X206.5Y-72.15
X206.8Y-65.2
X206.8Y-95.2
X207.6Y-58.3
X207.69Y-46.625
X207.69Y-51.575
X207.8Y-95.2
X208.7Y-65.575
X208.8Y-95.2
X208.96Y-46.625
X209.8Y-95.2
X210.23Y-46.625
X210.8Y-95.2
X211.255Y-63.0
X211.4Y-65.45
X211.4Y-66.65
X211.4Y-75.8
X211.5Y-51.575
X211.8Y-95.2
X212.2Y-85.2
X212.6Y-65.45
X212.6Y-66.65
X212.77Y-46.625
X212.77Y-51.575
X212.8Y-86.6
X212.8Y-95.2
X213.8Y-65.45
X213.8Y-66.65
X213.8Y-95.2
X214.04Y-46.625
X214.45Y-59.7
X214.45Y-60.9
X214.45Y-62.1
X214.8Y-95.2
X215.31Y-51.575
X215.5Y-49.4
X215.65Y-59.7
X215.65Y-60.9
X215.65Y-62.1
X215.8Y-95.2
X216.8Y-95.2
X217.0Y-53.8
X217.6Y-65.45
X217.6Y-66.65
X217.8Y-95.2
X218.8Y-65.45
X218.8Y-66.65
X218.8Y-95.2
X219.5Y-47.0
X219.8Y-95.2
X220.0Y-65.45
X220.0Y-66.65
X220.75Y-37.625
X220.8Y-95.2
X221.27Y-49.65
X221.27Y-53.55
X221.5Y-38.375
X221.5Y-44.175
X221.75Y-37.625
X221.8Y-95.2
X222.75Y-37.625
X222.8Y-95.2
X222.9Y-77.25
X222.9Y-78.75
X222.9Y-88.65
X222.9Y-90.15
X223.75Y-37.625
X223.8Y-95.2
X224.4Y-77.25
X224.4Y-78.75
X224.4Y-88.65
X224.4Y-90.15
X224.75Y-37.625
X224.8Y-95.2
X225.75Y-37.625
X225.8Y-95.2
X225.9Y-77.25
X225.9Y-78.75
X225.9Y-88.65
X225.9Y-90.15
X226.75Y-37.625
X226.8Y-95.2
X226.9Y-41.8
X228.75Y-81.625
X229.7Y-56.1
X229.7Y-57.3
X229.7Y-58.5
X230.9Y-56.1
X230.9Y-57.3
X230.9Y-58.5
X231.0Y-41.875
X231.0Y-42.875
X231.0Y-43.875
X231.0Y-44.875
X231.0Y-46.0
X231.0Y-47.0
X231.0Y-47.9
X231.0Y-49.1
X231.0Y-50.3
X231.0Y-51.5
X231.0Y-52.9
X231.0Y-60.6
X231.0Y-61.4
X231.0Y-62.4
X231.0Y-63.4
X231.0Y-64.4
X231.0Y-65.4
X231.0Y-66.4
X231.0Y-67.4
X231.0Y-68.4
X231.0Y-69.4
X231.0Y-70.4
X231.0Y-71.4
X231.0Y-72.4
X231.0Y-73.4
X231.0Y-74.4
X231.0Y-75.4
X231.0Y-76.4
X231.0Y-77.4
X231.0Y-78.4
X231.0Y-79.4
X231.0Y-80.4
X231.0Y-81.4
X231.0Y-82.4
X231.0Y-83.4
X231.0Y-84.4
X231.0Y-85.4
X231.0Y-86.4
X231.0Y-87.4
X231.0Y-88.4
X231.0Y-89.4
X231.0Y-90.4
T3
X161.141Y-39.75
X161.15Y-93.0
X161.625Y-38.583
X161.625Y-40.917
X161.633Y-91.833
X161.633Y-94.167
X162.791Y-38.1
X162.791Y-41.4
X162.8Y-91.35
X162.8Y-94.65
X163.958Y-38.583
X163.958Y-40.917
X163.967Y-91.833
X163.967Y-94.167
X164.441Y-39.75
X164.45Y-93.0
X227.354Y-39.746
X227.383Y-93.0
X227.837Y-38.58
X227.837Y-40.913
X227.867Y-91.833
X227.867Y-94.167
X229.004Y-38.096
X229.004Y-41.396
X229.033Y-91.35
X229.033Y-94.65
X230.17Y-38.58
X230.17Y-40.913
X230.2Y-91.833
X230.2Y-94.167
X230.654Y-39.746
X230.683Y-93.0
T5
X195.1Y-75.85
X195.1Y-78.39
X195.1Y-80.93
T6
X227.425Y-45.6
X227.425Y-48.1
X227.425Y-50.6
T7
X176.9Y-57.86
X176.9Y-60.4
X176.9Y-62.94
T8
X229.188Y-63.712
X229.188Y-66.252
X229.188Y-68.793
T9
X205.4Y-91.2
X210.4Y-91.2
T10
X162.791Y-39.75
X162.8Y-93.0
X229.004Y-39.746
X229.033Y-93.0
T4
X180.78Y-88.835G85X180.78Y-89.935
G05
X180.78Y-93.165G85X180.78Y-93.965
G05
X189.42Y-88.835G85X189.42Y-89.935
G05
X189.42Y-93.165G85X189.42Y-93.965
G05
M30
