M48
; DRILL file {KiCad 9.0.7} date 2026-03-09T12:12:46+0100
; FORMAT={-:-/ absolute / metric / decimal}
; #@! TF.CreationDate,2026-03-09T12:12:46+01:00
; #@! TF.GenerationSoftware,Kicad,Pcbnew,9.0.7
; #@! TF.FileFunction,Plated,1,2,PTH
FMAT,2
METRIC
; #@! TA.AperFunction,Plated,PTH,ViaDrill
T1C0.300
; #@! TA.AperFunction,Plated,PTH,ComponentDrill
T2C0.400
; #@! TA.AperFunction,Plated,PTH,ComponentDrill
T3C0.650
; #@! TA.AperFunction,Plated,PTH,ComponentDrill
T4C1.100
; #@! TA.AperFunction,Plated,PTH,ComponentDrill
T5C2.200
%
G90
G05
T1
X43.55Y-74.2
X43.55Y-75.2
X43.55Y-76.15
X43.55Y-77.15
X43.55Y-78.15
X43.55Y-79.15
X43.55Y-80.15
X43.55Y-81.15
X43.6Y-32.6
X43.6Y-33.6
X43.6Y-34.6
X43.6Y-35.6
X43.6Y-36.6
X43.6Y-46.1
X43.6Y-47.35
X43.6Y-48.35
X43.6Y-49.35
X43.6Y-50.35
X43.6Y-51.35
X43.6Y-52.3
X43.6Y-53.3
X43.6Y-62.5
X43.6Y-63.5
X43.6Y-64.55
X43.6Y-65.55
X43.8Y-31.75
X43.9Y-82.15
X44.4Y-31.1
X44.5Y-82.8
X44.65Y-57.6
X45.1Y-50.35
X45.15Y-65.15
X45.35Y-30.85
X45.35Y-83.05
X45.75Y-57.55
X45.85Y-53.05
X46.35Y-30.85
X46.35Y-83.05
X46.8Y-53.05
X46.8Y-62.25
X46.8Y-74.7
X47.3Y-30.85
X47.35Y-83.05
X47.8Y-53.05
X48.3Y-30.85
X48.3Y-47.05
X48.35Y-83.05
X48.95Y-53.35
X49.3Y-30.85
X49.35Y-83.05
X50.1Y-48.8
X50.3Y-30.85
X50.3Y-83.05
X50.6Y-53.15
X50.9Y-74.65
X51.05Y-48.8
X51.05Y-62.25
X51.3Y-30.85
X51.3Y-83.05
X52.15Y-31.1
X52.25Y-82.8
X52.75Y-31.75
X52.85Y-82.15
X53.1Y-74.15
X53.1Y-75.15
X53.1Y-76.15
X53.1Y-77.15
X53.1Y-78.15
X53.1Y-79.15
X53.1Y-80.15
X53.1Y-81.15
X53.15Y-32.6
X53.15Y-33.6
X53.15Y-34.6
X53.15Y-35.6
X53.15Y-36.6
X53.15Y-46.2
X53.15Y-47.35
X53.15Y-48.35
X53.15Y-49.35
X53.15Y-50.35
X53.15Y-51.35
X53.15Y-52.3
X53.15Y-53.3
X53.15Y-62.4
X53.15Y-63.4
X53.15Y-64.55
X53.15Y-65.55
T2
X46.6Y-80.25
X46.65Y-33.65
X47.083Y-79.083
X47.083Y-81.417
X47.133Y-32.483
X47.133Y-34.817
X48.25Y-78.6
X48.25Y-81.9
X48.3Y-32.0
X48.3Y-35.3
X49.417Y-79.083
X49.417Y-81.417
X49.467Y-32.483
X49.467Y-34.817
X49.9Y-80.25
X49.95Y-33.65
T3
X46.8Y-51.3
X48.07Y-51.3
X49.34Y-51.3
X50.61Y-51.3
T4
X45.129Y-39.253
X45.129Y-43.753
X45.15Y-55.3
X45.15Y-59.8
X45.15Y-67.65
X45.15Y-72.15
X51.629Y-39.253
X51.629Y-43.753
X51.65Y-55.3
X51.65Y-59.8
X51.65Y-67.65
X51.65Y-72.15
T5
X48.25Y-80.25
X48.3Y-33.65
M30
