%TF.GenerationSoftware,KiCad,Pcbnew,9.0.7*%
%TF.CreationDate,2026-03-09T12:12:39+01:00*%
%TF.ProjectId,LumaDome_Boutons,4c756d61-446f-46d6-955f-426f75746f6e,rev?*%
%TF.SameCoordinates,Original*%
%TF.FileFunction,Legend,Top*%
%TF.FilePolarity,Positive*%
%FSLAX46Y46*%
G04 Gerber Fmt 4.6, Leading zero omitted, Abs format (unit mm)*
G04 Created by KiCad (PCBNEW 9.0.7) date 2026-03-09 12:12:39*
%MOMM*%
%LPD*%
G01*
G04 APERTURE LIST*
%ADD10C,0.150000*%
%ADD11C,0.100000*%
%ADD12C,0.120000*%
G04 APERTURE END LIST*
D10*
X46887317Y-37523209D02*
X46553984Y-37047018D01*
X46315889Y-37523209D02*
X46315889Y-36523209D01*
X46315889Y-36523209D02*
X46696841Y-36523209D01*
X46696841Y-36523209D02*
X46792079Y-36570828D01*
X46792079Y-36570828D02*
X46839698Y-36618447D01*
X46839698Y-36618447D02*
X46887317Y-36713685D01*
X46887317Y-36713685D02*
X46887317Y-36856542D01*
X46887317Y-36856542D02*
X46839698Y-36951780D01*
X46839698Y-36951780D02*
X46792079Y-36999399D01*
X46792079Y-36999399D02*
X46696841Y-37047018D01*
X46696841Y-37047018D02*
X46315889Y-37047018D01*
X47315889Y-36999399D02*
X47649222Y-36999399D01*
X47792079Y-37523209D02*
X47315889Y-37523209D01*
X47315889Y-37523209D02*
X47315889Y-36523209D01*
X47315889Y-36523209D02*
X47792079Y-36523209D01*
X48173032Y-37475590D02*
X48315889Y-37523209D01*
X48315889Y-37523209D02*
X48553984Y-37523209D01*
X48553984Y-37523209D02*
X48649222Y-37475590D01*
X48649222Y-37475590D02*
X48696841Y-37427970D01*
X48696841Y-37427970D02*
X48744460Y-37332732D01*
X48744460Y-37332732D02*
X48744460Y-37237494D01*
X48744460Y-37237494D02*
X48696841Y-37142256D01*
X48696841Y-37142256D02*
X48649222Y-37094637D01*
X48649222Y-37094637D02*
X48553984Y-37047018D01*
X48553984Y-37047018D02*
X48363508Y-36999399D01*
X48363508Y-36999399D02*
X48268270Y-36951780D01*
X48268270Y-36951780D02*
X48220651Y-36904161D01*
X48220651Y-36904161D02*
X48173032Y-36808923D01*
X48173032Y-36808923D02*
X48173032Y-36713685D01*
X48173032Y-36713685D02*
X48220651Y-36618447D01*
X48220651Y-36618447D02*
X48268270Y-36570828D01*
X48268270Y-36570828D02*
X48363508Y-36523209D01*
X48363508Y-36523209D02*
X48601603Y-36523209D01*
X48601603Y-36523209D02*
X48744460Y-36570828D01*
X49173032Y-36999399D02*
X49506365Y-36999399D01*
X49649222Y-37523209D02*
X49173032Y-37523209D01*
X49173032Y-37523209D02*
X49173032Y-36523209D01*
X49173032Y-36523209D02*
X49649222Y-36523209D01*
X49934937Y-36523209D02*
X50506365Y-36523209D01*
X50220651Y-37523209D02*
X50220651Y-36523209D01*
X47562969Y-74869819D02*
X47086779Y-74869819D01*
X47086779Y-74869819D02*
X47086779Y-73869819D01*
X47896303Y-73869819D02*
X47896303Y-74679342D01*
X47896303Y-74679342D02*
X47943922Y-74774580D01*
X47943922Y-74774580D02*
X47991541Y-74822200D01*
X47991541Y-74822200D02*
X48086779Y-74869819D01*
X48086779Y-74869819D02*
X48277255Y-74869819D01*
X48277255Y-74869819D02*
X48372493Y-74822200D01*
X48372493Y-74822200D02*
X48420112Y-74774580D01*
X48420112Y-74774580D02*
X48467731Y-74679342D01*
X48467731Y-74679342D02*
X48467731Y-73869819D01*
X48943922Y-74869819D02*
X48943922Y-73869819D01*
X48943922Y-73869819D02*
X49277255Y-74584104D01*
X49277255Y-74584104D02*
X49610588Y-73869819D01*
X49610588Y-73869819D02*
X49610588Y-74869819D01*
X46586779Y-62519819D02*
X46586779Y-61519819D01*
X46586779Y-61519819D02*
X46920112Y-62234104D01*
X46920112Y-62234104D02*
X47253445Y-61519819D01*
X47253445Y-61519819D02*
X47253445Y-62519819D01*
X47920112Y-61519819D02*
X48110588Y-61519819D01*
X48110588Y-61519819D02*
X48205826Y-61567438D01*
X48205826Y-61567438D02*
X48301064Y-61662676D01*
X48301064Y-61662676D02*
X48348683Y-61853152D01*
X48348683Y-61853152D02*
X48348683Y-62186485D01*
X48348683Y-62186485D02*
X48301064Y-62376961D01*
X48301064Y-62376961D02*
X48205826Y-62472200D01*
X48205826Y-62472200D02*
X48110588Y-62519819D01*
X48110588Y-62519819D02*
X47920112Y-62519819D01*
X47920112Y-62519819D02*
X47824874Y-62472200D01*
X47824874Y-62472200D02*
X47729636Y-62376961D01*
X47729636Y-62376961D02*
X47682017Y-62186485D01*
X47682017Y-62186485D02*
X47682017Y-61853152D01*
X47682017Y-61853152D02*
X47729636Y-61662676D01*
X47729636Y-61662676D02*
X47824874Y-61567438D01*
X47824874Y-61567438D02*
X47920112Y-61519819D01*
X48777255Y-62519819D02*
X48777255Y-61519819D01*
X48777255Y-61519819D02*
X49015350Y-61519819D01*
X49015350Y-61519819D02*
X49158207Y-61567438D01*
X49158207Y-61567438D02*
X49253445Y-61662676D01*
X49253445Y-61662676D02*
X49301064Y-61757914D01*
X49301064Y-61757914D02*
X49348683Y-61948390D01*
X49348683Y-61948390D02*
X49348683Y-62091247D01*
X49348683Y-62091247D02*
X49301064Y-62281723D01*
X49301064Y-62281723D02*
X49253445Y-62376961D01*
X49253445Y-62376961D02*
X49158207Y-62472200D01*
X49158207Y-62472200D02*
X49015350Y-62519819D01*
X49015350Y-62519819D02*
X48777255Y-62519819D01*
X49777255Y-61996009D02*
X50110588Y-61996009D01*
X50253445Y-62519819D02*
X49777255Y-62519819D01*
X49777255Y-62519819D02*
X49777255Y-61519819D01*
X49777255Y-61519819D02*
X50253445Y-61519819D01*
X44509819Y-51633333D02*
X45224104Y-51633333D01*
X45224104Y-51633333D02*
X45366961Y-51680952D01*
X45366961Y-51680952D02*
X45462200Y-51776190D01*
X45462200Y-51776190D02*
X45509819Y-51919047D01*
X45509819Y-51919047D02*
X45509819Y-52014285D01*
X45509819Y-50633333D02*
X45509819Y-51204761D01*
X45509819Y-50919047D02*
X44509819Y-50919047D01*
X44509819Y-50919047D02*
X44652676Y-51014285D01*
X44652676Y-51014285D02*
X44747914Y-51109523D01*
X44747914Y-51109523D02*
X44795533Y-51204761D01*
X48223333Y-77504819D02*
X47890000Y-77028628D01*
X47651905Y-77504819D02*
X47651905Y-76504819D01*
X47651905Y-76504819D02*
X48032857Y-76504819D01*
X48032857Y-76504819D02*
X48128095Y-76552438D01*
X48128095Y-76552438D02*
X48175714Y-76600057D01*
X48175714Y-76600057D02*
X48223333Y-76695295D01*
X48223333Y-76695295D02*
X48223333Y-76838152D01*
X48223333Y-76838152D02*
X48175714Y-76933390D01*
X48175714Y-76933390D02*
X48128095Y-76981009D01*
X48128095Y-76981009D02*
X48032857Y-77028628D01*
X48032857Y-77028628D02*
X47651905Y-77028628D01*
X49175714Y-77504819D02*
X48604286Y-77504819D01*
X48890000Y-77504819D02*
X48890000Y-76504819D01*
X48890000Y-76504819D02*
X48794762Y-76647676D01*
X48794762Y-76647676D02*
X48699524Y-76742914D01*
X48699524Y-76742914D02*
X48604286Y-76790533D01*
X50163333Y-77454819D02*
X49830000Y-76978628D01*
X49591905Y-77454819D02*
X49591905Y-76454819D01*
X49591905Y-76454819D02*
X49972857Y-76454819D01*
X49972857Y-76454819D02*
X50068095Y-76502438D01*
X50068095Y-76502438D02*
X50115714Y-76550057D01*
X50115714Y-76550057D02*
X50163333Y-76645295D01*
X50163333Y-76645295D02*
X50163333Y-76788152D01*
X50163333Y-76788152D02*
X50115714Y-76883390D01*
X50115714Y-76883390D02*
X50068095Y-76931009D01*
X50068095Y-76931009D02*
X49972857Y-76978628D01*
X49972857Y-76978628D02*
X49591905Y-76978628D01*
X50544286Y-76550057D02*
X50591905Y-76502438D01*
X50591905Y-76502438D02*
X50687143Y-76454819D01*
X50687143Y-76454819D02*
X50925238Y-76454819D01*
X50925238Y-76454819D02*
X51020476Y-76502438D01*
X51020476Y-76502438D02*
X51068095Y-76550057D01*
X51068095Y-76550057D02*
X51115714Y-76645295D01*
X51115714Y-76645295D02*
X51115714Y-76740533D01*
X51115714Y-76740533D02*
X51068095Y-76883390D01*
X51068095Y-76883390D02*
X50496667Y-77454819D01*
X50496667Y-77454819D02*
X51115714Y-77454819D01*
X46283333Y-64809580D02*
X46235714Y-64857200D01*
X46235714Y-64857200D02*
X46092857Y-64904819D01*
X46092857Y-64904819D02*
X45997619Y-64904819D01*
X45997619Y-64904819D02*
X45854762Y-64857200D01*
X45854762Y-64857200D02*
X45759524Y-64761961D01*
X45759524Y-64761961D02*
X45711905Y-64666723D01*
X45711905Y-64666723D02*
X45664286Y-64476247D01*
X45664286Y-64476247D02*
X45664286Y-64333390D01*
X45664286Y-64333390D02*
X45711905Y-64142914D01*
X45711905Y-64142914D02*
X45759524Y-64047676D01*
X45759524Y-64047676D02*
X45854762Y-63952438D01*
X45854762Y-63952438D02*
X45997619Y-63904819D01*
X45997619Y-63904819D02*
X46092857Y-63904819D01*
X46092857Y-63904819D02*
X46235714Y-63952438D01*
X46235714Y-63952438D02*
X46283333Y-64000057D01*
X46616667Y-63904819D02*
X47235714Y-63904819D01*
X47235714Y-63904819D02*
X46902381Y-64285771D01*
X46902381Y-64285771D02*
X47045238Y-64285771D01*
X47045238Y-64285771D02*
X47140476Y-64333390D01*
X47140476Y-64333390D02*
X47188095Y-64381009D01*
X47188095Y-64381009D02*
X47235714Y-64476247D01*
X47235714Y-64476247D02*
X47235714Y-64714342D01*
X47235714Y-64714342D02*
X47188095Y-64809580D01*
X47188095Y-64809580D02*
X47140476Y-64857200D01*
X47140476Y-64857200D02*
X47045238Y-64904819D01*
X47045238Y-64904819D02*
X46759524Y-64904819D01*
X46759524Y-64904819D02*
X46664286Y-64857200D01*
X46664286Y-64857200D02*
X46616667Y-64809580D01*
X48343333Y-64904819D02*
X48010000Y-64428628D01*
X47771905Y-64904819D02*
X47771905Y-63904819D01*
X47771905Y-63904819D02*
X48152857Y-63904819D01*
X48152857Y-63904819D02*
X48248095Y-63952438D01*
X48248095Y-63952438D02*
X48295714Y-64000057D01*
X48295714Y-64000057D02*
X48343333Y-64095295D01*
X48343333Y-64095295D02*
X48343333Y-64238152D01*
X48343333Y-64238152D02*
X48295714Y-64333390D01*
X48295714Y-64333390D02*
X48248095Y-64381009D01*
X48248095Y-64381009D02*
X48152857Y-64428628D01*
X48152857Y-64428628D02*
X47771905Y-64428628D01*
X49248095Y-63904819D02*
X48771905Y-63904819D01*
X48771905Y-63904819D02*
X48724286Y-64381009D01*
X48724286Y-64381009D02*
X48771905Y-64333390D01*
X48771905Y-64333390D02*
X48867143Y-64285771D01*
X48867143Y-64285771D02*
X49105238Y-64285771D01*
X49105238Y-64285771D02*
X49200476Y-64333390D01*
X49200476Y-64333390D02*
X49248095Y-64381009D01*
X49248095Y-64381009D02*
X49295714Y-64476247D01*
X49295714Y-64476247D02*
X49295714Y-64714342D01*
X49295714Y-64714342D02*
X49248095Y-64809580D01*
X49248095Y-64809580D02*
X49200476Y-64857200D01*
X49200476Y-64857200D02*
X49105238Y-64904819D01*
X49105238Y-64904819D02*
X48867143Y-64904819D01*
X48867143Y-64904819D02*
X48771905Y-64857200D01*
X48771905Y-64857200D02*
X48724286Y-64809580D01*
X50373333Y-64854819D02*
X50040000Y-64378628D01*
X49801905Y-64854819D02*
X49801905Y-63854819D01*
X49801905Y-63854819D02*
X50182857Y-63854819D01*
X50182857Y-63854819D02*
X50278095Y-63902438D01*
X50278095Y-63902438D02*
X50325714Y-63950057D01*
X50325714Y-63950057D02*
X50373333Y-64045295D01*
X50373333Y-64045295D02*
X50373333Y-64188152D01*
X50373333Y-64188152D02*
X50325714Y-64283390D01*
X50325714Y-64283390D02*
X50278095Y-64331009D01*
X50278095Y-64331009D02*
X50182857Y-64378628D01*
X50182857Y-64378628D02*
X49801905Y-64378628D01*
X51230476Y-63854819D02*
X51040000Y-63854819D01*
X51040000Y-63854819D02*
X50944762Y-63902438D01*
X50944762Y-63902438D02*
X50897143Y-63950057D01*
X50897143Y-63950057D02*
X50801905Y-64092914D01*
X50801905Y-64092914D02*
X50754286Y-64283390D01*
X50754286Y-64283390D02*
X50754286Y-64664342D01*
X50754286Y-64664342D02*
X50801905Y-64759580D01*
X50801905Y-64759580D02*
X50849524Y-64807200D01*
X50849524Y-64807200D02*
X50944762Y-64854819D01*
X50944762Y-64854819D02*
X51135238Y-64854819D01*
X51135238Y-64854819D02*
X51230476Y-64807200D01*
X51230476Y-64807200D02*
X51278095Y-64759580D01*
X51278095Y-64759580D02*
X51325714Y-64664342D01*
X51325714Y-64664342D02*
X51325714Y-64426247D01*
X51325714Y-64426247D02*
X51278095Y-64331009D01*
X51278095Y-64331009D02*
X51230476Y-64283390D01*
X51230476Y-64283390D02*
X51135238Y-64235771D01*
X51135238Y-64235771D02*
X50944762Y-64235771D01*
X50944762Y-64235771D02*
X50849524Y-64283390D01*
X50849524Y-64283390D02*
X50801905Y-64331009D01*
X50801905Y-64331009D02*
X50754286Y-64426247D01*
X46083333Y-77409580D02*
X46035714Y-77457200D01*
X46035714Y-77457200D02*
X45892857Y-77504819D01*
X45892857Y-77504819D02*
X45797619Y-77504819D01*
X45797619Y-77504819D02*
X45654762Y-77457200D01*
X45654762Y-77457200D02*
X45559524Y-77361961D01*
X45559524Y-77361961D02*
X45511905Y-77266723D01*
X45511905Y-77266723D02*
X45464286Y-77076247D01*
X45464286Y-77076247D02*
X45464286Y-76933390D01*
X45464286Y-76933390D02*
X45511905Y-76742914D01*
X45511905Y-76742914D02*
X45559524Y-76647676D01*
X45559524Y-76647676D02*
X45654762Y-76552438D01*
X45654762Y-76552438D02*
X45797619Y-76504819D01*
X45797619Y-76504819D02*
X45892857Y-76504819D01*
X45892857Y-76504819D02*
X46035714Y-76552438D01*
X46035714Y-76552438D02*
X46083333Y-76600057D01*
X47035714Y-77504819D02*
X46464286Y-77504819D01*
X46750000Y-77504819D02*
X46750000Y-76504819D01*
X46750000Y-76504819D02*
X46654762Y-76647676D01*
X46654762Y-76647676D02*
X46559524Y-76742914D01*
X46559524Y-76742914D02*
X46464286Y-76790533D01*
D11*
X45309524Y-46457419D02*
X45309524Y-45457419D01*
X45309524Y-45457419D02*
X45547619Y-45457419D01*
X45547619Y-45457419D02*
X45690476Y-45505038D01*
X45690476Y-45505038D02*
X45785714Y-45600276D01*
X45785714Y-45600276D02*
X45833333Y-45695514D01*
X45833333Y-45695514D02*
X45880952Y-45885990D01*
X45880952Y-45885990D02*
X45880952Y-46028847D01*
X45880952Y-46028847D02*
X45833333Y-46219323D01*
X45833333Y-46219323D02*
X45785714Y-46314561D01*
X45785714Y-46314561D02*
X45690476Y-46409800D01*
X45690476Y-46409800D02*
X45547619Y-46457419D01*
X45547619Y-46457419D02*
X45309524Y-46457419D01*
X46785714Y-45457419D02*
X46309524Y-45457419D01*
X46309524Y-45457419D02*
X46261905Y-45933609D01*
X46261905Y-45933609D02*
X46309524Y-45885990D01*
X46309524Y-45885990D02*
X46404762Y-45838371D01*
X46404762Y-45838371D02*
X46642857Y-45838371D01*
X46642857Y-45838371D02*
X46738095Y-45885990D01*
X46738095Y-45885990D02*
X46785714Y-45933609D01*
X46785714Y-45933609D02*
X46833333Y-46028847D01*
X46833333Y-46028847D02*
X46833333Y-46266942D01*
X46833333Y-46266942D02*
X46785714Y-46362180D01*
X46785714Y-46362180D02*
X46738095Y-46409800D01*
X46738095Y-46409800D02*
X46642857Y-46457419D01*
X46642857Y-46457419D02*
X46404762Y-46457419D01*
X46404762Y-46457419D02*
X46309524Y-46409800D01*
X46309524Y-46409800D02*
X46261905Y-46362180D01*
X47785714Y-46457419D02*
X47214286Y-46457419D01*
X47500000Y-46457419D02*
X47500000Y-45457419D01*
X47500000Y-45457419D02*
X47404762Y-45600276D01*
X47404762Y-45600276D02*
X47309524Y-45695514D01*
X47309524Y-45695514D02*
X47214286Y-45743133D01*
X48738095Y-46457419D02*
X48166667Y-46457419D01*
X48452381Y-46457419D02*
X48452381Y-45457419D01*
X48452381Y-45457419D02*
X48357143Y-45600276D01*
X48357143Y-45600276D02*
X48261905Y-45695514D01*
X48261905Y-45695514D02*
X48166667Y-45743133D01*
D12*
%TO.C,J1*%
X45990000Y-52460000D02*
X45990000Y-51300000D01*
X46800000Y-52460000D02*
X45990000Y-52460000D01*
X47610000Y-52460000D02*
X51355000Y-52460000D01*
X47610000Y-52460000D02*
X47610000Y-51966708D01*
X51355000Y-52460000D02*
X51355000Y-51617923D01*
X51355000Y-50982077D02*
X51355000Y-50140000D01*
X47610000Y-50633292D02*
X47610000Y-50140000D01*
X47610000Y-50140000D02*
X51355000Y-50140000D01*
%TO.C,R4*%
X51720000Y-46846359D02*
X51720000Y-47153641D01*
X52480000Y-46846359D02*
X52480000Y-47153641D01*
%TO.C,R3*%
X51280000Y-47153641D02*
X51280000Y-46846359D01*
X50520000Y-47153641D02*
X50520000Y-46846359D01*
%TO.C,C2*%
X50110000Y-47107836D02*
X50110000Y-46892164D01*
X49390000Y-47107836D02*
X49390000Y-46892164D01*
%TO.C,R1*%
X48236359Y-75420000D02*
X48543641Y-75420000D01*
X48236359Y-76180000D02*
X48543641Y-76180000D01*
%TO.C,R2*%
X50236359Y-75420000D02*
X50543641Y-75420000D01*
X50236359Y-76180000D02*
X50543641Y-76180000D01*
%TO.C,C3*%
X46517836Y-63560000D02*
X46302164Y-63560000D01*
X46517836Y-62840000D02*
X46302164Y-62840000D01*
%TO.C,R5*%
X48356359Y-62820000D02*
X48663641Y-62820000D01*
X48356359Y-63580000D02*
X48663641Y-63580000D01*
%TO.C,R6*%
X50386359Y-62820000D02*
X50693641Y-62820000D01*
X50386359Y-63580000D02*
X50693641Y-63580000D01*
%TO.C,C1*%
X46397836Y-75440000D02*
X46182164Y-75440000D01*
X46397836Y-76160000D02*
X46182164Y-76160000D01*
D11*
%TO.C,D511*%
X45400000Y-48850000D02*
X46600000Y-48850000D01*
X45400000Y-46650000D02*
X46600000Y-46650000D01*
X46850000Y-48750000D02*
G75*
G02*
X46750000Y-48750000I-50000J0D01*
G01*
X46750000Y-48750000D02*
G75*
G02*
X46850000Y-48750000I50000J0D01*
G01*
D12*
%TO.C,SW2*%
X51879110Y-42253390D02*
X51879110Y-40753390D01*
X50629110Y-38253390D02*
X46129110Y-38253390D01*
X46129110Y-44753390D02*
X50629110Y-44753390D01*
X44879110Y-40753390D02*
X44879110Y-42253390D01*
%TO.C,SW3*%
X51900000Y-70650000D02*
X51900000Y-69150000D01*
X50650000Y-66650000D02*
X46150000Y-66650000D01*
X46150000Y-73150000D02*
X50650000Y-73150000D01*
X44900000Y-69150000D02*
X44900000Y-70650000D01*
%TO.C,SW1*%
X44900000Y-56800000D02*
X44900000Y-58300000D01*
X46150000Y-60800000D02*
X50650000Y-60800000D01*
X50650000Y-54300000D02*
X46150000Y-54300000D01*
X51900000Y-58300000D02*
X51900000Y-56800000D01*
%TD*%
M02*
