%TF.GenerationSoftware,KiCad,Pcbnew,9.0.7*%
%TF.CreationDate,2026-03-09T12:12:39+01:00*%
%TF.ProjectId,LumaDome_Boutons,4c756d61-446f-46d6-955f-426f75746f6e,rev?*%
%TF.SameCoordinates,Original*%
%TF.FileFunction,Copper,L2,Bot*%
%TF.FilePolarity,Positive*%
%FSLAX46Y46*%
G04 Gerber Fmt 4.6, Leading zero omitted, Abs format (unit mm)*
G04 Created by KiCad (PCBNEW 9.0.7) date 2026-03-09 12:12:39*
%MOMM*%
%LPD*%
G01*
G04 APERTURE LIST*
%TA.AperFunction,ComponentPad*%
%ADD10R,1.000000X1.000000*%
%TD*%
%TA.AperFunction,ComponentPad*%
%ADD11C,1.000000*%
%TD*%
%TA.AperFunction,ComponentPad*%
%ADD12C,2.000000*%
%TD*%
%TA.AperFunction,ComponentPad*%
%ADD13C,0.700000*%
%TD*%
%TA.AperFunction,ComponentPad*%
%ADD14C,4.400000*%
%TD*%
%TA.AperFunction,ViaPad*%
%ADD15C,0.600000*%
%TD*%
%TA.AperFunction,ViaPad*%
%ADD16C,0.450000*%
%TD*%
%TA.AperFunction,Conductor*%
%ADD17C,0.200000*%
%TD*%
G04 APERTURE END LIST*
D10*
%TO.P,J1,1,Pin_1*%
%TO.N,/Mode_button*%
X46800000Y-51300000D03*
D11*
%TO.P,J1,2,Pin_2*%
%TO.N,/Luminosity_button*%
X48070000Y-51300000D03*
%TO.P,J1,3,Pin_3*%
%TO.N,/Reset_button*%
X49340000Y-51300000D03*
%TO.P,J1,4,Pin_4*%
%TO.N,+3.3V*%
X50610000Y-51300000D03*
%TD*%
D12*
%TO.P,SW2,2,2*%
%TO.N,GND*%
X45129110Y-39253390D03*
X51629110Y-39253390D03*
%TO.P,SW2,1,1*%
%TO.N,/Reset_b*%
X45129110Y-43753390D03*
X51629110Y-43753390D03*
%TD*%
%TO.P,SW3,2,2*%
%TO.N,GND*%
X51650000Y-72150000D03*
X45150000Y-72150000D03*
%TO.P,SW3,1,1*%
%TO.N,/Luminosity_b*%
X51650000Y-67650000D03*
X45150000Y-67650000D03*
%TD*%
%TO.P,SW1,1,1*%
%TO.N,/Mode_b*%
X45150000Y-55300000D03*
X51650000Y-55300000D03*
%TO.P,SW1,2,2*%
%TO.N,GND*%
X45150000Y-59800000D03*
X51650000Y-59800000D03*
%TD*%
D13*
%TO.P,H102,1,1*%
%TO.N,GND*%
X46600000Y-80250000D03*
X47083274Y-79083274D03*
X47083274Y-81416726D03*
X48250000Y-78600000D03*
D14*
X48250000Y-80250000D03*
D13*
X48250000Y-81900000D03*
X49416726Y-79083274D03*
X49416726Y-81416726D03*
X49900000Y-80250000D03*
%TD*%
%TO.P,H101,1,1*%
%TO.N,GND*%
X46650000Y-33650000D03*
X47133274Y-32483274D03*
X47133274Y-34816726D03*
X48300000Y-32000000D03*
D14*
X48300000Y-33650000D03*
D13*
X48300000Y-35300000D03*
X49466726Y-32483274D03*
X49466726Y-34816726D03*
X49950000Y-33650000D03*
%TD*%
D15*
%TO.N,GND*%
X48950000Y-53350000D03*
X51050000Y-48800000D03*
X50100000Y-48800000D03*
X45850000Y-53050000D03*
X45750000Y-57550000D03*
X44650000Y-57600000D03*
%TO.N,+3.3V*%
X50900000Y-74650000D03*
X51050000Y-62250000D03*
X50600000Y-53150000D03*
%TO.N,GND*%
X48300000Y-47050000D03*
%TO.N,/Luminosity_b*%
X45150000Y-65150000D03*
X45100000Y-50350000D03*
%TO.N,/Luminosity_button*%
X46800000Y-74700000D03*
X47800000Y-53050000D03*
%TO.N,/Mode_button*%
X46800000Y-62250000D03*
X46800000Y-53050000D03*
D16*
%TO.N,GND*%
X53100000Y-74150000D03*
X53100000Y-75150000D03*
X43550000Y-74200000D03*
X43550000Y-75200000D03*
X53150000Y-62400000D03*
X53150000Y-63400000D03*
X43600000Y-62500000D03*
X43600000Y-63500000D03*
X53150000Y-46200000D03*
X43600000Y-46100000D03*
X43600000Y-36600000D03*
X53150000Y-36600000D03*
X53150000Y-64550000D03*
X53150000Y-65550000D03*
X43600000Y-65550000D03*
X43600000Y-64550000D03*
X52250000Y-82800000D03*
X44500000Y-82800000D03*
X53100000Y-77150000D03*
X53100000Y-79150000D03*
X47350000Y-83050000D03*
X48350000Y-83050000D03*
X51300000Y-30850000D03*
X53150000Y-49350000D03*
X43600000Y-33600000D03*
X53100000Y-80150000D03*
X45350000Y-83050000D03*
X43600000Y-50350000D03*
X46350000Y-30850000D03*
X43600000Y-35600000D03*
X53150000Y-50350000D03*
X53150000Y-34600000D03*
X52150000Y-31100000D03*
X43600000Y-51350000D03*
X53150000Y-32600000D03*
X53150000Y-52300000D03*
X43600000Y-48350000D03*
X51300000Y-83050000D03*
X53150000Y-53300000D03*
X43600000Y-49350000D03*
X43800000Y-31750000D03*
X43550000Y-80150000D03*
X43600000Y-53300000D03*
X43550000Y-77150000D03*
X53150000Y-51350000D03*
X52750000Y-31750000D03*
X50300000Y-83050000D03*
X49350000Y-83050000D03*
X43550000Y-81150000D03*
X53150000Y-48350000D03*
X52850000Y-82150000D03*
X43900000Y-82150000D03*
X53100000Y-81150000D03*
X43600000Y-47350000D03*
X53150000Y-47350000D03*
X53100000Y-78150000D03*
X43600000Y-34600000D03*
X43550000Y-79150000D03*
X53150000Y-33600000D03*
X53150000Y-35600000D03*
X43600000Y-32600000D03*
X50300000Y-30850000D03*
X46350000Y-83050000D03*
X43600000Y-52300000D03*
X45350000Y-30850000D03*
X43550000Y-78150000D03*
X47300000Y-30850000D03*
X49300000Y-30850000D03*
X48300000Y-30850000D03*
X44400000Y-31100000D03*
X53100000Y-76150000D03*
X43550000Y-76150000D03*
%TD*%
D17*
%TO.N,+3.3V*%
X49800000Y-53950000D02*
X50600000Y-53150000D01*
X49800000Y-61000000D02*
X49800000Y-53950000D01*
X50900000Y-74650000D02*
X49800000Y-73550000D01*
X49800000Y-73550000D02*
X49800000Y-61000000D01*
X51050000Y-62250000D02*
X49800000Y-61000000D01*
%TO.N,/Luminosity_b*%
X45150000Y-63306123D02*
X45150000Y-65150000D01*
X43849000Y-62005123D02*
X45150000Y-63306123D01*
X45100000Y-53510108D02*
X43849000Y-54761108D01*
X43849000Y-54761108D02*
X43849000Y-62005123D01*
X45100000Y-50350000D02*
X45100000Y-53510108D01*
%TO.N,/Luminosity_button*%
X47800000Y-73700000D02*
X46800000Y-74700000D01*
X47800000Y-53050000D02*
X47800000Y-73700000D01*
%TO.N,/Mode_button*%
X46800000Y-62250000D02*
X46800000Y-53050000D01*
%TD*%
%TA.AperFunction,Conductor*%
%TO.N,GND*%
G36*
X51554042Y-30500765D02*
G01*
X51575951Y-30502200D01*
X51796367Y-30516647D01*
X51812424Y-30518762D01*
X52046607Y-30565344D01*
X52062257Y-30569538D01*
X52288352Y-30646287D01*
X52303318Y-30652485D01*
X52517463Y-30758089D01*
X52531504Y-30766196D01*
X52730026Y-30898845D01*
X52742890Y-30908716D01*
X52922394Y-31066136D01*
X52933863Y-31077605D01*
X53091283Y-31257109D01*
X53101157Y-31269977D01*
X53233803Y-31468495D01*
X53241913Y-31482542D01*
X53347508Y-31696668D01*
X53353715Y-31711654D01*
X53430459Y-31937735D01*
X53434657Y-31953401D01*
X53481235Y-32187560D01*
X53483353Y-32203642D01*
X53499235Y-32445956D01*
X53499500Y-32454066D01*
X53499500Y-81645933D01*
X53499235Y-81654043D01*
X53483353Y-81896357D01*
X53481235Y-81912439D01*
X53434657Y-82146598D01*
X53430459Y-82162264D01*
X53353715Y-82388345D01*
X53347508Y-82403331D01*
X53241913Y-82617457D01*
X53233803Y-82631504D01*
X53101157Y-82830022D01*
X53091283Y-82842890D01*
X52933863Y-83022394D01*
X52922394Y-83033863D01*
X52742890Y-83191283D01*
X52730022Y-83201157D01*
X52531504Y-83333803D01*
X52517457Y-83341913D01*
X52303331Y-83447508D01*
X52288345Y-83453715D01*
X52062264Y-83530459D01*
X52046598Y-83534657D01*
X51812439Y-83581235D01*
X51796357Y-83583353D01*
X51554043Y-83599235D01*
X51545933Y-83599500D01*
X45054067Y-83599500D01*
X45045957Y-83599235D01*
X44803642Y-83583353D01*
X44787562Y-83581235D01*
X44674798Y-83558804D01*
X44553401Y-83534657D01*
X44537735Y-83530459D01*
X44311654Y-83453715D01*
X44296674Y-83447510D01*
X44082541Y-83341912D01*
X44068495Y-83333803D01*
X43869977Y-83201157D01*
X43857109Y-83191283D01*
X43677605Y-83033863D01*
X43666136Y-83022394D01*
X43508716Y-82842890D01*
X43498842Y-82830022D01*
X43366196Y-82631504D01*
X43358089Y-82617463D01*
X43252485Y-82403318D01*
X43246287Y-82388352D01*
X43169538Y-82162257D01*
X43165344Y-82146607D01*
X43118762Y-81912424D01*
X43116647Y-81896367D01*
X43100765Y-81654042D01*
X43100500Y-81645933D01*
X43100500Y-72031947D01*
X43650000Y-72031947D01*
X43650000Y-72268052D01*
X43686934Y-72501247D01*
X43759897Y-72725802D01*
X43867087Y-72936174D01*
X43927338Y-73019104D01*
X43927340Y-73019105D01*
X44626212Y-72320233D01*
X44637482Y-72362292D01*
X44709890Y-72487708D01*
X44812292Y-72590110D01*
X44937708Y-72662518D01*
X44979765Y-72673787D01*
X44280893Y-73372658D01*
X44363828Y-73432914D01*
X44574197Y-73540102D01*
X44798752Y-73613065D01*
X44798751Y-73613065D01*
X45031948Y-73650000D01*
X45268052Y-73650000D01*
X45501247Y-73613065D01*
X45725802Y-73540102D01*
X45936163Y-73432918D01*
X45936169Y-73432914D01*
X46019104Y-73372658D01*
X46019105Y-73372658D01*
X45320233Y-72673787D01*
X45362292Y-72662518D01*
X45487708Y-72590110D01*
X45590110Y-72487708D01*
X45662518Y-72362292D01*
X45673787Y-72320233D01*
X46372658Y-73019105D01*
X46372658Y-73019104D01*
X46432914Y-72936169D01*
X46432918Y-72936163D01*
X46540102Y-72725802D01*
X46613065Y-72501247D01*
X46650000Y-72268052D01*
X46650000Y-72031947D01*
X46613065Y-71798752D01*
X46540102Y-71574197D01*
X46432914Y-71363828D01*
X46372658Y-71280894D01*
X46372658Y-71280893D01*
X45673787Y-71979765D01*
X45662518Y-71937708D01*
X45590110Y-71812292D01*
X45487708Y-71709890D01*
X45362292Y-71637482D01*
X45320234Y-71626212D01*
X46019105Y-70927340D01*
X46019104Y-70927338D01*
X45936174Y-70867087D01*
X45725802Y-70759897D01*
X45501247Y-70686934D01*
X45501248Y-70686934D01*
X45268052Y-70650000D01*
X45031948Y-70650000D01*
X44798752Y-70686934D01*
X44574197Y-70759897D01*
X44363830Y-70867084D01*
X44280894Y-70927340D01*
X44979766Y-71626212D01*
X44937708Y-71637482D01*
X44812292Y-71709890D01*
X44709890Y-71812292D01*
X44637482Y-71937708D01*
X44626212Y-71979766D01*
X43927340Y-71280894D01*
X43867084Y-71363830D01*
X43759897Y-71574197D01*
X43686934Y-71798752D01*
X43650000Y-72031947D01*
X43100500Y-72031947D01*
X43100500Y-62372457D01*
X43120185Y-62305418D01*
X43172989Y-62259663D01*
X43242147Y-62249719D01*
X43305703Y-62278744D01*
X43331886Y-62310456D01*
X43342503Y-62328844D01*
X43368479Y-62373838D01*
X43487349Y-62492708D01*
X43487355Y-62492713D01*
X44513181Y-63518539D01*
X44546666Y-63579862D01*
X44549500Y-63606220D01*
X44549500Y-64570234D01*
X44529815Y-64637273D01*
X44528602Y-64639125D01*
X44440609Y-64770814D01*
X44440602Y-64770827D01*
X44380264Y-64916498D01*
X44380261Y-64916510D01*
X44349500Y-65071153D01*
X44349500Y-65228846D01*
X44380261Y-65383489D01*
X44380264Y-65383501D01*
X44440602Y-65529172D01*
X44440609Y-65529185D01*
X44528210Y-65660288D01*
X44528213Y-65660292D01*
X44639707Y-65771786D01*
X44639711Y-65771789D01*
X44770814Y-65859390D01*
X44770827Y-65859397D01*
X44916498Y-65919735D01*
X44916503Y-65919737D01*
X44929683Y-65922358D01*
X44991594Y-65954743D01*
X45026168Y-66015458D01*
X45022429Y-66085228D01*
X44981563Y-66141900D01*
X44924890Y-66166449D01*
X44798631Y-66186446D01*
X44574003Y-66259433D01*
X44363566Y-66366657D01*
X44254550Y-66445862D01*
X44172490Y-66505483D01*
X44172488Y-66505485D01*
X44172487Y-66505485D01*
X44005485Y-66672487D01*
X44005485Y-66672488D01*
X44005483Y-66672490D01*
X43945862Y-66754550D01*
X43866657Y-66863566D01*
X43759433Y-67074003D01*
X43686446Y-67298631D01*
X43649500Y-67531902D01*
X43649500Y-67768097D01*
X43686446Y-68001368D01*
X43759433Y-68225996D01*
X43866657Y-68436433D01*
X44005483Y-68627510D01*
X44172490Y-68794517D01*
X44363567Y-68933343D01*
X44462991Y-68984002D01*
X44574003Y-69040566D01*
X44574005Y-69040566D01*
X44574008Y-69040568D01*
X44694412Y-69079689D01*
X44798631Y-69113553D01*
X45031903Y-69150500D01*
X45031908Y-69150500D01*
X45268097Y-69150500D01*
X45501368Y-69113553D01*
X45725992Y-69040568D01*
X45936433Y-68933343D01*
X46127510Y-68794517D01*
X46294517Y-68627510D01*
X46433343Y-68436433D01*
X46540568Y-68225992D01*
X46613553Y-68001368D01*
X46650500Y-67768097D01*
X46650500Y-67531902D01*
X46613553Y-67298631D01*
X46540566Y-67074003D01*
X46433342Y-66863566D01*
X46294517Y-66672490D01*
X46127510Y-66505483D01*
X45936433Y-66366657D01*
X45725996Y-66259433D01*
X45501368Y-66186446D01*
X45375109Y-66166449D01*
X45311974Y-66136520D01*
X45275043Y-66077208D01*
X45276041Y-66007345D01*
X45314651Y-65949113D01*
X45370316Y-65922358D01*
X45383497Y-65919737D01*
X45529179Y-65859394D01*
X45660289Y-65771789D01*
X45771789Y-65660289D01*
X45859394Y-65529179D01*
X45919737Y-65383497D01*
X45950500Y-65228842D01*
X45950500Y-65071158D01*
X45950500Y-65071155D01*
X45950499Y-65071153D01*
X45919738Y-64916510D01*
X45919737Y-64916503D01*
X45919735Y-64916498D01*
X45859397Y-64770827D01*
X45859390Y-64770814D01*
X45771398Y-64639125D01*
X45750520Y-64572447D01*
X45750500Y-64570234D01*
X45750500Y-63395182D01*
X45750501Y-63395169D01*
X45750501Y-63227068D01*
X45750501Y-63227066D01*
X45709577Y-63074338D01*
X45678053Y-63019737D01*
X45678053Y-63019736D01*
X45630524Y-62937413D01*
X45630521Y-62937409D01*
X45630520Y-62937407D01*
X45518716Y-62825603D01*
X45518715Y-62825602D01*
X45514385Y-62821272D01*
X45514374Y-62821262D01*
X44485819Y-61792707D01*
X44452334Y-61731384D01*
X44449500Y-61705026D01*
X44449500Y-61320257D01*
X44469185Y-61253218D01*
X44521989Y-61207463D01*
X44591147Y-61197519D01*
X44611819Y-61202326D01*
X44798754Y-61263065D01*
X45031948Y-61300000D01*
X45268052Y-61300000D01*
X45501247Y-61263065D01*
X45725802Y-61190102D01*
X45936171Y-61082914D01*
X46002614Y-61034641D01*
X46068421Y-61011161D01*
X46136475Y-61026986D01*
X46185170Y-61077092D01*
X46199500Y-61134959D01*
X46199500Y-61670234D01*
X46179815Y-61737273D01*
X46178602Y-61739125D01*
X46090609Y-61870814D01*
X46090602Y-61870827D01*
X46030264Y-62016498D01*
X46030261Y-62016510D01*
X45999500Y-62171153D01*
X45999500Y-62328846D01*
X46030261Y-62483489D01*
X46030264Y-62483501D01*
X46090602Y-62629172D01*
X46090609Y-62629185D01*
X46178210Y-62760288D01*
X46178213Y-62760292D01*
X46289707Y-62871786D01*
X46289711Y-62871789D01*
X46420814Y-62959390D01*
X46420827Y-62959397D01*
X46566498Y-63019735D01*
X46566503Y-63019737D01*
X46696982Y-63045691D01*
X46721153Y-63050499D01*
X46721156Y-63050500D01*
X46721158Y-63050500D01*
X46878844Y-63050500D01*
X46878845Y-63050499D01*
X47033497Y-63019737D01*
X47033509Y-63019731D01*
X47039324Y-63017969D01*
X47040158Y-63020720D01*
X47097359Y-63014497D01*
X47159878Y-63045691D01*
X47195608Y-63105734D01*
X47199500Y-63136555D01*
X47199500Y-73399902D01*
X47179815Y-73466941D01*
X47163181Y-73487583D01*
X46785339Y-73865425D01*
X46724016Y-73898910D01*
X46721850Y-73899361D01*
X46566508Y-73930261D01*
X46566498Y-73930264D01*
X46420827Y-73990602D01*
X46420814Y-73990609D01*
X46289711Y-74078210D01*
X46289707Y-74078213D01*
X46178213Y-74189707D01*
X46178210Y-74189711D01*
X46090609Y-74320814D01*
X46090602Y-74320827D01*
X46030264Y-74466498D01*
X46030261Y-74466510D01*
X45999500Y-74621153D01*
X45999500Y-74778846D01*
X46030261Y-74933489D01*
X46030264Y-74933501D01*
X46090602Y-75079172D01*
X46090609Y-75079185D01*
X46178210Y-75210288D01*
X46178213Y-75210292D01*
X46289707Y-75321786D01*
X46289711Y-75321789D01*
X46420814Y-75409390D01*
X46420827Y-75409397D01*
X46520060Y-75450500D01*
X46566503Y-75469737D01*
X46721153Y-75500499D01*
X46721156Y-75500500D01*
X46721158Y-75500500D01*
X46878844Y-75500500D01*
X46878845Y-75500499D01*
X47033497Y-75469737D01*
X47179179Y-75409394D01*
X47310289Y-75321789D01*
X47421789Y-75210289D01*
X47509394Y-75079179D01*
X47569737Y-74933497D01*
X47589113Y-74836085D01*
X47600638Y-74778150D01*
X47633023Y-74716239D01*
X47634515Y-74714719D01*
X48280520Y-74068716D01*
X48359577Y-73931784D01*
X48400501Y-73779057D01*
X48400501Y-73620942D01*
X48400501Y-73613347D01*
X48400500Y-73613329D01*
X48400500Y-53629765D01*
X48420185Y-53562726D01*
X48421398Y-53560874D01*
X48509390Y-53429185D01*
X48509390Y-53429184D01*
X48509394Y-53429179D01*
X48569737Y-53283497D01*
X48600500Y-53128842D01*
X48600500Y-52971158D01*
X48600500Y-52971155D01*
X48600499Y-52971153D01*
X48569738Y-52816510D01*
X48569737Y-52816503D01*
X48550812Y-52770814D01*
X48509397Y-52670827D01*
X48509390Y-52670814D01*
X48421789Y-52539711D01*
X48421786Y-52539707D01*
X48339118Y-52457039D01*
X48305633Y-52395716D01*
X48310617Y-52326024D01*
X48352489Y-52270091D01*
X48379344Y-52254798D01*
X48543914Y-52186632D01*
X48616887Y-52137872D01*
X48636109Y-52125029D01*
X48702786Y-52104151D01*
X48770166Y-52122635D01*
X48773891Y-52125029D01*
X48866080Y-52186628D01*
X48866086Y-52186632D01*
X48866088Y-52186633D01*
X48866092Y-52186635D01*
X48953942Y-52223023D01*
X49048165Y-52262051D01*
X49048169Y-52262051D01*
X49048170Y-52262052D01*
X49241456Y-52300500D01*
X49241459Y-52300500D01*
X49438543Y-52300500D01*
X49578284Y-52272703D01*
X49631835Y-52262051D01*
X49813914Y-52186632D01*
X49886887Y-52137872D01*
X49906109Y-52125029D01*
X49920334Y-52120574D01*
X49932317Y-52111709D01*
X49953002Y-52110345D01*
X49972786Y-52104151D01*
X49988330Y-52108017D01*
X50002035Y-52107114D01*
X50026082Y-52117406D01*
X50035034Y-52119633D01*
X50039580Y-52122148D01*
X50136086Y-52186632D01*
X50215771Y-52219638D01*
X50221888Y-52223023D01*
X50241734Y-52243091D01*
X50263709Y-52260800D01*
X50265973Y-52267602D01*
X50271017Y-52272703D01*
X50276862Y-52300318D01*
X50285775Y-52327093D01*
X50284001Y-52334041D01*
X50285487Y-52341058D01*
X50275476Y-52367445D01*
X50268497Y-52394793D01*
X50263167Y-52399890D01*
X50260704Y-52406385D01*
X50241596Y-52420522D01*
X50225204Y-52436201D01*
X50225886Y-52437221D01*
X50089711Y-52528210D01*
X50089707Y-52528213D01*
X49978213Y-52639707D01*
X49978210Y-52639711D01*
X49890609Y-52770814D01*
X49890602Y-52770827D01*
X49830264Y-52916498D01*
X49830261Y-52916508D01*
X49799361Y-53071850D01*
X49766976Y-53133761D01*
X49765425Y-53135339D01*
X49319481Y-53581282D01*
X49319479Y-53581284D01*
X49301144Y-53613041D01*
X49293395Y-53626465D01*
X49240423Y-53718215D01*
X49199499Y-53870943D01*
X49199499Y-53870945D01*
X49199499Y-54039046D01*
X49199500Y-54039059D01*
X49199500Y-60920939D01*
X49199499Y-60920943D01*
X49199499Y-61079057D01*
X49199500Y-61079060D01*
X49199500Y-73463330D01*
X49199499Y-73463348D01*
X49199499Y-73629054D01*
X49199498Y-73629054D01*
X49240423Y-73781785D01*
X49269358Y-73831900D01*
X49269359Y-73831904D01*
X49269360Y-73831904D01*
X49319479Y-73918714D01*
X49319481Y-73918717D01*
X49438349Y-74037585D01*
X49438355Y-74037590D01*
X50065425Y-74664660D01*
X50098910Y-74725983D01*
X50099361Y-74728149D01*
X50130261Y-74883491D01*
X50130264Y-74883501D01*
X50190602Y-75029172D01*
X50190609Y-75029185D01*
X50278210Y-75160288D01*
X50278213Y-75160292D01*
X50389707Y-75271786D01*
X50389711Y-75271789D01*
X50520814Y-75359390D01*
X50520827Y-75359397D01*
X50666498Y-75419735D01*
X50666503Y-75419737D01*
X50821153Y-75450499D01*
X50821156Y-75450500D01*
X50821158Y-75450500D01*
X50978844Y-75450500D01*
X50978845Y-75450499D01*
X51133497Y-75419737D01*
X51279179Y-75359394D01*
X51410289Y-75271789D01*
X51521789Y-75160289D01*
X51609394Y-75029179D01*
X51669737Y-74883497D01*
X51700500Y-74728842D01*
X51700500Y-74571158D01*
X51700500Y-74571155D01*
X51700499Y-74571153D01*
X51679684Y-74466510D01*
X51669737Y-74416503D01*
X51630102Y-74320814D01*
X51609397Y-74270827D01*
X51609390Y-74270814D01*
X51521789Y-74139711D01*
X51521786Y-74139707D01*
X51410292Y-74028213D01*
X51410288Y-74028210D01*
X51279185Y-73940609D01*
X51279172Y-73940602D01*
X51133501Y-73880264D01*
X51133491Y-73880261D01*
X50978149Y-73849361D01*
X50961392Y-73840595D01*
X50942914Y-73836576D01*
X50917877Y-73817833D01*
X50916238Y-73816976D01*
X50914660Y-73815425D01*
X50741185Y-73641950D01*
X50707700Y-73580627D01*
X50712684Y-73510935D01*
X50754556Y-73455002D01*
X50820020Y-73430585D01*
X50885161Y-73443784D01*
X51074197Y-73540102D01*
X51298752Y-73613065D01*
X51298751Y-73613065D01*
X51531948Y-73650000D01*
X51768052Y-73650000D01*
X52001247Y-73613065D01*
X52225802Y-73540102D01*
X52436163Y-73432918D01*
X52436169Y-73432914D01*
X52519104Y-73372658D01*
X52519105Y-73372658D01*
X51820233Y-72673787D01*
X51862292Y-72662518D01*
X51987708Y-72590110D01*
X52090110Y-72487708D01*
X52162518Y-72362292D01*
X52173787Y-72320234D01*
X52872658Y-73019105D01*
X52872658Y-73019104D01*
X52932914Y-72936169D01*
X52932918Y-72936163D01*
X53040102Y-72725802D01*
X53113065Y-72501247D01*
X53150000Y-72268052D01*
X53150000Y-72031947D01*
X53113065Y-71798752D01*
X53040102Y-71574197D01*
X52932914Y-71363828D01*
X52872658Y-71280894D01*
X52872658Y-71280893D01*
X52173787Y-71979765D01*
X52162518Y-71937708D01*
X52090110Y-71812292D01*
X51987708Y-71709890D01*
X51862292Y-71637482D01*
X51820234Y-71626212D01*
X52519105Y-70927340D01*
X52519104Y-70927338D01*
X52436174Y-70867087D01*
X52225802Y-70759897D01*
X52001247Y-70686934D01*
X52001248Y-70686934D01*
X51768052Y-70650000D01*
X51531948Y-70650000D01*
X51298752Y-70686934D01*
X51074197Y-70759897D01*
X50863830Y-70867084D01*
X50780894Y-70927340D01*
X51479766Y-71626212D01*
X51437708Y-71637482D01*
X51312292Y-71709890D01*
X51209890Y-71812292D01*
X51137482Y-71937708D01*
X51126212Y-71979766D01*
X50436819Y-71290373D01*
X50422115Y-71263445D01*
X50405523Y-71237627D01*
X50404631Y-71231426D01*
X50403334Y-71229050D01*
X50400500Y-71202692D01*
X50400500Y-68821889D01*
X50420185Y-68754850D01*
X50472989Y-68709095D01*
X50542147Y-68699151D01*
X50605703Y-68728176D01*
X50612181Y-68734208D01*
X50672490Y-68794517D01*
X50863567Y-68933343D01*
X50962991Y-68984002D01*
X51074003Y-69040566D01*
X51074005Y-69040566D01*
X51074008Y-69040568D01*
X51194412Y-69079689D01*
X51298631Y-69113553D01*
X51531903Y-69150500D01*
X51531908Y-69150500D01*
X51768097Y-69150500D01*
X52001368Y-69113553D01*
X52225992Y-69040568D01*
X52436433Y-68933343D01*
X52627510Y-68794517D01*
X52794517Y-68627510D01*
X52933343Y-68436433D01*
X53040568Y-68225992D01*
X53113553Y-68001368D01*
X53150500Y-67768097D01*
X53150500Y-67531902D01*
X53113553Y-67298631D01*
X53040566Y-67074003D01*
X52933342Y-66863566D01*
X52794517Y-66672490D01*
X52627510Y-66505483D01*
X52436433Y-66366657D01*
X52225996Y-66259433D01*
X52001368Y-66186446D01*
X51768097Y-66149500D01*
X51768092Y-66149500D01*
X51531908Y-66149500D01*
X51531903Y-66149500D01*
X51298631Y-66186446D01*
X51074003Y-66259433D01*
X50863566Y-66366657D01*
X50754550Y-66445862D01*
X50672490Y-66505483D01*
X50672488Y-66505485D01*
X50672487Y-66505485D01*
X50612181Y-66565792D01*
X50550858Y-66599277D01*
X50481166Y-66594293D01*
X50425233Y-66552421D01*
X50400816Y-66486957D01*
X50400500Y-66478111D01*
X50400500Y-63010759D01*
X50420185Y-62943720D01*
X50472989Y-62897965D01*
X50542147Y-62888021D01*
X50593391Y-62907657D01*
X50670821Y-62959394D01*
X50670823Y-62959395D01*
X50670827Y-62959397D01*
X50816498Y-63019735D01*
X50816503Y-63019737D01*
X50946982Y-63045691D01*
X50971153Y-63050499D01*
X50971156Y-63050500D01*
X50971158Y-63050500D01*
X51128844Y-63050500D01*
X51128845Y-63050499D01*
X51283497Y-63019737D01*
X51429179Y-62959394D01*
X51560289Y-62871789D01*
X51671789Y-62760289D01*
X51759394Y-62629179D01*
X51819737Y-62483497D01*
X51850500Y-62328842D01*
X51850500Y-62171158D01*
X51850500Y-62171155D01*
X51850499Y-62171153D01*
X51819738Y-62016510D01*
X51819737Y-62016503D01*
X51782277Y-61926066D01*
X51759397Y-61870827D01*
X51759390Y-61870814D01*
X51671789Y-61739711D01*
X51671786Y-61739707D01*
X51560292Y-61628213D01*
X51560288Y-61628210D01*
X51429185Y-61540609D01*
X51429175Y-61540604D01*
X51392979Y-61525611D01*
X51338575Y-61481769D01*
X51316511Y-61415475D01*
X51333791Y-61347776D01*
X51384928Y-61300166D01*
X51453688Y-61287761D01*
X51459831Y-61288577D01*
X51531949Y-61300000D01*
X51768052Y-61300000D01*
X52001247Y-61263065D01*
X52225802Y-61190102D01*
X52436163Y-61082918D01*
X52436169Y-61082914D01*
X52519104Y-61022658D01*
X52519105Y-61022658D01*
X51820233Y-60323787D01*
X51862292Y-60312518D01*
X51987708Y-60240110D01*
X52090110Y-60137708D01*
X52162518Y-60012292D01*
X52173787Y-59970234D01*
X52872658Y-60669105D01*
X52872658Y-60669104D01*
X52932914Y-60586169D01*
X52932918Y-60586163D01*
X53040102Y-60375802D01*
X53113065Y-60151247D01*
X53150000Y-59918052D01*
X53150000Y-59681947D01*
X53113065Y-59448752D01*
X53040102Y-59224197D01*
X52932914Y-59013828D01*
X52872658Y-58930894D01*
X52872658Y-58930893D01*
X52173787Y-59629765D01*
X52162518Y-59587708D01*
X52090110Y-59462292D01*
X51987708Y-59359890D01*
X51862292Y-59287482D01*
X51820234Y-59276212D01*
X52519105Y-58577340D01*
X52519104Y-58577338D01*
X52436174Y-58517087D01*
X52225802Y-58409897D01*
X52001247Y-58336934D01*
X52001248Y-58336934D01*
X51768052Y-58300000D01*
X51531948Y-58300000D01*
X51298752Y-58336934D01*
X51074197Y-58409897D01*
X50863830Y-58517084D01*
X50780894Y-58577340D01*
X51479766Y-59276212D01*
X51437708Y-59287482D01*
X51312292Y-59359890D01*
X51209890Y-59462292D01*
X51137482Y-59587708D01*
X51126212Y-59629766D01*
X50436819Y-58940373D01*
X50422115Y-58913445D01*
X50405523Y-58887627D01*
X50404631Y-58881426D01*
X50403334Y-58879050D01*
X50400500Y-58852692D01*
X50400500Y-56471889D01*
X50420185Y-56404850D01*
X50472989Y-56359095D01*
X50542147Y-56349151D01*
X50605703Y-56378176D01*
X50612181Y-56384208D01*
X50672490Y-56444517D01*
X50863567Y-56583343D01*
X50949500Y-56627128D01*
X51074003Y-56690566D01*
X51074005Y-56690566D01*
X51074008Y-56690568D01*
X51194412Y-56729689D01*
X51298631Y-56763553D01*
X51531903Y-56800500D01*
X51531908Y-56800500D01*
X51768097Y-56800500D01*
X52001368Y-56763553D01*
X52031554Y-56753745D01*
X52225992Y-56690568D01*
X52436433Y-56583343D01*
X52627510Y-56444517D01*
X52794517Y-56277510D01*
X52933343Y-56086433D01*
X53040568Y-55875992D01*
X53113553Y-55651368D01*
X53150500Y-55418097D01*
X53150500Y-55181902D01*
X53113553Y-54948631D01*
X53040566Y-54724003D01*
X52941371Y-54529323D01*
X52933343Y-54513567D01*
X52794517Y-54322490D01*
X52627510Y-54155483D01*
X52436433Y-54016657D01*
X52225996Y-53909433D01*
X52001368Y-53836446D01*
X51768097Y-53799500D01*
X51768092Y-53799500D01*
X51531908Y-53799500D01*
X51531903Y-53799500D01*
X51361056Y-53826559D01*
X51291762Y-53817604D01*
X51238310Y-53772608D01*
X51217671Y-53705856D01*
X51236396Y-53638543D01*
X51238556Y-53635195D01*
X51309394Y-53529179D01*
X51369737Y-53383497D01*
X51400500Y-53228842D01*
X51400500Y-53071158D01*
X51400500Y-53071155D01*
X51400499Y-53071153D01*
X51369737Y-52916503D01*
X51328314Y-52816498D01*
X51309397Y-52770827D01*
X51309390Y-52770814D01*
X51221789Y-52639711D01*
X51221786Y-52639707D01*
X51110292Y-52528213D01*
X51110288Y-52528210D01*
X50977508Y-52439489D01*
X50932703Y-52385877D01*
X50923996Y-52316552D01*
X50954150Y-52253524D01*
X50998942Y-52221827D01*
X51083914Y-52186632D01*
X51247782Y-52077139D01*
X51387139Y-51937782D01*
X51496632Y-51773914D01*
X51572051Y-51591835D01*
X51610500Y-51398541D01*
X51610500Y-51201459D01*
X51610500Y-51201456D01*
X51572052Y-51008170D01*
X51572051Y-51008169D01*
X51572051Y-51008165D01*
X51538660Y-50927551D01*
X51496635Y-50826092D01*
X51496628Y-50826079D01*
X51387139Y-50662218D01*
X51387136Y-50662214D01*
X51247785Y-50522863D01*
X51247781Y-50522860D01*
X51083920Y-50413371D01*
X51083907Y-50413364D01*
X50901839Y-50337950D01*
X50901829Y-50337947D01*
X50708543Y-50299500D01*
X50708541Y-50299500D01*
X50511459Y-50299500D01*
X50511457Y-50299500D01*
X50318170Y-50337947D01*
X50318160Y-50337950D01*
X50136089Y-50413366D01*
X50043890Y-50474971D01*
X49977213Y-50495848D01*
X49909833Y-50477363D01*
X49906110Y-50474971D01*
X49857444Y-50442454D01*
X49813914Y-50413368D01*
X49813911Y-50413366D01*
X49813910Y-50413366D01*
X49631839Y-50337950D01*
X49631829Y-50337947D01*
X49438543Y-50299500D01*
X49438541Y-50299500D01*
X49241459Y-50299500D01*
X49241457Y-50299500D01*
X49048170Y-50337947D01*
X49048160Y-50337950D01*
X48866089Y-50413366D01*
X48773890Y-50474971D01*
X48707213Y-50495848D01*
X48639833Y-50477363D01*
X48636110Y-50474971D01*
X48587444Y-50442454D01*
X48543914Y-50413368D01*
X48543911Y-50413366D01*
X48543910Y-50413366D01*
X48361839Y-50337950D01*
X48361829Y-50337947D01*
X48168543Y-50299500D01*
X48168541Y-50299500D01*
X47971459Y-50299500D01*
X47971457Y-50299500D01*
X47778171Y-50337947D01*
X47778168Y-50337948D01*
X47778166Y-50337948D01*
X47778165Y-50337949D01*
X47778163Y-50337950D01*
X47675874Y-50380318D01*
X47606404Y-50387785D01*
X47554113Y-50365023D01*
X47542335Y-50356206D01*
X47542328Y-50356202D01*
X47407482Y-50305908D01*
X47407483Y-50305908D01*
X47347883Y-50299501D01*
X47347881Y-50299500D01*
X47347873Y-50299500D01*
X47347864Y-50299500D01*
X46252129Y-50299500D01*
X46252123Y-50299501D01*
X46192516Y-50305908D01*
X46063627Y-50353981D01*
X45993935Y-50358965D01*
X45932612Y-50325480D01*
X45899128Y-50264156D01*
X45898677Y-50261990D01*
X45869738Y-50116510D01*
X45869737Y-50116503D01*
X45869735Y-50116498D01*
X45809397Y-49970827D01*
X45809390Y-49970814D01*
X45721789Y-49839711D01*
X45721786Y-49839707D01*
X45610292Y-49728213D01*
X45610288Y-49728210D01*
X45479185Y-49640609D01*
X45479172Y-49640602D01*
X45333501Y-49580264D01*
X45333489Y-49580261D01*
X45178845Y-49549500D01*
X45178842Y-49549500D01*
X45021158Y-49549500D01*
X45021155Y-49549500D01*
X44866510Y-49580261D01*
X44866498Y-49580264D01*
X44720827Y-49640602D01*
X44720814Y-49640609D01*
X44589711Y-49728210D01*
X44589707Y-49728213D01*
X44478213Y-49839707D01*
X44478210Y-49839711D01*
X44390609Y-49970814D01*
X44390602Y-49970827D01*
X44330264Y-50116498D01*
X44330261Y-50116510D01*
X44299500Y-50271153D01*
X44299500Y-50428846D01*
X44330261Y-50583489D01*
X44330264Y-50583501D01*
X44390602Y-50729172D01*
X44390609Y-50729185D01*
X44478602Y-50860874D01*
X44499480Y-50927551D01*
X44499500Y-50929765D01*
X44499500Y-53210010D01*
X44479815Y-53277049D01*
X44463181Y-53297691D01*
X43368481Y-54392390D01*
X43368477Y-54392395D01*
X43346469Y-54430517D01*
X43346468Y-54430519D01*
X43341693Y-54438788D01*
X43331886Y-54455775D01*
X43281318Y-54503990D01*
X43212711Y-54517211D01*
X43147847Y-54491242D01*
X43107319Y-54434327D01*
X43100500Y-54393773D01*
X43100500Y-43635292D01*
X43628610Y-43635292D01*
X43628610Y-43871487D01*
X43665556Y-44104758D01*
X43738543Y-44329386D01*
X43845767Y-44539823D01*
X43984593Y-44730900D01*
X44151600Y-44897907D01*
X44342677Y-45036733D01*
X44442101Y-45087392D01*
X44553113Y-45143956D01*
X44553115Y-45143956D01*
X44553118Y-45143958D01*
X44673522Y-45183079D01*
X44777741Y-45216943D01*
X45011013Y-45253890D01*
X45011018Y-45253890D01*
X45247207Y-45253890D01*
X45480478Y-45216943D01*
X45705102Y-45143958D01*
X45915543Y-45036733D01*
X46106620Y-44897907D01*
X46273627Y-44730900D01*
X46412453Y-44539823D01*
X46519678Y-44329382D01*
X46592663Y-44104758D01*
X46629610Y-43871487D01*
X46629610Y-43635292D01*
X50128610Y-43635292D01*
X50128610Y-43871487D01*
X50165556Y-44104758D01*
X50238543Y-44329386D01*
X50345767Y-44539823D01*
X50484593Y-44730900D01*
X50651600Y-44897907D01*
X50842677Y-45036733D01*
X50942101Y-45087392D01*
X51053113Y-45143956D01*
X51053115Y-45143956D01*
X51053118Y-45143958D01*
X51173522Y-45183079D01*
X51277741Y-45216943D01*
X51511013Y-45253890D01*
X51511018Y-45253890D01*
X51747207Y-45253890D01*
X51980478Y-45216943D01*
X52205102Y-45143958D01*
X52415543Y-45036733D01*
X52606620Y-44897907D01*
X52773627Y-44730900D01*
X52912453Y-44539823D01*
X53019678Y-44329382D01*
X53092663Y-44104758D01*
X53129610Y-43871487D01*
X53129610Y-43635292D01*
X53092663Y-43402021D01*
X53019676Y-43177393D01*
X52912452Y-42966956D01*
X52773627Y-42775880D01*
X52606620Y-42608873D01*
X52415543Y-42470047D01*
X52205106Y-42362823D01*
X51980478Y-42289836D01*
X51747207Y-42252890D01*
X51747202Y-42252890D01*
X51511018Y-42252890D01*
X51511013Y-42252890D01*
X51277741Y-42289836D01*
X51053113Y-42362823D01*
X50842676Y-42470047D01*
X50733660Y-42549252D01*
X50651600Y-42608873D01*
X50651598Y-42608875D01*
X50651597Y-42608875D01*
X50484595Y-42775877D01*
X50484595Y-42775878D01*
X50484593Y-42775880D01*
X50424972Y-42857940D01*
X50345767Y-42966956D01*
X50238543Y-43177393D01*
X50165556Y-43402021D01*
X50128610Y-43635292D01*
X46629610Y-43635292D01*
X46592663Y-43402021D01*
X46519676Y-43177393D01*
X46412452Y-42966956D01*
X46273627Y-42775880D01*
X46106620Y-42608873D01*
X45915543Y-42470047D01*
X45705106Y-42362823D01*
X45480478Y-42289836D01*
X45247207Y-42252890D01*
X45247202Y-42252890D01*
X45011018Y-42252890D01*
X45011013Y-42252890D01*
X44777741Y-42289836D01*
X44553113Y-42362823D01*
X44342676Y-42470047D01*
X44233660Y-42549252D01*
X44151600Y-42608873D01*
X44151598Y-42608875D01*
X44151597Y-42608875D01*
X43984595Y-42775877D01*
X43984595Y-42775878D01*
X43984593Y-42775880D01*
X43924972Y-42857940D01*
X43845767Y-42966956D01*
X43738543Y-43177393D01*
X43665556Y-43402021D01*
X43628610Y-43635292D01*
X43100500Y-43635292D01*
X43100500Y-39135337D01*
X43629110Y-39135337D01*
X43629110Y-39371442D01*
X43666044Y-39604637D01*
X43739007Y-39829192D01*
X43846197Y-40039564D01*
X43906448Y-40122494D01*
X43906450Y-40122495D01*
X44605322Y-39423623D01*
X44616592Y-39465682D01*
X44689000Y-39591098D01*
X44791402Y-39693500D01*
X44916818Y-39765908D01*
X44958875Y-39777177D01*
X44260003Y-40476048D01*
X44342938Y-40536304D01*
X44553307Y-40643492D01*
X44777862Y-40716455D01*
X44777861Y-40716455D01*
X45011058Y-40753390D01*
X45247162Y-40753390D01*
X45480357Y-40716455D01*
X45704912Y-40643492D01*
X45915273Y-40536308D01*
X45915279Y-40536304D01*
X45998214Y-40476048D01*
X45998215Y-40476048D01*
X45299343Y-39777177D01*
X45341402Y-39765908D01*
X45466818Y-39693500D01*
X45569220Y-39591098D01*
X45641628Y-39465682D01*
X45652897Y-39423624D01*
X46351768Y-40122495D01*
X46351768Y-40122494D01*
X46412024Y-40039559D01*
X46412028Y-40039553D01*
X46519212Y-39829192D01*
X46592175Y-39604637D01*
X46629110Y-39371442D01*
X46629110Y-39135337D01*
X50129110Y-39135337D01*
X50129110Y-39371442D01*
X50166044Y-39604637D01*
X50239007Y-39829192D01*
X50346197Y-40039564D01*
X50406448Y-40122494D01*
X50406450Y-40122495D01*
X51105322Y-39423623D01*
X51116592Y-39465682D01*
X51189000Y-39591098D01*
X51291402Y-39693500D01*
X51416818Y-39765908D01*
X51458875Y-39777177D01*
X50760003Y-40476048D01*
X50842938Y-40536304D01*
X51053307Y-40643492D01*
X51277862Y-40716455D01*
X51277861Y-40716455D01*
X51511058Y-40753390D01*
X51747162Y-40753390D01*
X51980357Y-40716455D01*
X52204912Y-40643492D01*
X52415273Y-40536308D01*
X52415279Y-40536304D01*
X52498214Y-40476048D01*
X52498215Y-40476048D01*
X51799343Y-39777177D01*
X51841402Y-39765908D01*
X51966818Y-39693500D01*
X52069220Y-39591098D01*
X52141628Y-39465682D01*
X52152897Y-39423624D01*
X52851768Y-40122495D01*
X52851768Y-40122494D01*
X52912024Y-40039559D01*
X52912028Y-40039553D01*
X53019212Y-39829192D01*
X53092175Y-39604637D01*
X53129110Y-39371442D01*
X53129110Y-39135337D01*
X53092175Y-38902142D01*
X53019212Y-38677587D01*
X52912024Y-38467218D01*
X52851768Y-38384284D01*
X52851768Y-38384283D01*
X52152897Y-39083155D01*
X52141628Y-39041098D01*
X52069220Y-38915682D01*
X51966818Y-38813280D01*
X51841402Y-38740872D01*
X51799344Y-38729602D01*
X52498215Y-38030730D01*
X52498214Y-38030728D01*
X52415284Y-37970477D01*
X52204912Y-37863287D01*
X51980357Y-37790324D01*
X51980358Y-37790324D01*
X51747162Y-37753390D01*
X51511058Y-37753390D01*
X51277862Y-37790324D01*
X51053307Y-37863287D01*
X50842940Y-37970474D01*
X50760004Y-38030730D01*
X51458876Y-38729602D01*
X51416818Y-38740872D01*
X51291402Y-38813280D01*
X51189000Y-38915682D01*
X51116592Y-39041098D01*
X51105322Y-39083156D01*
X50406450Y-38384284D01*
X50346194Y-38467220D01*
X50239007Y-38677587D01*
X50166044Y-38902142D01*
X50129110Y-39135337D01*
X46629110Y-39135337D01*
X46592175Y-38902142D01*
X46519212Y-38677587D01*
X46412024Y-38467218D01*
X46351768Y-38384284D01*
X46351768Y-38384283D01*
X45652897Y-39083155D01*
X45641628Y-39041098D01*
X45569220Y-38915682D01*
X45466818Y-38813280D01*
X45341402Y-38740872D01*
X45299344Y-38729602D01*
X45998215Y-38030730D01*
X45998214Y-38030729D01*
X45915284Y-37970477D01*
X45704912Y-37863287D01*
X45480357Y-37790324D01*
X45480358Y-37790324D01*
X45247162Y-37753390D01*
X45011058Y-37753390D01*
X44777862Y-37790324D01*
X44553307Y-37863287D01*
X44342940Y-37970474D01*
X44260004Y-38030730D01*
X44958876Y-38729602D01*
X44916818Y-38740872D01*
X44791402Y-38813280D01*
X44689000Y-38915682D01*
X44616592Y-39041098D01*
X44605322Y-39083156D01*
X43906450Y-38384284D01*
X43846194Y-38467220D01*
X43739007Y-38677587D01*
X43666044Y-38902142D01*
X43629110Y-39135337D01*
X43100500Y-39135337D01*
X43100500Y-32454066D01*
X43100765Y-32445957D01*
X43111360Y-32284303D01*
X43116647Y-32203628D01*
X43118761Y-32187576D01*
X43165345Y-31953388D01*
X43169537Y-31937745D01*
X43246288Y-31711641D01*
X43252483Y-31696686D01*
X43358092Y-31482530D01*
X43366192Y-31468501D01*
X43498850Y-31269966D01*
X43508707Y-31257119D01*
X43666141Y-31077599D01*
X43677599Y-31066141D01*
X43857119Y-30908707D01*
X43869966Y-30898850D01*
X44068501Y-30766192D01*
X44082530Y-30758092D01*
X44296686Y-30652483D01*
X44311641Y-30646288D01*
X44537745Y-30569537D01*
X44553388Y-30565345D01*
X44787576Y-30518761D01*
X44803630Y-30516647D01*
X45025606Y-30502098D01*
X45045958Y-30500765D01*
X45054067Y-30500500D01*
X45115892Y-30500500D01*
X51484108Y-30500500D01*
X51545933Y-30500500D01*
X51554042Y-30500765D01*
G37*
%TD.AperFunction*%
%TA.AperFunction,Conductor*%
G36*
X46136474Y-56527604D02*
G01*
X46185169Y-56577710D01*
X46199500Y-56635577D01*
X46199500Y-58465040D01*
X46179815Y-58532079D01*
X46127011Y-58577834D01*
X46057853Y-58587778D01*
X46002615Y-58565359D01*
X45936170Y-58517084D01*
X45725802Y-58409897D01*
X45501247Y-58336934D01*
X45501248Y-58336934D01*
X45268052Y-58300000D01*
X45031948Y-58300000D01*
X44798751Y-58336934D01*
X44611818Y-58397673D01*
X44541977Y-58399668D01*
X44482144Y-58363588D01*
X44451316Y-58300887D01*
X44449500Y-58279742D01*
X44449500Y-56820784D01*
X44469185Y-56753745D01*
X44521989Y-56707990D01*
X44591147Y-56698046D01*
X44611812Y-56702851D01*
X44731459Y-56741727D01*
X44798631Y-56763553D01*
X45031903Y-56800500D01*
X45031908Y-56800500D01*
X45268097Y-56800500D01*
X45501368Y-56763553D01*
X45531554Y-56753745D01*
X45725992Y-56690568D01*
X45936433Y-56583343D01*
X46002615Y-56535258D01*
X46068420Y-56511779D01*
X46136474Y-56527604D01*
G37*
%TD.AperFunction*%
%TA.AperFunction,Conductor*%
G36*
X45905703Y-52113180D02*
G01*
X45923767Y-52132583D01*
X45942454Y-52157546D01*
X45942455Y-52157547D01*
X46057664Y-52243793D01*
X46057673Y-52243798D01*
X46180208Y-52289500D01*
X46236142Y-52331371D01*
X46260560Y-52396835D01*
X46245709Y-52465108D01*
X46224558Y-52493362D01*
X46178214Y-52539706D01*
X46178210Y-52539711D01*
X46090609Y-52670814D01*
X46090602Y-52670827D01*
X46030264Y-52816498D01*
X46030261Y-52816510D01*
X45999500Y-52971153D01*
X45999500Y-53128846D01*
X46030261Y-53283489D01*
X46030264Y-53283501D01*
X46090602Y-53429172D01*
X46090609Y-53429185D01*
X46178602Y-53560874D01*
X46199480Y-53627551D01*
X46199500Y-53629765D01*
X46199500Y-53964422D01*
X46179815Y-54031461D01*
X46127011Y-54077216D01*
X46057853Y-54087160D01*
X46002615Y-54064740D01*
X45936436Y-54016659D01*
X45936435Y-54016658D01*
X45936433Y-54016657D01*
X45806593Y-53950500D01*
X45725993Y-53909432D01*
X45724628Y-53908867D01*
X45724188Y-53908513D01*
X45721651Y-53907220D01*
X45721922Y-53906686D01*
X45670225Y-53865025D01*
X45648161Y-53798731D01*
X45657525Y-53746844D01*
X45659572Y-53741900D01*
X45659577Y-53741893D01*
X45700500Y-53589165D01*
X45700500Y-53431051D01*
X45700500Y-52206893D01*
X45720185Y-52139854D01*
X45772989Y-52094099D01*
X45842147Y-52084155D01*
X45905703Y-52113180D01*
G37*
%TD.AperFunction*%
%TD*%
M02*
