%TF.GenerationSoftware,KiCad,Pcbnew,9.0.7*%
%TF.CreationDate,2026-03-09T12:12:39+01:00*%
%TF.ProjectId,LumaDome_Boutons,4c756d61-446f-46d6-955f-426f75746f6e,rev?*%
%TF.SameCoordinates,Original*%
%TF.FileFunction,Soldermask,Top*%
%TF.FilePolarity,Negative*%
%FSLAX46Y46*%
G04 Gerber Fmt 4.6, Leading zero omitted, Abs format (unit mm)*
G04 Created by KiCad (PCBNEW 9.0.7) date 2026-03-09 12:12:39*
%MOMM*%
%LPD*%
G01*
G04 APERTURE LIST*
G04 Aperture macros list*
%AMRoundRect*
0 Rectangle with rounded corners*
0 $1 Rounding radius*
0 $2 $3 $4 $5 $6 $7 $8 $9 X,Y pos of 4 corners*
0 Add a 4 corners polygon primitive as box body*
4,1,4,$2,$3,$4,$5,$6,$7,$8,$9,$2,$3,0*
0 Add four circle primitives for the rounded corners*
1,1,$1+$1,$2,$3*
1,1,$1+$1,$4,$5*
1,1,$1+$1,$6,$7*
1,1,$1+$1,$8,$9*
0 Add four rect primitives between the rounded corners*
20,1,$1+$1,$2,$3,$4,$5,0*
20,1,$1+$1,$4,$5,$6,$7,0*
20,1,$1+$1,$6,$7,$8,$9,0*
20,1,$1+$1,$8,$9,$2,$3,0*%
G04 Aperture macros list end*
%ADD10R,1.000000X1.000000*%
%ADD11C,1.000000*%
%ADD12RoundRect,0.135000X-0.185000X0.135000X-0.185000X-0.135000X0.185000X-0.135000X0.185000X0.135000X0*%
%ADD13RoundRect,0.135000X0.185000X-0.135000X0.185000X0.135000X-0.185000X0.135000X-0.185000X-0.135000X0*%
%ADD14RoundRect,0.140000X0.170000X-0.140000X0.170000X0.140000X-0.170000X0.140000X-0.170000X-0.140000X0*%
%ADD15RoundRect,0.135000X-0.135000X-0.185000X0.135000X-0.185000X0.135000X0.185000X-0.135000X0.185000X0*%
%ADD16RoundRect,0.140000X0.140000X0.170000X-0.140000X0.170000X-0.140000X-0.170000X0.140000X-0.170000X0*%
%ADD17RoundRect,0.100000X-0.325000X0.100000X-0.325000X-0.100000X0.325000X-0.100000X0.325000X0.100000X0*%
%ADD18C,2.000000*%
%ADD19C,0.700000*%
%ADD20C,4.400000*%
G04 APERTURE END LIST*
D10*
%TO.C,J1*%
X46800000Y-51300000D03*
D11*
X48070000Y-51300000D03*
X49340000Y-51300000D03*
X50610000Y-51300000D03*
%TD*%
D12*
%TO.C,R4*%
X52100000Y-47510000D03*
X52100000Y-46490000D03*
%TD*%
D13*
%TO.C,R3*%
X50900000Y-46490000D03*
X50900000Y-47510000D03*
%TD*%
D14*
%TO.C,C2*%
X49750000Y-46520000D03*
X49750000Y-47480000D03*
%TD*%
D15*
%TO.C,R1*%
X47880000Y-75800000D03*
X48900000Y-75800000D03*
%TD*%
%TO.C,R2*%
X49880000Y-75800000D03*
X50900000Y-75800000D03*
%TD*%
D16*
%TO.C,C3*%
X46890000Y-63200000D03*
X45930000Y-63200000D03*
%TD*%
D15*
%TO.C,R5*%
X48000000Y-63200000D03*
X49020000Y-63200000D03*
%TD*%
%TO.C,R6*%
X50030000Y-63200000D03*
X51050000Y-63200000D03*
%TD*%
D16*
%TO.C,C1*%
X45810000Y-75800000D03*
X46770000Y-75800000D03*
%TD*%
D17*
%TO.C,D511*%
X46925000Y-48400000D03*
X46925000Y-47750000D03*
X46925000Y-47100000D03*
X45075000Y-47100000D03*
X45075000Y-47750000D03*
X45075000Y-48400000D03*
%TD*%
D18*
%TO.C,SW2*%
X45129110Y-39253390D03*
X51629110Y-39253390D03*
X45129110Y-43753390D03*
X51629110Y-43753390D03*
%TD*%
%TO.C,SW3*%
X51650000Y-72150000D03*
X45150000Y-72150000D03*
X51650000Y-67650000D03*
X45150000Y-67650000D03*
%TD*%
%TO.C,SW1*%
X45150000Y-55300000D03*
X51650000Y-55300000D03*
X45150000Y-59800000D03*
X51650000Y-59800000D03*
%TD*%
D19*
%TO.C,H102*%
X46600000Y-80250000D03*
X47083274Y-79083274D03*
X47083274Y-81416726D03*
X48250000Y-78600000D03*
D20*
X48250000Y-80250000D03*
D19*
X48250000Y-81900000D03*
X49416726Y-79083274D03*
X49416726Y-81416726D03*
X49900000Y-80250000D03*
%TD*%
%TO.C,H101*%
X46650000Y-33650000D03*
X47133274Y-32483274D03*
X47133274Y-34816726D03*
X48300000Y-32000000D03*
D20*
X48300000Y-33650000D03*
D19*
X48300000Y-35300000D03*
X49466726Y-32483274D03*
X49466726Y-34816726D03*
X49950000Y-33650000D03*
%TD*%
M02*
