%TF.GenerationSoftware,KiCad,Pcbnew,9.0.7*%
%TF.CreationDate,2026-03-09T12:12:39+01:00*%
%TF.ProjectId,LumaDome_Boutons,4c756d61-446f-46d6-955f-426f75746f6e,rev?*%
%TF.SameCoordinates,Original*%
%TF.FileFunction,Copper,L1,Top*%
%TF.FilePolarity,Positive*%
%FSLAX46Y46*%
G04 Gerber Fmt 4.6, Leading zero omitted, Abs format (unit mm)*
G04 Created by KiCad (PCBNEW 9.0.7) date 2026-03-09 12:12:39*
%MOMM*%
%LPD*%
G01*
G04 APERTURE LIST*
G04 Aperture macros list*
%AMRoundRect*
0 Rectangle with rounded corners*
0 $1 Rounding radius*
0 $2 $3 $4 $5 $6 $7 $8 $9 X,Y pos of 4 corners*
0 Add a 4 corners polygon primitive as box body*
4,1,4,$2,$3,$4,$5,$6,$7,$8,$9,$2,$3,0*
0 Add four circle primitives for the rounded corners*
1,1,$1+$1,$2,$3*
1,1,$1+$1,$4,$5*
1,1,$1+$1,$6,$7*
1,1,$1+$1,$8,$9*
0 Add four rect primitives between the rounded corners*
20,1,$1+$1,$2,$3,$4,$5,0*
20,1,$1+$1,$4,$5,$6,$7,0*
20,1,$1+$1,$6,$7,$8,$9,0*
20,1,$1+$1,$8,$9,$2,$3,0*%
G04 Aperture macros list end*
%TA.AperFunction,ComponentPad*%
%ADD10R,1.000000X1.000000*%
%TD*%
%TA.AperFunction,ComponentPad*%
%ADD11C,1.000000*%
%TD*%
%TA.AperFunction,SMDPad,CuDef*%
%ADD12RoundRect,0.135000X-0.185000X0.135000X-0.185000X-0.135000X0.185000X-0.135000X0.185000X0.135000X0*%
%TD*%
%TA.AperFunction,SMDPad,CuDef*%
%ADD13RoundRect,0.135000X0.185000X-0.135000X0.185000X0.135000X-0.185000X0.135000X-0.185000X-0.135000X0*%
%TD*%
%TA.AperFunction,SMDPad,CuDef*%
%ADD14RoundRect,0.140000X0.170000X-0.140000X0.170000X0.140000X-0.170000X0.140000X-0.170000X-0.140000X0*%
%TD*%
%TA.AperFunction,SMDPad,CuDef*%
%ADD15RoundRect,0.135000X-0.135000X-0.185000X0.135000X-0.185000X0.135000X0.185000X-0.135000X0.185000X0*%
%TD*%
%TA.AperFunction,SMDPad,CuDef*%
%ADD16RoundRect,0.140000X0.140000X0.170000X-0.140000X0.170000X-0.140000X-0.170000X0.140000X-0.170000X0*%
%TD*%
%TA.AperFunction,SMDPad,CuDef*%
%ADD17RoundRect,0.100000X-0.325000X0.100000X-0.325000X-0.100000X0.325000X-0.100000X0.325000X0.100000X0*%
%TD*%
%TA.AperFunction,ComponentPad*%
%ADD18C,2.000000*%
%TD*%
%TA.AperFunction,ComponentPad*%
%ADD19C,0.700000*%
%TD*%
%TA.AperFunction,ComponentPad*%
%ADD20C,4.400000*%
%TD*%
%TA.AperFunction,ViaPad*%
%ADD21C,0.600000*%
%TD*%
%TA.AperFunction,ViaPad*%
%ADD22C,0.450000*%
%TD*%
%TA.AperFunction,Conductor*%
%ADD23C,0.200000*%
%TD*%
G04 APERTURE END LIST*
D10*
%TO.P,J1,1,Pin_1*%
%TO.N,/Mode_button*%
X46800000Y-51300000D03*
D11*
%TO.P,J1,2,Pin_2*%
%TO.N,/Luminosity_button*%
X48070000Y-51300000D03*
%TO.P,J1,3,Pin_3*%
%TO.N,/Reset_button*%
X49340000Y-51300000D03*
%TO.P,J1,4,Pin_4*%
%TO.N,+3.3V*%
X50610000Y-51300000D03*
%TD*%
D12*
%TO.P,R4,2*%
%TO.N,+3.3V*%
X52100000Y-47510000D03*
%TO.P,R4,1*%
%TO.N,/Reset_b*%
X52100000Y-46490000D03*
%TD*%
D13*
%TO.P,R3,2*%
%TO.N,/Reset_b*%
X50900000Y-46490000D03*
%TO.P,R3,1*%
%TO.N,/Reset_button*%
X50900000Y-47510000D03*
%TD*%
D14*
%TO.P,C2,2*%
%TO.N,GND*%
X49750000Y-46520000D03*
%TO.P,C2,1*%
%TO.N,/Reset_button*%
X49750000Y-47480000D03*
%TD*%
D15*
%TO.P,R1,1*%
%TO.N,/Luminosity_button*%
X47880000Y-75800000D03*
%TO.P,R1,2*%
%TO.N,/Luminosity_b*%
X48900000Y-75800000D03*
%TD*%
%TO.P,R2,1*%
%TO.N,/Luminosity_b*%
X49880000Y-75800000D03*
%TO.P,R2,2*%
%TO.N,+3.3V*%
X50900000Y-75800000D03*
%TD*%
D16*
%TO.P,C3,1*%
%TO.N,/Mode_button*%
X46890000Y-63200000D03*
%TO.P,C3,2*%
%TO.N,GND*%
X45930000Y-63200000D03*
%TD*%
D15*
%TO.P,R5,1*%
%TO.N,/Mode_button*%
X48000000Y-63200000D03*
%TO.P,R5,2*%
%TO.N,/Mode_b*%
X49020000Y-63200000D03*
%TD*%
%TO.P,R6,1*%
%TO.N,/Mode_b*%
X50030000Y-63200000D03*
%TO.P,R6,2*%
%TO.N,+3.3V*%
X51050000Y-63200000D03*
%TD*%
D16*
%TO.P,C1,2*%
%TO.N,GND*%
X45810000Y-75800000D03*
%TO.P,C1,1*%
%TO.N,/Luminosity_button*%
X46770000Y-75800000D03*
%TD*%
D17*
%TO.P,D511,1,I/O*%
%TO.N,unconnected-(D511-I{slash}O-Pad1)*%
X46925000Y-48400000D03*
%TO.P,D511,2,GND*%
%TO.N,GND*%
X46925000Y-47750000D03*
%TO.P,D511,3,I/O*%
%TO.N,unconnected-(D511-I{slash}O-Pad3)*%
X46925000Y-47100000D03*
%TO.P,D511,4,I/O*%
%TO.N,/Reset_b*%
X45075000Y-47100000D03*
%TO.P,D511,5,I/O*%
%TO.N,/Mode_b*%
X45075000Y-47750000D03*
%TO.P,D511,6,I/O*%
%TO.N,/Luminosity_b*%
X45075000Y-48400000D03*
%TD*%
D18*
%TO.P,SW2,2,2*%
%TO.N,GND*%
X45129110Y-39253390D03*
X51629110Y-39253390D03*
%TO.P,SW2,1,1*%
%TO.N,/Reset_b*%
X45129110Y-43753390D03*
X51629110Y-43753390D03*
%TD*%
%TO.P,SW3,2,2*%
%TO.N,GND*%
X51650000Y-72150000D03*
X45150000Y-72150000D03*
%TO.P,SW3,1,1*%
%TO.N,/Luminosity_b*%
X51650000Y-67650000D03*
X45150000Y-67650000D03*
%TD*%
%TO.P,SW1,1,1*%
%TO.N,/Mode_b*%
X45150000Y-55300000D03*
X51650000Y-55300000D03*
%TO.P,SW1,2,2*%
%TO.N,GND*%
X45150000Y-59800000D03*
X51650000Y-59800000D03*
%TD*%
D19*
%TO.P,H102,1,1*%
%TO.N,GND*%
X46600000Y-80250000D03*
X47083274Y-79083274D03*
X47083274Y-81416726D03*
X48250000Y-78600000D03*
D20*
X48250000Y-80250000D03*
D19*
X48250000Y-81900000D03*
X49416726Y-79083274D03*
X49416726Y-81416726D03*
X49900000Y-80250000D03*
%TD*%
%TO.P,H101,1,1*%
%TO.N,GND*%
X46650000Y-33650000D03*
X47133274Y-32483274D03*
X47133274Y-34816726D03*
X48300000Y-32000000D03*
D20*
X48300000Y-33650000D03*
D19*
X48300000Y-35300000D03*
X49466726Y-32483274D03*
X49466726Y-34816726D03*
X49950000Y-33650000D03*
%TD*%
D21*
%TO.N,GND*%
X48950000Y-53350000D03*
X51050000Y-48800000D03*
X50100000Y-48800000D03*
X45850000Y-53050000D03*
X45750000Y-57550000D03*
X44650000Y-57600000D03*
%TO.N,+3.3V*%
X50900000Y-74650000D03*
X51050000Y-62250000D03*
X50600000Y-53150000D03*
%TO.N,GND*%
X48300000Y-47050000D03*
%TO.N,/Luminosity_b*%
X45150000Y-65150000D03*
X45100000Y-50350000D03*
%TO.N,/Luminosity_button*%
X46800000Y-74700000D03*
X47800000Y-53050000D03*
%TO.N,/Mode_button*%
X46800000Y-62250000D03*
X46800000Y-53050000D03*
D22*
%TO.N,GND*%
X53100000Y-74150000D03*
X53100000Y-75150000D03*
X43550000Y-74200000D03*
X43550000Y-75200000D03*
X53150000Y-62400000D03*
X53150000Y-63400000D03*
X43600000Y-62500000D03*
X43600000Y-63500000D03*
X53150000Y-46200000D03*
X43600000Y-46100000D03*
X43600000Y-36600000D03*
X53150000Y-36600000D03*
X53150000Y-64550000D03*
X53150000Y-65550000D03*
X43600000Y-65550000D03*
X43600000Y-64550000D03*
X52250000Y-82800000D03*
X44500000Y-82800000D03*
X53100000Y-77150000D03*
X53100000Y-79150000D03*
X47350000Y-83050000D03*
X48350000Y-83050000D03*
X51300000Y-30850000D03*
X53150000Y-49350000D03*
X43600000Y-33600000D03*
X53100000Y-80150000D03*
X45350000Y-83050000D03*
X43600000Y-50350000D03*
X46350000Y-30850000D03*
X43600000Y-35600000D03*
X53150000Y-50350000D03*
X53150000Y-34600000D03*
X52150000Y-31100000D03*
X43600000Y-51350000D03*
X53150000Y-32600000D03*
X53150000Y-52300000D03*
X43600000Y-48350000D03*
X51300000Y-83050000D03*
X53150000Y-53300000D03*
X43600000Y-49350000D03*
X43800000Y-31750000D03*
X43550000Y-80150000D03*
X43600000Y-53300000D03*
X43550000Y-77150000D03*
X53150000Y-51350000D03*
X52750000Y-31750000D03*
X50300000Y-83050000D03*
X49350000Y-83050000D03*
X43550000Y-81150000D03*
X53150000Y-48350000D03*
X52850000Y-82150000D03*
X43900000Y-82150000D03*
X53100000Y-81150000D03*
X43600000Y-47350000D03*
X53150000Y-47350000D03*
X53100000Y-78150000D03*
X43600000Y-34600000D03*
X43550000Y-79150000D03*
X53150000Y-33600000D03*
X53150000Y-35600000D03*
X43600000Y-32600000D03*
X50300000Y-30850000D03*
X46350000Y-83050000D03*
X43600000Y-52300000D03*
X45350000Y-30850000D03*
X43550000Y-78150000D03*
X47300000Y-30850000D03*
X49300000Y-30850000D03*
X48300000Y-30850000D03*
X44400000Y-31100000D03*
X53100000Y-76150000D03*
X43550000Y-76150000D03*
%TD*%
D23*
%TO.N,+3.3V*%
X52100000Y-49810000D02*
X50610000Y-51300000D01*
X52100000Y-47510000D02*
X52100000Y-49810000D01*
X50610000Y-52080786D02*
X50600000Y-52090786D01*
X50610000Y-51300000D02*
X50610000Y-52080786D01*
X50600000Y-53150000D02*
X50600000Y-52090786D01*
%TO.N,/Reset_button*%
X49340000Y-47890000D02*
X49340000Y-51300000D01*
X49750000Y-47480000D02*
X49340000Y-47890000D01*
%TO.N,/Luminosity_button*%
X47800000Y-51570000D02*
X48070000Y-51300000D01*
X47800000Y-53050000D02*
X47800000Y-51570000D01*
%TO.N,/Mode_button*%
X46800000Y-53050000D02*
X46800000Y-51300000D01*
%TO.N,+3.3V*%
X50900000Y-75800000D02*
X50900000Y-74650000D01*
X51050000Y-63200000D02*
X51050000Y-62250000D01*
%TO.N,GND*%
X47600000Y-47750000D02*
X48300000Y-47050000D01*
X46925000Y-47750000D02*
X47600000Y-47750000D01*
%TO.N,/Luminosity_b*%
X45150000Y-65150000D02*
X45150000Y-67650000D01*
X45075000Y-50325000D02*
X45100000Y-50350000D01*
X45075000Y-48400000D02*
X45075000Y-50325000D01*
%TO.N,/Mode_b*%
X44300000Y-54450000D02*
X45150000Y-55300000D01*
X44300000Y-48180130D02*
X44300000Y-54450000D01*
X44730130Y-47750000D02*
X44300000Y-48180130D01*
X45075000Y-47750000D02*
X44730130Y-47750000D01*
%TO.N,/Luminosity_b*%
X51650000Y-67650000D02*
X45150000Y-67650000D01*
X49880000Y-69420000D02*
X51650000Y-67650000D01*
X49880000Y-75800000D02*
X49880000Y-69420000D01*
X49880000Y-75800000D02*
X48900000Y-75800000D01*
%TO.N,/Luminosity_button*%
X46800000Y-75770000D02*
X46770000Y-75800000D01*
X46800000Y-74700000D02*
X46800000Y-75770000D01*
X46770000Y-75800000D02*
X47880000Y-75800000D01*
%TO.N,/Mode_b*%
X51650000Y-55300000D02*
X45150000Y-55300000D01*
X50030000Y-56920000D02*
X51650000Y-55300000D01*
X50030000Y-63200000D02*
X50030000Y-56920000D01*
X49020000Y-63200000D02*
X50030000Y-63200000D01*
%TO.N,/Mode_button*%
X48000000Y-63200000D02*
X46890000Y-63200000D01*
X46800000Y-62250000D02*
X46800000Y-63110000D01*
X46800000Y-63110000D02*
X46890000Y-63200000D01*
%TO.N,GND*%
X46000000Y-63130000D02*
X45930000Y-63200000D01*
%TO.N,/Reset_b*%
X45075000Y-47100000D02*
X45075000Y-43807500D01*
X45075000Y-43807500D02*
X45129110Y-43753390D01*
%TO.N,/Reset_button*%
X50870000Y-47480000D02*
X50900000Y-47510000D01*
X49750000Y-47480000D02*
X50870000Y-47480000D01*
%TO.N,/Reset_b*%
X50900000Y-46490000D02*
X52100000Y-46490000D01*
X51629110Y-46019110D02*
X52100000Y-46490000D01*
X51629110Y-43753390D02*
X51629110Y-46019110D01*
X45129110Y-43753390D02*
X51629110Y-43753390D01*
%TD*%
%TA.AperFunction,Conductor*%
%TO.N,GND*%
G36*
X45740666Y-50971854D02*
G01*
X45787357Y-51023833D01*
X45799500Y-51077350D01*
X45799500Y-51847870D01*
X45799501Y-51847876D01*
X45805908Y-51907483D01*
X45856202Y-52042328D01*
X45856206Y-52042335D01*
X45942452Y-52157544D01*
X45942455Y-52157547D01*
X46057664Y-52243793D01*
X46057669Y-52243796D01*
X46118833Y-52266608D01*
X46136558Y-52279877D01*
X46156703Y-52289077D01*
X46163984Y-52300407D01*
X46174766Y-52308478D01*
X46182504Y-52329226D01*
X46194477Y-52347855D01*
X46197628Y-52369770D01*
X46199184Y-52373942D01*
X46199500Y-52382790D01*
X46199500Y-52470234D01*
X46179815Y-52537273D01*
X46178602Y-52539125D01*
X46090609Y-52670814D01*
X46090602Y-52670827D01*
X46030264Y-52816498D01*
X46030261Y-52816510D01*
X45999500Y-52971153D01*
X45999500Y-53128846D01*
X46030261Y-53283489D01*
X46030264Y-53283501D01*
X46090602Y-53429172D01*
X46090609Y-53429185D01*
X46178210Y-53560288D01*
X46178213Y-53560292D01*
X46289707Y-53671786D01*
X46289711Y-53671789D01*
X46420814Y-53759390D01*
X46420827Y-53759397D01*
X46517646Y-53799500D01*
X46566503Y-53819737D01*
X46721153Y-53850499D01*
X46721156Y-53850500D01*
X46721158Y-53850500D01*
X46878844Y-53850500D01*
X46878845Y-53850499D01*
X47033497Y-53819737D01*
X47179179Y-53759394D01*
X47231110Y-53724694D01*
X47297785Y-53703816D01*
X47365165Y-53722300D01*
X47368863Y-53724676D01*
X47420821Y-53759394D01*
X47420823Y-53759395D01*
X47420825Y-53759396D01*
X47513571Y-53797812D01*
X47566503Y-53819737D01*
X47721153Y-53850499D01*
X47721156Y-53850500D01*
X47721158Y-53850500D01*
X47878844Y-53850500D01*
X47878845Y-53850499D01*
X48033497Y-53819737D01*
X48179179Y-53759394D01*
X48310289Y-53671789D01*
X48421789Y-53560289D01*
X48509394Y-53429179D01*
X48569737Y-53283497D01*
X48600500Y-53128842D01*
X48600500Y-52971158D01*
X48600500Y-52971155D01*
X48600499Y-52971153D01*
X48569738Y-52816510D01*
X48569737Y-52816503D01*
X48550812Y-52770814D01*
X48509397Y-52670827D01*
X48509390Y-52670814D01*
X48421398Y-52539125D01*
X48415747Y-52521078D01*
X48405523Y-52505169D01*
X48401071Y-52474207D01*
X48400520Y-52472447D01*
X48400500Y-52470234D01*
X48400500Y-52328889D01*
X48420185Y-52261850D01*
X48472989Y-52216095D01*
X48477006Y-52214345D01*
X48543914Y-52186632D01*
X48636109Y-52125029D01*
X48702786Y-52104151D01*
X48770166Y-52122635D01*
X48773891Y-52125029D01*
X48825994Y-52159843D01*
X48866086Y-52186632D01*
X48866088Y-52186633D01*
X48866092Y-52186635D01*
X49023950Y-52252021D01*
X49048165Y-52262051D01*
X49048169Y-52262051D01*
X49048170Y-52262052D01*
X49241456Y-52300500D01*
X49241459Y-52300500D01*
X49438543Y-52300500D01*
X49568582Y-52274632D01*
X49631835Y-52262051D01*
X49813914Y-52186632D01*
X49817047Y-52184958D01*
X49818876Y-52184577D01*
X49819543Y-52184301D01*
X49819595Y-52184427D01*
X49885450Y-52170716D01*
X49950694Y-52195716D01*
X49992064Y-52252021D01*
X49999500Y-52294316D01*
X49999500Y-52570234D01*
X49979815Y-52637273D01*
X49978602Y-52639125D01*
X49890609Y-52770814D01*
X49890602Y-52770827D01*
X49830264Y-52916498D01*
X49830261Y-52916510D01*
X49799500Y-53071153D01*
X49799500Y-53228846D01*
X49830261Y-53383489D01*
X49830264Y-53383501D01*
X49890602Y-53529172D01*
X49890609Y-53529185D01*
X49978210Y-53660288D01*
X49978213Y-53660292D01*
X50089707Y-53771786D01*
X50089711Y-53771789D01*
X50220814Y-53859390D01*
X50220827Y-53859397D01*
X50366498Y-53919735D01*
X50366503Y-53919737D01*
X50521153Y-53950499D01*
X50521156Y-53950500D01*
X50578111Y-53950500D01*
X50645150Y-53970185D01*
X50690905Y-54022989D01*
X50700849Y-54092147D01*
X50671824Y-54155703D01*
X50665792Y-54162181D01*
X50505485Y-54322487D01*
X50505485Y-54322488D01*
X50505483Y-54322490D01*
X50475811Y-54363330D01*
X50366657Y-54513566D01*
X50306417Y-54631795D01*
X50258442Y-54682591D01*
X50195932Y-54699500D01*
X46604068Y-54699500D01*
X46537029Y-54679815D01*
X46493583Y-54631795D01*
X46433343Y-54513567D01*
X46294517Y-54322490D01*
X46127510Y-54155483D01*
X45936433Y-54016657D01*
X45845227Y-53970185D01*
X45725996Y-53909433D01*
X45501368Y-53836446D01*
X45268097Y-53799500D01*
X45268092Y-53799500D01*
X45031908Y-53799500D01*
X45027036Y-53799500D01*
X45027036Y-53797812D01*
X44965827Y-53784939D01*
X44916081Y-53735876D01*
X44900500Y-53675699D01*
X44900500Y-51274500D01*
X44920185Y-51207461D01*
X44972989Y-51161706D01*
X45024500Y-51150500D01*
X45178844Y-51150500D01*
X45178845Y-51150499D01*
X45333497Y-51119737D01*
X45479179Y-51059394D01*
X45606609Y-50974248D01*
X45673286Y-50953370D01*
X45740666Y-50971854D01*
G37*
%TD.AperFunction*%
%TA.AperFunction,Conductor*%
G36*
X50364393Y-48175968D02*
G01*
X50460607Y-48232869D01*
X50501268Y-48244682D01*
X50614791Y-48277664D01*
X50614794Y-48277664D01*
X50614796Y-48277665D01*
X50650819Y-48280500D01*
X51149180Y-48280499D01*
X51185204Y-48277665D01*
X51339390Y-48232870D01*
X51340905Y-48232430D01*
X51410775Y-48232629D01*
X51469445Y-48270571D01*
X51498288Y-48334210D01*
X51499500Y-48351506D01*
X51499500Y-49509902D01*
X51479815Y-49576941D01*
X51463181Y-49597583D01*
X50797583Y-50263181D01*
X50736260Y-50296666D01*
X50709902Y-50299500D01*
X50511457Y-50299500D01*
X50318170Y-50337947D01*
X50318160Y-50337950D01*
X50136087Y-50413366D01*
X50133384Y-50415173D01*
X50131753Y-50415683D01*
X50130716Y-50416238D01*
X50130610Y-50416041D01*
X50066705Y-50436046D01*
X49999326Y-50417557D01*
X49952640Y-50365575D01*
X49940500Y-50312066D01*
X49940500Y-48374130D01*
X49960185Y-48307091D01*
X50012989Y-48261336D01*
X50029905Y-48255054D01*
X50106261Y-48232870D01*
X50176395Y-48212494D01*
X50238154Y-48175969D01*
X50305875Y-48158786D01*
X50364393Y-48175968D01*
G37*
%TD.AperFunction*%
%TA.AperFunction,Conductor*%
G36*
X50189644Y-44358177D02*
G01*
X50204849Y-44357526D01*
X50222487Y-44367821D01*
X50242081Y-44373575D01*
X50252977Y-44385619D01*
X50265191Y-44392748D01*
X50285525Y-44421592D01*
X50345767Y-44539823D01*
X50484593Y-44730900D01*
X50651600Y-44897907D01*
X50794907Y-45002026D01*
X50842678Y-45036734D01*
X50906794Y-45069402D01*
X50960904Y-45096972D01*
X51011700Y-45144946D01*
X51028610Y-45207457D01*
X51028610Y-45595500D01*
X51008925Y-45662539D01*
X50956121Y-45708294D01*
X50904610Y-45719500D01*
X50650830Y-45719500D01*
X50650808Y-45719501D01*
X50614794Y-45722335D01*
X50460611Y-45767129D01*
X50460605Y-45767131D01*
X50363905Y-45824320D01*
X50296181Y-45841503D01*
X50237663Y-45824320D01*
X50176195Y-45787968D01*
X50176190Y-45787966D01*
X50020918Y-45742855D01*
X50020912Y-45742854D01*
X50000000Y-45741209D01*
X50000000Y-46396000D01*
X49980315Y-46463039D01*
X49927511Y-46508794D01*
X49876000Y-46520000D01*
X49750000Y-46520000D01*
X49750000Y-46575500D01*
X49730315Y-46642539D01*
X49677511Y-46688294D01*
X49626000Y-46699500D01*
X49515302Y-46699500D01*
X49479008Y-46702356D01*
X49479002Y-46702357D01*
X49323610Y-46747503D01*
X49323605Y-46747506D01*
X49314766Y-46752732D01*
X49251648Y-46770000D01*
X48945496Y-46770000D01*
X48987968Y-46916194D01*
X48999911Y-46936389D01*
X49017092Y-47004113D01*
X48999911Y-47062628D01*
X48987506Y-47083604D01*
X48987504Y-47083609D01*
X48942357Y-47239002D01*
X48942356Y-47239008D01*
X48939500Y-47275302D01*
X48939500Y-47389902D01*
X48919815Y-47456941D01*
X48914815Y-47464149D01*
X48909483Y-47471280D01*
X48859480Y-47521284D01*
X48820352Y-47589057D01*
X48816684Y-47595409D01*
X48816678Y-47595418D01*
X48780423Y-47658214D01*
X48780423Y-47658215D01*
X48739499Y-47810943D01*
X48739499Y-47810945D01*
X48739499Y-47979046D01*
X48739500Y-47979059D01*
X48739500Y-50312066D01*
X48719815Y-50379105D01*
X48667011Y-50424860D01*
X48597853Y-50434804D01*
X48549302Y-50416202D01*
X48549284Y-50416238D01*
X48549001Y-50416086D01*
X48546616Y-50415173D01*
X48543911Y-50413366D01*
X48543912Y-50413366D01*
X48361839Y-50337950D01*
X48361829Y-50337947D01*
X48168543Y-50299500D01*
X48168541Y-50299500D01*
X47971459Y-50299500D01*
X47971457Y-50299500D01*
X47778171Y-50337947D01*
X47778168Y-50337948D01*
X47778166Y-50337948D01*
X47778165Y-50337949D01*
X47778163Y-50337950D01*
X47675874Y-50380318D01*
X47606404Y-50387785D01*
X47554113Y-50365023D01*
X47542335Y-50356206D01*
X47542328Y-50356202D01*
X47407482Y-50305908D01*
X47407483Y-50305908D01*
X47347883Y-50299501D01*
X47347881Y-50299500D01*
X47347873Y-50299500D01*
X47347864Y-50299500D01*
X46252129Y-50299500D01*
X46252123Y-50299501D01*
X46192516Y-50305908D01*
X46063627Y-50353981D01*
X45993935Y-50358965D01*
X45932612Y-50325480D01*
X45899128Y-50264156D01*
X45898677Y-50261990D01*
X45869738Y-50116510D01*
X45869737Y-50116503D01*
X45838827Y-50041878D01*
X45809397Y-49970827D01*
X45809390Y-49970814D01*
X45721789Y-49839711D01*
X45721786Y-49839707D01*
X45711819Y-49829740D01*
X45678334Y-49768417D01*
X45675500Y-49742059D01*
X45675500Y-49106665D01*
X45695185Y-49039626D01*
X45724012Y-49008290D01*
X45828282Y-48928282D01*
X45901625Y-48832699D01*
X45958052Y-48791497D01*
X46027798Y-48787342D01*
X46088718Y-48821554D01*
X46098372Y-48832695D01*
X46171718Y-48928282D01*
X46297159Y-49024536D01*
X46443238Y-49085044D01*
X46560639Y-49100500D01*
X47289360Y-49100499D01*
X47289363Y-49100499D01*
X47406753Y-49085046D01*
X47406757Y-49085044D01*
X47406762Y-49085044D01*
X47552841Y-49024536D01*
X47678282Y-48928282D01*
X47774536Y-48802841D01*
X47835044Y-48656762D01*
X47850500Y-48539361D01*
X47850499Y-48260640D01*
X47850499Y-48260636D01*
X47835046Y-48143246D01*
X47835044Y-48143241D01*
X47835044Y-48143238D01*
X47826162Y-48121797D01*
X47818694Y-48052328D01*
X47826164Y-48026890D01*
X47834555Y-48006632D01*
X47834555Y-48006631D01*
X47849999Y-47889330D01*
X47849999Y-47610677D01*
X47834555Y-47493370D01*
X47834554Y-47493365D01*
X47826163Y-47473106D01*
X47818694Y-47403637D01*
X47826164Y-47378199D01*
X47835044Y-47356762D01*
X47850500Y-47239361D01*
X47850499Y-46960640D01*
X47850499Y-46960638D01*
X47850499Y-46960636D01*
X47835046Y-46843246D01*
X47835044Y-46843239D01*
X47835044Y-46843238D01*
X47774536Y-46697159D01*
X47678282Y-46571718D01*
X47552841Y-46475464D01*
X47525498Y-46464138D01*
X47406765Y-46414957D01*
X47406763Y-46414956D01*
X47406762Y-46414956D01*
X47406759Y-46414955D01*
X47406757Y-46414955D01*
X47289361Y-46399500D01*
X46560636Y-46399500D01*
X46443246Y-46414953D01*
X46443237Y-46414956D01*
X46297160Y-46475463D01*
X46253722Y-46508794D01*
X46171718Y-46571718D01*
X46117376Y-46642539D01*
X46098376Y-46667300D01*
X46041948Y-46708502D01*
X45972202Y-46712657D01*
X45911281Y-46678444D01*
X45901624Y-46667300D01*
X45828282Y-46571718D01*
X45724012Y-46491709D01*
X45682811Y-46435282D01*
X45675500Y-46393334D01*
X45675500Y-46270000D01*
X48945496Y-46270000D01*
X49500000Y-46270000D01*
X49500000Y-45741210D01*
X49499999Y-45741209D01*
X49479087Y-45742854D01*
X49479081Y-45742855D01*
X49323809Y-45787966D01*
X49323804Y-45787968D01*
X49184625Y-45870278D01*
X49184616Y-45870285D01*
X49070285Y-45984616D01*
X49070278Y-45984625D01*
X48987968Y-46123804D01*
X48945496Y-46270000D01*
X45675500Y-46270000D01*
X45675500Y-45235028D01*
X45695185Y-45167989D01*
X45743203Y-45124544D01*
X45915543Y-45036733D01*
X46106620Y-44897907D01*
X46273627Y-44730900D01*
X46412453Y-44539823D01*
X46472693Y-44421594D01*
X46520668Y-44370799D01*
X46583178Y-44353890D01*
X50175042Y-44353890D01*
X50189644Y-44358177D01*
G37*
%TD.AperFunction*%
%TA.AperFunction,Conductor*%
G36*
X51554042Y-30500765D02*
G01*
X51575951Y-30502200D01*
X51796367Y-30516647D01*
X51812424Y-30518762D01*
X52046607Y-30565344D01*
X52062257Y-30569538D01*
X52288352Y-30646287D01*
X52303318Y-30652485D01*
X52517463Y-30758089D01*
X52531504Y-30766196D01*
X52730026Y-30898845D01*
X52742890Y-30908716D01*
X52922394Y-31066136D01*
X52933863Y-31077605D01*
X53091283Y-31257109D01*
X53101157Y-31269977D01*
X53233803Y-31468495D01*
X53241913Y-31482542D01*
X53347508Y-31696668D01*
X53353715Y-31711654D01*
X53430459Y-31937735D01*
X53434657Y-31953401D01*
X53481235Y-32187560D01*
X53483353Y-32203642D01*
X53499235Y-32445956D01*
X53499500Y-32454066D01*
X53499500Y-81645933D01*
X53499235Y-81654043D01*
X53483353Y-81896357D01*
X53481235Y-81912439D01*
X53434657Y-82146598D01*
X53430459Y-82162264D01*
X53353715Y-82388345D01*
X53347508Y-82403331D01*
X53241913Y-82617457D01*
X53233803Y-82631504D01*
X53101157Y-82830022D01*
X53091283Y-82842890D01*
X52933863Y-83022394D01*
X52922394Y-83033863D01*
X52742890Y-83191283D01*
X52730022Y-83201157D01*
X52531504Y-83333803D01*
X52517457Y-83341913D01*
X52303331Y-83447508D01*
X52288345Y-83453715D01*
X52062264Y-83530459D01*
X52046598Y-83534657D01*
X51812439Y-83581235D01*
X51796357Y-83583353D01*
X51554043Y-83599235D01*
X51545933Y-83599500D01*
X45054067Y-83599500D01*
X45045957Y-83599235D01*
X44803642Y-83583353D01*
X44787562Y-83581235D01*
X44674798Y-83558804D01*
X44553401Y-83534657D01*
X44537735Y-83530459D01*
X44311654Y-83453715D01*
X44296674Y-83447510D01*
X44082541Y-83341912D01*
X44068495Y-83333803D01*
X43869977Y-83201157D01*
X43857109Y-83191283D01*
X43677605Y-83033863D01*
X43666136Y-83022394D01*
X43508716Y-82842890D01*
X43498842Y-82830022D01*
X43366196Y-82631504D01*
X43358089Y-82617463D01*
X43252485Y-82403318D01*
X43246287Y-82388352D01*
X43169538Y-82162257D01*
X43165344Y-82146607D01*
X43118762Y-81912424D01*
X43116647Y-81896367D01*
X43100765Y-81654042D01*
X43100500Y-81645933D01*
X43100500Y-76050000D01*
X45031210Y-76050000D01*
X45032854Y-76070910D01*
X45077968Y-76226195D01*
X45160278Y-76365374D01*
X45160285Y-76365383D01*
X45274616Y-76479714D01*
X45274625Y-76479721D01*
X45413804Y-76562031D01*
X45560000Y-76604504D01*
X45560000Y-76050000D01*
X45031210Y-76050000D01*
X43100500Y-76050000D01*
X43100500Y-75549999D01*
X45031209Y-75549999D01*
X45031210Y-75550000D01*
X45560000Y-75550000D01*
X45560000Y-74995494D01*
X45559998Y-74995493D01*
X45413809Y-75037965D01*
X45413806Y-75037967D01*
X45274625Y-75120278D01*
X45274616Y-75120285D01*
X45160285Y-75234616D01*
X45160278Y-75234625D01*
X45077968Y-75373804D01*
X45077966Y-75373809D01*
X45032855Y-75529081D01*
X45032854Y-75529087D01*
X45031209Y-75549999D01*
X43100500Y-75549999D01*
X43100500Y-72031947D01*
X43650000Y-72031947D01*
X43650000Y-72268052D01*
X43686934Y-72501247D01*
X43759897Y-72725802D01*
X43867087Y-72936174D01*
X43927338Y-73019104D01*
X43927340Y-73019105D01*
X44626212Y-72320233D01*
X44637482Y-72362292D01*
X44709890Y-72487708D01*
X44812292Y-72590110D01*
X44937708Y-72662518D01*
X44979765Y-72673787D01*
X44280893Y-73372658D01*
X44363828Y-73432914D01*
X44574197Y-73540102D01*
X44798752Y-73613065D01*
X44798751Y-73613065D01*
X45031948Y-73650000D01*
X45268052Y-73650000D01*
X45501247Y-73613065D01*
X45725802Y-73540102D01*
X45936163Y-73432918D01*
X45936169Y-73432914D01*
X46019104Y-73372658D01*
X46019105Y-73372658D01*
X45320233Y-72673787D01*
X45362292Y-72662518D01*
X45487708Y-72590110D01*
X45590110Y-72487708D01*
X45662518Y-72362292D01*
X45673787Y-72320233D01*
X46372658Y-73019105D01*
X46372658Y-73019104D01*
X46432914Y-72936169D01*
X46432918Y-72936163D01*
X46540102Y-72725802D01*
X46613065Y-72501247D01*
X46650000Y-72268052D01*
X46650000Y-72031947D01*
X46613065Y-71798752D01*
X46540102Y-71574197D01*
X46432914Y-71363828D01*
X46372658Y-71280894D01*
X46372658Y-71280893D01*
X45673787Y-71979765D01*
X45662518Y-71937708D01*
X45590110Y-71812292D01*
X45487708Y-71709890D01*
X45362292Y-71637482D01*
X45320234Y-71626212D01*
X46019105Y-70927340D01*
X46019104Y-70927338D01*
X45936174Y-70867087D01*
X45725802Y-70759897D01*
X45501247Y-70686934D01*
X45501248Y-70686934D01*
X45268052Y-70650000D01*
X45031948Y-70650000D01*
X44798752Y-70686934D01*
X44574197Y-70759897D01*
X44363830Y-70867084D01*
X44280894Y-70927340D01*
X44979766Y-71626212D01*
X44937708Y-71637482D01*
X44812292Y-71709890D01*
X44709890Y-71812292D01*
X44637482Y-71937708D01*
X44626212Y-71979766D01*
X43927340Y-71280894D01*
X43867084Y-71363830D01*
X43759897Y-71574197D01*
X43686934Y-71798752D01*
X43650000Y-72031947D01*
X43100500Y-72031947D01*
X43100500Y-67531902D01*
X43649500Y-67531902D01*
X43649500Y-67768097D01*
X43686446Y-68001368D01*
X43759433Y-68225996D01*
X43808854Y-68322989D01*
X43866657Y-68436433D01*
X44005483Y-68627510D01*
X44172490Y-68794517D01*
X44363567Y-68933343D01*
X44375608Y-68939478D01*
X44574003Y-69040566D01*
X44574005Y-69040566D01*
X44574008Y-69040568D01*
X44662476Y-69069313D01*
X44798631Y-69113553D01*
X45031903Y-69150500D01*
X45031908Y-69150500D01*
X45268097Y-69150500D01*
X45501368Y-69113553D01*
X45534468Y-69102798D01*
X45725992Y-69040568D01*
X45936433Y-68933343D01*
X46127510Y-68794517D01*
X46294517Y-68627510D01*
X46433343Y-68436433D01*
X46493583Y-68318204D01*
X46541558Y-68267409D01*
X46604068Y-68250500D01*
X49900903Y-68250500D01*
X49967942Y-68270185D01*
X50013697Y-68322989D01*
X50023641Y-68392147D01*
X49994616Y-68455703D01*
X49988588Y-68462176D01*
X49656250Y-68794514D01*
X49511286Y-68939478D01*
X49399481Y-69051282D01*
X49399479Y-69051285D01*
X49349361Y-69138094D01*
X49349359Y-69138096D01*
X49320425Y-69188209D01*
X49320424Y-69188210D01*
X49320423Y-69188215D01*
X49279499Y-69340943D01*
X49279499Y-69340945D01*
X49279499Y-69509046D01*
X49279500Y-69509059D01*
X49279500Y-74859990D01*
X49259815Y-74927029D01*
X49207011Y-74972784D01*
X49141571Y-74982193D01*
X49141521Y-74982832D01*
X49138682Y-74982608D01*
X49137853Y-74982728D01*
X49135666Y-74982371D01*
X49099181Y-74979500D01*
X48700830Y-74979500D01*
X48700808Y-74979501D01*
X48664794Y-74982335D01*
X48510611Y-75027129D01*
X48510604Y-75027132D01*
X48453119Y-75061128D01*
X48385395Y-75078309D01*
X48326881Y-75061128D01*
X48269395Y-75027132D01*
X48269388Y-75027129D01*
X48115208Y-74982335D01*
X48115202Y-74982334D01*
X48079188Y-74979500D01*
X47711681Y-74979500D01*
X47644642Y-74959815D01*
X47598887Y-74907011D01*
X47588943Y-74837853D01*
X47590064Y-74831308D01*
X47600500Y-74778844D01*
X47600500Y-74621155D01*
X47600499Y-74621153D01*
X47569738Y-74466510D01*
X47569737Y-74466503D01*
X47569735Y-74466498D01*
X47509397Y-74320827D01*
X47509390Y-74320814D01*
X47421789Y-74189711D01*
X47421786Y-74189707D01*
X47310292Y-74078213D01*
X47310288Y-74078210D01*
X47179185Y-73990609D01*
X47179172Y-73990602D01*
X47033501Y-73930264D01*
X47033489Y-73930261D01*
X46878845Y-73899500D01*
X46878842Y-73899500D01*
X46721158Y-73899500D01*
X46721155Y-73899500D01*
X46566510Y-73930261D01*
X46566498Y-73930264D01*
X46420827Y-73990602D01*
X46420814Y-73990609D01*
X46289711Y-74078210D01*
X46289707Y-74078213D01*
X46178213Y-74189707D01*
X46178210Y-74189711D01*
X46090609Y-74320814D01*
X46090602Y-74320827D01*
X46030264Y-74466498D01*
X46030261Y-74466510D01*
X45999500Y-74621153D01*
X45999500Y-74778846D01*
X46028976Y-74927029D01*
X46030263Y-74933497D01*
X46050507Y-74982371D01*
X46050561Y-74982500D01*
X46060000Y-75029953D01*
X46060000Y-75301645D01*
X46042734Y-75364763D01*
X46037507Y-75373600D01*
X46037504Y-75373608D01*
X45992357Y-75529002D01*
X45992356Y-75529008D01*
X45989500Y-75565302D01*
X45989500Y-76034697D01*
X45992356Y-76070991D01*
X45992357Y-76070997D01*
X46037503Y-76226389D01*
X46037505Y-76226393D01*
X46037506Y-76226395D01*
X46042732Y-76235233D01*
X46060000Y-76298352D01*
X46060000Y-76604503D01*
X46206194Y-76562032D01*
X46226384Y-76550091D01*
X46294108Y-76532906D01*
X46352629Y-76550089D01*
X46373605Y-76562494D01*
X46414587Y-76574400D01*
X46529002Y-76607642D01*
X46529005Y-76607642D01*
X46529007Y-76607643D01*
X46565310Y-76610500D01*
X46565318Y-76610500D01*
X46974682Y-76610500D01*
X46974690Y-76610500D01*
X47010993Y-76607643D01*
X47010995Y-76607642D01*
X47010997Y-76607642D01*
X47166389Y-76562496D01*
X47166389Y-76562495D01*
X47166395Y-76562494D01*
X47256612Y-76509139D01*
X47324331Y-76491958D01*
X47382847Y-76509140D01*
X47490607Y-76572869D01*
X47490614Y-76572871D01*
X47644791Y-76617664D01*
X47644794Y-76617664D01*
X47644796Y-76617665D01*
X47680819Y-76620500D01*
X48079180Y-76620499D01*
X48115204Y-76617665D01*
X48269393Y-76572869D01*
X48326882Y-76538869D01*
X48394602Y-76521688D01*
X48453117Y-76538869D01*
X48510607Y-76572869D01*
X48510610Y-76572869D01*
X48510612Y-76572871D01*
X48664791Y-76617664D01*
X48664794Y-76617664D01*
X48664796Y-76617665D01*
X48700819Y-76620500D01*
X49099180Y-76620499D01*
X49135204Y-76617665D01*
X49289393Y-76572869D01*
X49326879Y-76550699D01*
X49394602Y-76533516D01*
X49453120Y-76550699D01*
X49490607Y-76572869D01*
X49490614Y-76572871D01*
X49644791Y-76617664D01*
X49644794Y-76617664D01*
X49644796Y-76617665D01*
X49680819Y-76620500D01*
X50079180Y-76620499D01*
X50115204Y-76617665D01*
X50269393Y-76572869D01*
X50326882Y-76538869D01*
X50394602Y-76521688D01*
X50453117Y-76538869D01*
X50510607Y-76572869D01*
X50510610Y-76572869D01*
X50510612Y-76572871D01*
X50664791Y-76617664D01*
X50664794Y-76617664D01*
X50664796Y-76617665D01*
X50700819Y-76620500D01*
X51099180Y-76620499D01*
X51135204Y-76617665D01*
X51289393Y-76572869D01*
X51427598Y-76491135D01*
X51541135Y-76377598D01*
X51622869Y-76239393D01*
X51667665Y-76085204D01*
X51670500Y-76049181D01*
X51670499Y-75550820D01*
X51667665Y-75514796D01*
X51622869Y-75360607D01*
X51552275Y-75241240D01*
X51535093Y-75173517D01*
X51555905Y-75109230D01*
X51609394Y-75029179D01*
X51669737Y-74883497D01*
X51700500Y-74728842D01*
X51700500Y-74571158D01*
X51700500Y-74571155D01*
X51700499Y-74571153D01*
X51679684Y-74466510D01*
X51669737Y-74416503D01*
X51630102Y-74320814D01*
X51609397Y-74270827D01*
X51609390Y-74270814D01*
X51521789Y-74139711D01*
X51521786Y-74139707D01*
X51410292Y-74028213D01*
X51410288Y-74028210D01*
X51279185Y-73940609D01*
X51279172Y-73940602D01*
X51133501Y-73880264D01*
X51133489Y-73880261D01*
X50978845Y-73849500D01*
X50978842Y-73849500D01*
X50821158Y-73849500D01*
X50821155Y-73849500D01*
X50666510Y-73880261D01*
X50666499Y-73880264D01*
X50651948Y-73886291D01*
X50582478Y-73893757D01*
X50520000Y-73862479D01*
X50484350Y-73802389D01*
X50480500Y-73771728D01*
X50480500Y-73397773D01*
X50500185Y-73330734D01*
X50552989Y-73284979D01*
X50622147Y-73275035D01*
X50677386Y-73297455D01*
X50863828Y-73432914D01*
X51074197Y-73540102D01*
X51298752Y-73613065D01*
X51298751Y-73613065D01*
X51531948Y-73650000D01*
X51768052Y-73650000D01*
X52001247Y-73613065D01*
X52225802Y-73540102D01*
X52436163Y-73432918D01*
X52436169Y-73432914D01*
X52519104Y-73372658D01*
X52519105Y-73372658D01*
X51820234Y-72673787D01*
X51862292Y-72662518D01*
X51987708Y-72590110D01*
X52090110Y-72487708D01*
X52162518Y-72362292D01*
X52173787Y-72320234D01*
X52872658Y-73019105D01*
X52872658Y-73019104D01*
X52932914Y-72936169D01*
X52932918Y-72936163D01*
X53040102Y-72725802D01*
X53113065Y-72501247D01*
X53150000Y-72268052D01*
X53150000Y-72031947D01*
X53113065Y-71798752D01*
X53040102Y-71574197D01*
X52932914Y-71363828D01*
X52872658Y-71280894D01*
X52872658Y-71280893D01*
X52173787Y-71979765D01*
X52162518Y-71937708D01*
X52090110Y-71812292D01*
X51987708Y-71709890D01*
X51862292Y-71637482D01*
X51820233Y-71626212D01*
X52519105Y-70927340D01*
X52519104Y-70927338D01*
X52436174Y-70867087D01*
X52225802Y-70759897D01*
X52001247Y-70686934D01*
X52001248Y-70686934D01*
X51768052Y-70650000D01*
X51531948Y-70650000D01*
X51298752Y-70686934D01*
X51074197Y-70759897D01*
X50863825Y-70867087D01*
X50677385Y-71002544D01*
X50611579Y-71026024D01*
X50543525Y-71010199D01*
X50494830Y-70960093D01*
X50480500Y-70902226D01*
X50480500Y-69720096D01*
X50500185Y-69653057D01*
X50516815Y-69632419D01*
X51046437Y-69102796D01*
X51107758Y-69069313D01*
X51172433Y-69072547D01*
X51298632Y-69113553D01*
X51386110Y-69127408D01*
X51531903Y-69150500D01*
X51531908Y-69150500D01*
X51768097Y-69150500D01*
X52001368Y-69113553D01*
X52034468Y-69102798D01*
X52225992Y-69040568D01*
X52436433Y-68933343D01*
X52627510Y-68794517D01*
X52794517Y-68627510D01*
X52933343Y-68436433D01*
X53040568Y-68225992D01*
X53113553Y-68001368D01*
X53150500Y-67768097D01*
X53150500Y-67531902D01*
X53113553Y-67298631D01*
X53040566Y-67074003D01*
X52933342Y-66863566D01*
X52794517Y-66672490D01*
X52627510Y-66505483D01*
X52436433Y-66366657D01*
X52436429Y-66366655D01*
X52225996Y-66259433D01*
X52001368Y-66186446D01*
X51768097Y-66149500D01*
X51768092Y-66149500D01*
X51531908Y-66149500D01*
X51531903Y-66149500D01*
X51298631Y-66186446D01*
X51074003Y-66259433D01*
X50863566Y-66366657D01*
X50754550Y-66445862D01*
X50672490Y-66505483D01*
X50672488Y-66505485D01*
X50672487Y-66505485D01*
X50505485Y-66672487D01*
X50505485Y-66672488D01*
X50505483Y-66672490D01*
X50445862Y-66754550D01*
X50366657Y-66863566D01*
X50306417Y-66981795D01*
X50258442Y-67032591D01*
X50195932Y-67049500D01*
X46604068Y-67049500D01*
X46537029Y-67029815D01*
X46493583Y-66981795D01*
X46433342Y-66863566D01*
X46294517Y-66672490D01*
X46127510Y-66505483D01*
X46031971Y-66436070D01*
X45936431Y-66366655D01*
X45818204Y-66306415D01*
X45767409Y-66258441D01*
X45750500Y-66195931D01*
X45750500Y-65729765D01*
X45770185Y-65662726D01*
X45771398Y-65660874D01*
X45859390Y-65529185D01*
X45859390Y-65529184D01*
X45859394Y-65529179D01*
X45919737Y-65383497D01*
X45950500Y-65228842D01*
X45950500Y-65071158D01*
X45950500Y-65071155D01*
X45950499Y-65071153D01*
X45919738Y-64916510D01*
X45919737Y-64916503D01*
X45919735Y-64916498D01*
X45859397Y-64770827D01*
X45859390Y-64770814D01*
X45771789Y-64639711D01*
X45771786Y-64639707D01*
X45660292Y-64528213D01*
X45660288Y-64528210D01*
X45529185Y-64440609D01*
X45529172Y-64440602D01*
X45383501Y-64380264D01*
X45383489Y-64380261D01*
X45228845Y-64349500D01*
X45228842Y-64349500D01*
X45071158Y-64349500D01*
X45071155Y-64349500D01*
X44916510Y-64380261D01*
X44916498Y-64380264D01*
X44770827Y-64440602D01*
X44770814Y-64440609D01*
X44639711Y-64528210D01*
X44639707Y-64528213D01*
X44528213Y-64639707D01*
X44528210Y-64639711D01*
X44440609Y-64770814D01*
X44440602Y-64770827D01*
X44380264Y-64916498D01*
X44380261Y-64916510D01*
X44349500Y-65071153D01*
X44349500Y-65228846D01*
X44380261Y-65383489D01*
X44380264Y-65383501D01*
X44440602Y-65529172D01*
X44440609Y-65529185D01*
X44528602Y-65660874D01*
X44549480Y-65727551D01*
X44549500Y-65729765D01*
X44549500Y-66195931D01*
X44529815Y-66262970D01*
X44481796Y-66306415D01*
X44363568Y-66366655D01*
X44229896Y-66463774D01*
X44172490Y-66505483D01*
X44172488Y-66505485D01*
X44172487Y-66505485D01*
X44005485Y-66672487D01*
X44005485Y-66672488D01*
X44005483Y-66672490D01*
X43945862Y-66754550D01*
X43866657Y-66863566D01*
X43759433Y-67074003D01*
X43686446Y-67298631D01*
X43649500Y-67531902D01*
X43100500Y-67531902D01*
X43100500Y-63450000D01*
X45151210Y-63450000D01*
X45152854Y-63470910D01*
X45197968Y-63626195D01*
X45280278Y-63765374D01*
X45280285Y-63765383D01*
X45394616Y-63879714D01*
X45394625Y-63879721D01*
X45533804Y-63962031D01*
X45680000Y-64004504D01*
X45680000Y-63450000D01*
X45151210Y-63450000D01*
X43100500Y-63450000D01*
X43100500Y-62949999D01*
X45151209Y-62949999D01*
X45151210Y-62950000D01*
X45680000Y-62950000D01*
X45680000Y-62395494D01*
X45679998Y-62395493D01*
X45533809Y-62437965D01*
X45533806Y-62437967D01*
X45394625Y-62520278D01*
X45394616Y-62520285D01*
X45280285Y-62634616D01*
X45280278Y-62634625D01*
X45197968Y-62773804D01*
X45197966Y-62773809D01*
X45152855Y-62929081D01*
X45152854Y-62929087D01*
X45151209Y-62949999D01*
X43100500Y-62949999D01*
X43100500Y-59681947D01*
X43650000Y-59681947D01*
X43650000Y-59918052D01*
X43686934Y-60151247D01*
X43759897Y-60375802D01*
X43867087Y-60586174D01*
X43927338Y-60669104D01*
X43927340Y-60669105D01*
X44626212Y-59970233D01*
X44637482Y-60012292D01*
X44709890Y-60137708D01*
X44812292Y-60240110D01*
X44937708Y-60312518D01*
X44979765Y-60323787D01*
X44280893Y-61022658D01*
X44363828Y-61082914D01*
X44574197Y-61190102D01*
X44798752Y-61263065D01*
X44798751Y-61263065D01*
X45031948Y-61300000D01*
X45268052Y-61300000D01*
X45501247Y-61263065D01*
X45725802Y-61190102D01*
X45936163Y-61082918D01*
X45936169Y-61082914D01*
X46019104Y-61022658D01*
X46019105Y-61022658D01*
X45320233Y-60323787D01*
X45362292Y-60312518D01*
X45487708Y-60240110D01*
X45590110Y-60137708D01*
X45662518Y-60012292D01*
X45673787Y-59970234D01*
X46372658Y-60669105D01*
X46372658Y-60669104D01*
X46432914Y-60586169D01*
X46432918Y-60586163D01*
X46540102Y-60375802D01*
X46613065Y-60151247D01*
X46650000Y-59918052D01*
X46650000Y-59681947D01*
X46613065Y-59448752D01*
X46540102Y-59224197D01*
X46432914Y-59013828D01*
X46372658Y-58930894D01*
X46372658Y-58930893D01*
X45673787Y-59629765D01*
X45662518Y-59587708D01*
X45590110Y-59462292D01*
X45487708Y-59359890D01*
X45362292Y-59287482D01*
X45320234Y-59276212D01*
X46019105Y-58577340D01*
X46019104Y-58577338D01*
X45936174Y-58517087D01*
X45725802Y-58409897D01*
X45501247Y-58336934D01*
X45501248Y-58336934D01*
X45268052Y-58300000D01*
X45031948Y-58300000D01*
X44798752Y-58336934D01*
X44574197Y-58409897D01*
X44363830Y-58517084D01*
X44280894Y-58577340D01*
X44979766Y-59276212D01*
X44937708Y-59287482D01*
X44812292Y-59359890D01*
X44709890Y-59462292D01*
X44637482Y-59587708D01*
X44626212Y-59629766D01*
X43927340Y-58930894D01*
X43867084Y-59013830D01*
X43759897Y-59224197D01*
X43686934Y-59448752D01*
X43650000Y-59681947D01*
X43100500Y-59681947D01*
X43100500Y-43635292D01*
X43628610Y-43635292D01*
X43628610Y-43871487D01*
X43665556Y-44104758D01*
X43738543Y-44329386D01*
X43845767Y-44539823D01*
X43984593Y-44730900D01*
X44151600Y-44897907D01*
X44294907Y-45002026D01*
X44342678Y-45036734D01*
X44406794Y-45069402D01*
X44457590Y-45117376D01*
X44474500Y-45179887D01*
X44474500Y-46393334D01*
X44454815Y-46460373D01*
X44425987Y-46491709D01*
X44321718Y-46571718D01*
X44225463Y-46697160D01*
X44164956Y-46843237D01*
X44164955Y-46843239D01*
X44149500Y-46960638D01*
X44149500Y-47239363D01*
X44164953Y-47356753D01*
X44164957Y-47356768D01*
X44165230Y-47357425D01*
X44165294Y-47358022D01*
X44167059Y-47364608D01*
X44166031Y-47364883D01*
X44167364Y-47377296D01*
X44174348Y-47396020D01*
X44171019Y-47411321D01*
X44172692Y-47426895D01*
X44163743Y-47444766D01*
X44159496Y-47464293D01*
X44142798Y-47486597D01*
X44141410Y-47489371D01*
X44138345Y-47492547D01*
X44137387Y-47493505D01*
X44128825Y-47501303D01*
X44113646Y-47513880D01*
X44112568Y-47514833D01*
X44112566Y-47514835D01*
X44102838Y-47525013D01*
X44049020Y-47581324D01*
X44045269Y-47585624D01*
X43988323Y-47642569D01*
X43931285Y-47699608D01*
X43931284Y-47699609D01*
X43924218Y-47706676D01*
X43924217Y-47706676D01*
X43924214Y-47706678D01*
X43924215Y-47706679D01*
X43819480Y-47811414D01*
X43797944Y-47848716D01*
X43740423Y-47948345D01*
X43699499Y-48101073D01*
X43699499Y-48101075D01*
X43699499Y-48269176D01*
X43699500Y-48269189D01*
X43699500Y-54363330D01*
X43699499Y-54363348D01*
X43699499Y-54529054D01*
X43699498Y-54529054D01*
X43740423Y-54681787D01*
X43741258Y-54683801D01*
X43741455Y-54685636D01*
X43742527Y-54689636D01*
X43741903Y-54689803D01*
X43748726Y-54753270D01*
X43744627Y-54769570D01*
X43686447Y-54948627D01*
X43686447Y-54948630D01*
X43649500Y-55181902D01*
X43649500Y-55418097D01*
X43686446Y-55651368D01*
X43759433Y-55875996D01*
X43808854Y-55972989D01*
X43866657Y-56086433D01*
X44005483Y-56277510D01*
X44172490Y-56444517D01*
X44363567Y-56583343D01*
X44462991Y-56634002D01*
X44574003Y-56690566D01*
X44574005Y-56690566D01*
X44574008Y-56690568D01*
X44662476Y-56719313D01*
X44798631Y-56763553D01*
X45031903Y-56800500D01*
X45031908Y-56800500D01*
X45268097Y-56800500D01*
X45501368Y-56763553D01*
X45534468Y-56752798D01*
X45725992Y-56690568D01*
X45936433Y-56583343D01*
X46127510Y-56444517D01*
X46294517Y-56277510D01*
X46433343Y-56086433D01*
X46493583Y-55968204D01*
X46541558Y-55917409D01*
X46604068Y-55900500D01*
X49900903Y-55900500D01*
X49967942Y-55920185D01*
X50013697Y-55972989D01*
X50023641Y-56042147D01*
X49994616Y-56105703D01*
X49988584Y-56112181D01*
X49661286Y-56439478D01*
X49549481Y-56551282D01*
X49549479Y-56551285D01*
X49499361Y-56638094D01*
X49499359Y-56638096D01*
X49470425Y-56688209D01*
X49470424Y-56688210D01*
X49467515Y-56699067D01*
X49429499Y-56840943D01*
X49429499Y-56840945D01*
X49429499Y-57009046D01*
X49429500Y-57009059D01*
X49429500Y-62267820D01*
X49409815Y-62334859D01*
X49357011Y-62380614D01*
X49287853Y-62390558D01*
X49270908Y-62386897D01*
X49266726Y-62385682D01*
X49255202Y-62382334D01*
X49219181Y-62379500D01*
X48820830Y-62379500D01*
X48820808Y-62379501D01*
X48784794Y-62382335D01*
X48630611Y-62427129D01*
X48630604Y-62427132D01*
X48573119Y-62461128D01*
X48505395Y-62478309D01*
X48446881Y-62461128D01*
X48389395Y-62427132D01*
X48389388Y-62427129D01*
X48235208Y-62382335D01*
X48235202Y-62382334D01*
X48199181Y-62379500D01*
X47800830Y-62379500D01*
X47800808Y-62379501D01*
X47764797Y-62382334D01*
X47761206Y-62383377D01*
X47759092Y-62383991D01*
X47689224Y-62383791D01*
X47630555Y-62345849D01*
X47601712Y-62282210D01*
X47600500Y-62264915D01*
X47600500Y-62171155D01*
X47600499Y-62171153D01*
X47569738Y-62016510D01*
X47569737Y-62016503D01*
X47569735Y-62016498D01*
X47509397Y-61870827D01*
X47509390Y-61870814D01*
X47421789Y-61739711D01*
X47421786Y-61739707D01*
X47310292Y-61628213D01*
X47310288Y-61628210D01*
X47179185Y-61540609D01*
X47179172Y-61540602D01*
X47033501Y-61480264D01*
X47033489Y-61480261D01*
X46878845Y-61449500D01*
X46878842Y-61449500D01*
X46721158Y-61449500D01*
X46721155Y-61449500D01*
X46566510Y-61480261D01*
X46566498Y-61480264D01*
X46420827Y-61540602D01*
X46420814Y-61540609D01*
X46289711Y-61628210D01*
X46289707Y-61628213D01*
X46178213Y-61739707D01*
X46178210Y-61739711D01*
X46090609Y-61870814D01*
X46090602Y-61870827D01*
X46030264Y-62016498D01*
X46030261Y-62016510D01*
X45999500Y-62171153D01*
X45999500Y-62328846D01*
X46030261Y-62483489D01*
X46030264Y-62483501D01*
X46090602Y-62629171D01*
X46090608Y-62629182D01*
X46134389Y-62694706D01*
X46155266Y-62761384D01*
X46150362Y-62798191D01*
X46112357Y-62929002D01*
X46112356Y-62929008D01*
X46109500Y-62965302D01*
X46109500Y-63434697D01*
X46112356Y-63470991D01*
X46112357Y-63470997D01*
X46157503Y-63626389D01*
X46157505Y-63626393D01*
X46157506Y-63626395D01*
X46162732Y-63635233D01*
X46180000Y-63698352D01*
X46180000Y-64004503D01*
X46326194Y-63962032D01*
X46346384Y-63950091D01*
X46414108Y-63932906D01*
X46472629Y-63950089D01*
X46493605Y-63962494D01*
X46534587Y-63974400D01*
X46649002Y-64007642D01*
X46649005Y-64007642D01*
X46649007Y-64007643D01*
X46685310Y-64010500D01*
X46685318Y-64010500D01*
X47094682Y-64010500D01*
X47094690Y-64010500D01*
X47130993Y-64007643D01*
X47130995Y-64007642D01*
X47130997Y-64007642D01*
X47286389Y-63962496D01*
X47286389Y-63962495D01*
X47286395Y-63962494D01*
X47376612Y-63909139D01*
X47444331Y-63891958D01*
X47502847Y-63909140D01*
X47610607Y-63972869D01*
X47610614Y-63972871D01*
X47764791Y-64017664D01*
X47764794Y-64017664D01*
X47764796Y-64017665D01*
X47800819Y-64020500D01*
X48199180Y-64020499D01*
X48235204Y-64017665D01*
X48389393Y-63972869D01*
X48446882Y-63938869D01*
X48514602Y-63921688D01*
X48573117Y-63938869D01*
X48630607Y-63972869D01*
X48630610Y-63972869D01*
X48630612Y-63972871D01*
X48784791Y-64017664D01*
X48784794Y-64017664D01*
X48784796Y-64017665D01*
X48820819Y-64020500D01*
X49219180Y-64020499D01*
X49255204Y-64017665D01*
X49409393Y-63972869D01*
X49461882Y-63941826D01*
X49529602Y-63924645D01*
X49588117Y-63941826D01*
X49640607Y-63972869D01*
X49640610Y-63972869D01*
X49640612Y-63972871D01*
X49794791Y-64017664D01*
X49794794Y-64017664D01*
X49794796Y-64017665D01*
X49830819Y-64020500D01*
X50229180Y-64020499D01*
X50265204Y-64017665D01*
X50419393Y-63972869D01*
X50476882Y-63938869D01*
X50544602Y-63921688D01*
X50603117Y-63938869D01*
X50660607Y-63972869D01*
X50660610Y-63972869D01*
X50660612Y-63972871D01*
X50814791Y-64017664D01*
X50814794Y-64017664D01*
X50814796Y-64017665D01*
X50850819Y-64020500D01*
X51249180Y-64020499D01*
X51285204Y-64017665D01*
X51439393Y-63972869D01*
X51577598Y-63891135D01*
X51691135Y-63777598D01*
X51772869Y-63639393D01*
X51817665Y-63485204D01*
X51820500Y-63449181D01*
X51820499Y-62950820D01*
X51817665Y-62914796D01*
X51772869Y-62760607D01*
X51764403Y-62746291D01*
X51747222Y-62678567D01*
X51758859Y-62635552D01*
X51757063Y-62634808D01*
X51819735Y-62483501D01*
X51819737Y-62483497D01*
X51850500Y-62328842D01*
X51850500Y-62171158D01*
X51850500Y-62171155D01*
X51850499Y-62171153D01*
X51819738Y-62016510D01*
X51819737Y-62016503D01*
X51819735Y-62016498D01*
X51759397Y-61870827D01*
X51759390Y-61870814D01*
X51671789Y-61739711D01*
X51671786Y-61739707D01*
X51560292Y-61628213D01*
X51560288Y-61628210D01*
X51429185Y-61540609D01*
X51429175Y-61540604D01*
X51392979Y-61525611D01*
X51338575Y-61481769D01*
X51316511Y-61415475D01*
X51333791Y-61347776D01*
X51384928Y-61300166D01*
X51453688Y-61287761D01*
X51459831Y-61288577D01*
X51531949Y-61300000D01*
X51768052Y-61300000D01*
X52001247Y-61263065D01*
X52225802Y-61190102D01*
X52436163Y-61082918D01*
X52436169Y-61082914D01*
X52519104Y-61022658D01*
X52519105Y-61022658D01*
X51820234Y-60323787D01*
X51862292Y-60312518D01*
X51987708Y-60240110D01*
X52090110Y-60137708D01*
X52162518Y-60012292D01*
X52173787Y-59970234D01*
X52872658Y-60669105D01*
X52872658Y-60669104D01*
X52932914Y-60586169D01*
X52932918Y-60586163D01*
X53040102Y-60375802D01*
X53113065Y-60151247D01*
X53150000Y-59918052D01*
X53150000Y-59681947D01*
X53113065Y-59448752D01*
X53040102Y-59224197D01*
X52932914Y-59013828D01*
X52872658Y-58930894D01*
X52872658Y-58930893D01*
X52173787Y-59629765D01*
X52162518Y-59587708D01*
X52090110Y-59462292D01*
X51987708Y-59359890D01*
X51862292Y-59287482D01*
X51820233Y-59276212D01*
X52519105Y-58577340D01*
X52519104Y-58577338D01*
X52436174Y-58517087D01*
X52225802Y-58409897D01*
X52001247Y-58336934D01*
X52001248Y-58336934D01*
X51768052Y-58300000D01*
X51531948Y-58300000D01*
X51298752Y-58336934D01*
X51074197Y-58409897D01*
X50863829Y-58517084D01*
X50827385Y-58543563D01*
X50761578Y-58567042D01*
X50693524Y-58551216D01*
X50644830Y-58501110D01*
X50630500Y-58443244D01*
X50630500Y-57220096D01*
X50650185Y-57153057D01*
X50666815Y-57132419D01*
X51046437Y-56752796D01*
X51107758Y-56719313D01*
X51172433Y-56722547D01*
X51298632Y-56763553D01*
X51386110Y-56777408D01*
X51531903Y-56800500D01*
X51531908Y-56800500D01*
X51768097Y-56800500D01*
X52001368Y-56763553D01*
X52034468Y-56752798D01*
X52225992Y-56690568D01*
X52436433Y-56583343D01*
X52627510Y-56444517D01*
X52794517Y-56277510D01*
X52933343Y-56086433D01*
X53040568Y-55875992D01*
X53113553Y-55651368D01*
X53150500Y-55418097D01*
X53150500Y-55181902D01*
X53113553Y-54948631D01*
X53040566Y-54724003D01*
X52984002Y-54612991D01*
X52933343Y-54513567D01*
X52794517Y-54322490D01*
X52627510Y-54155483D01*
X52436433Y-54016657D01*
X52345227Y-53970185D01*
X52225996Y-53909433D01*
X52001368Y-53836446D01*
X51768097Y-53799500D01*
X51768092Y-53799500D01*
X51531908Y-53799500D01*
X51531903Y-53799500D01*
X51361056Y-53826559D01*
X51291762Y-53817604D01*
X51238310Y-53772608D01*
X51217671Y-53705856D01*
X51236396Y-53638543D01*
X51238556Y-53635195D01*
X51309394Y-53529179D01*
X51369737Y-53383497D01*
X51400500Y-53228842D01*
X51400500Y-53071158D01*
X51400500Y-53071155D01*
X51400499Y-53071153D01*
X51369737Y-52916503D01*
X51328314Y-52816498D01*
X51309397Y-52770827D01*
X51309390Y-52770814D01*
X51221398Y-52639125D01*
X51200520Y-52572447D01*
X51200500Y-52570234D01*
X51200500Y-52213488D01*
X51203138Y-52188047D01*
X51203840Y-52184697D01*
X51210500Y-52159843D01*
X51210500Y-52152927D01*
X51213138Y-52140343D01*
X51223818Y-52120426D01*
X51230185Y-52098745D01*
X51245910Y-52079230D01*
X51246158Y-52078769D01*
X51246383Y-52078643D01*
X51246819Y-52078103D01*
X51387136Y-51937785D01*
X51387139Y-51937782D01*
X51496632Y-51773914D01*
X51572051Y-51591835D01*
X51610500Y-51398541D01*
X51610500Y-51201459D01*
X51610500Y-51200096D01*
X51630185Y-51133057D01*
X51646819Y-51112415D01*
X52016809Y-50742425D01*
X52458506Y-50300728D01*
X52458511Y-50300724D01*
X52468714Y-50290520D01*
X52468716Y-50290520D01*
X52580520Y-50178716D01*
X52659526Y-50041873D01*
X52659577Y-50041785D01*
X52700500Y-49889058D01*
X52700500Y-49730943D01*
X52700500Y-48179595D01*
X52720185Y-48112556D01*
X52736814Y-48091918D01*
X52791135Y-48037598D01*
X52872869Y-47899393D01*
X52917665Y-47745204D01*
X52920500Y-47709181D01*
X52920499Y-47310820D01*
X52917665Y-47274796D01*
X52872869Y-47120607D01*
X52838869Y-47063117D01*
X52821688Y-46995398D01*
X52838869Y-46936882D01*
X52872869Y-46879393D01*
X52883374Y-46843237D01*
X52917664Y-46725208D01*
X52917665Y-46725202D01*
X52920499Y-46689188D01*
X52920500Y-46689181D01*
X52920499Y-46290820D01*
X52917665Y-46254796D01*
X52872869Y-46100607D01*
X52791135Y-45962402D01*
X52791133Y-45962400D01*
X52791130Y-45962396D01*
X52677603Y-45848869D01*
X52677595Y-45848863D01*
X52539393Y-45767131D01*
X52539388Y-45767129D01*
X52385208Y-45722335D01*
X52385202Y-45722334D01*
X52349169Y-45719499D01*
X52348735Y-45719482D01*
X52348668Y-45719459D01*
X52346754Y-45719309D01*
X52346791Y-45718827D01*
X52282521Y-45697177D01*
X52238878Y-45642615D01*
X52229610Y-45595578D01*
X52229610Y-45207457D01*
X52249295Y-45140418D01*
X52297315Y-45096972D01*
X52415543Y-45036733D01*
X52606620Y-44897907D01*
X52773627Y-44730900D01*
X52912453Y-44539823D01*
X53019678Y-44329382D01*
X53092663Y-44104758D01*
X53129610Y-43871487D01*
X53129610Y-43635292D01*
X53092663Y-43402021D01*
X53019676Y-43177393D01*
X52912452Y-42966956D01*
X52773627Y-42775880D01*
X52606620Y-42608873D01*
X52415543Y-42470047D01*
X52205106Y-42362823D01*
X51980478Y-42289836D01*
X51747207Y-42252890D01*
X51747202Y-42252890D01*
X51511018Y-42252890D01*
X51511013Y-42252890D01*
X51277741Y-42289836D01*
X51053113Y-42362823D01*
X50842676Y-42470047D01*
X50733660Y-42549252D01*
X50651600Y-42608873D01*
X50651598Y-42608875D01*
X50651597Y-42608875D01*
X50484595Y-42775877D01*
X50484595Y-42775878D01*
X50484593Y-42775880D01*
X50424972Y-42857940D01*
X50345767Y-42966956D01*
X50285527Y-43085185D01*
X50237552Y-43135981D01*
X50175042Y-43152890D01*
X46583178Y-43152890D01*
X46516139Y-43133205D01*
X46472693Y-43085185D01*
X46412452Y-42966956D01*
X46273627Y-42775880D01*
X46106620Y-42608873D01*
X45915543Y-42470047D01*
X45705106Y-42362823D01*
X45480478Y-42289836D01*
X45247207Y-42252890D01*
X45247202Y-42252890D01*
X45011018Y-42252890D01*
X45011013Y-42252890D01*
X44777741Y-42289836D01*
X44553113Y-42362823D01*
X44342676Y-42470047D01*
X44233660Y-42549252D01*
X44151600Y-42608873D01*
X44151598Y-42608875D01*
X44151597Y-42608875D01*
X43984595Y-42775877D01*
X43984595Y-42775878D01*
X43984593Y-42775880D01*
X43924972Y-42857940D01*
X43845767Y-42966956D01*
X43738543Y-43177393D01*
X43665556Y-43402021D01*
X43628610Y-43635292D01*
X43100500Y-43635292D01*
X43100500Y-39135337D01*
X43629110Y-39135337D01*
X43629110Y-39371442D01*
X43666044Y-39604637D01*
X43739007Y-39829192D01*
X43846197Y-40039564D01*
X43906448Y-40122494D01*
X43906450Y-40122495D01*
X44605322Y-39423623D01*
X44616592Y-39465682D01*
X44689000Y-39591098D01*
X44791402Y-39693500D01*
X44916818Y-39765908D01*
X44958875Y-39777177D01*
X44260003Y-40476048D01*
X44342938Y-40536304D01*
X44553307Y-40643492D01*
X44777862Y-40716455D01*
X44777861Y-40716455D01*
X45011058Y-40753390D01*
X45247162Y-40753390D01*
X45480357Y-40716455D01*
X45704912Y-40643492D01*
X45915273Y-40536308D01*
X45915279Y-40536304D01*
X45998214Y-40476048D01*
X45998215Y-40476048D01*
X45299343Y-39777177D01*
X45341402Y-39765908D01*
X45466818Y-39693500D01*
X45569220Y-39591098D01*
X45641628Y-39465682D01*
X45652897Y-39423624D01*
X46351768Y-40122495D01*
X46351768Y-40122494D01*
X46412024Y-40039559D01*
X46412028Y-40039553D01*
X46519212Y-39829192D01*
X46592175Y-39604637D01*
X46629110Y-39371442D01*
X46629110Y-39135337D01*
X50129110Y-39135337D01*
X50129110Y-39371442D01*
X50166044Y-39604637D01*
X50239007Y-39829192D01*
X50346197Y-40039564D01*
X50406448Y-40122494D01*
X50406450Y-40122495D01*
X51105322Y-39423623D01*
X51116592Y-39465682D01*
X51189000Y-39591098D01*
X51291402Y-39693500D01*
X51416818Y-39765908D01*
X51458875Y-39777177D01*
X50760003Y-40476048D01*
X50842938Y-40536304D01*
X51053307Y-40643492D01*
X51277862Y-40716455D01*
X51277861Y-40716455D01*
X51511058Y-40753390D01*
X51747162Y-40753390D01*
X51980357Y-40716455D01*
X52204912Y-40643492D01*
X52415273Y-40536308D01*
X52415279Y-40536304D01*
X52498214Y-40476048D01*
X52498215Y-40476048D01*
X51799343Y-39777177D01*
X51841402Y-39765908D01*
X51966818Y-39693500D01*
X52069220Y-39591098D01*
X52141628Y-39465682D01*
X52152897Y-39423624D01*
X52851768Y-40122495D01*
X52851768Y-40122494D01*
X52912024Y-40039559D01*
X52912028Y-40039553D01*
X53019212Y-39829192D01*
X53092175Y-39604637D01*
X53129110Y-39371442D01*
X53129110Y-39135337D01*
X53092175Y-38902142D01*
X53019212Y-38677587D01*
X52912024Y-38467218D01*
X52851768Y-38384284D01*
X52851768Y-38384283D01*
X52152897Y-39083155D01*
X52141628Y-39041098D01*
X52069220Y-38915682D01*
X51966818Y-38813280D01*
X51841402Y-38740872D01*
X51799344Y-38729602D01*
X52498215Y-38030730D01*
X52498214Y-38030728D01*
X52415284Y-37970477D01*
X52204912Y-37863287D01*
X51980357Y-37790324D01*
X51980358Y-37790324D01*
X51747162Y-37753390D01*
X51511058Y-37753390D01*
X51277862Y-37790324D01*
X51053307Y-37863287D01*
X50842940Y-37970474D01*
X50760004Y-38030730D01*
X51458876Y-38729602D01*
X51416818Y-38740872D01*
X51291402Y-38813280D01*
X51189000Y-38915682D01*
X51116592Y-39041098D01*
X51105322Y-39083156D01*
X50406450Y-38384284D01*
X50346194Y-38467220D01*
X50239007Y-38677587D01*
X50166044Y-38902142D01*
X50129110Y-39135337D01*
X46629110Y-39135337D01*
X46592175Y-38902142D01*
X46519212Y-38677587D01*
X46412024Y-38467218D01*
X46351768Y-38384284D01*
X46351768Y-38384283D01*
X45652897Y-39083155D01*
X45641628Y-39041098D01*
X45569220Y-38915682D01*
X45466818Y-38813280D01*
X45341402Y-38740872D01*
X45299344Y-38729602D01*
X45998215Y-38030730D01*
X45998214Y-38030729D01*
X45915284Y-37970477D01*
X45704912Y-37863287D01*
X45480357Y-37790324D01*
X45480358Y-37790324D01*
X45247162Y-37753390D01*
X45011058Y-37753390D01*
X44777862Y-37790324D01*
X44553307Y-37863287D01*
X44342940Y-37970474D01*
X44260004Y-38030730D01*
X44958876Y-38729602D01*
X44916818Y-38740872D01*
X44791402Y-38813280D01*
X44689000Y-38915682D01*
X44616592Y-39041098D01*
X44605322Y-39083156D01*
X43906450Y-38384284D01*
X43846194Y-38467220D01*
X43739007Y-38677587D01*
X43666044Y-38902142D01*
X43629110Y-39135337D01*
X43100500Y-39135337D01*
X43100500Y-32454066D01*
X43100765Y-32445957D01*
X43111360Y-32284303D01*
X43116647Y-32203628D01*
X43118761Y-32187576D01*
X43165345Y-31953388D01*
X43169537Y-31937745D01*
X43246288Y-31711641D01*
X43252483Y-31696686D01*
X43358092Y-31482530D01*
X43366192Y-31468501D01*
X43498850Y-31269966D01*
X43508707Y-31257119D01*
X43666141Y-31077599D01*
X43677599Y-31066141D01*
X43857119Y-30908707D01*
X43869966Y-30898850D01*
X44068501Y-30766192D01*
X44082530Y-30758092D01*
X44296686Y-30652483D01*
X44311641Y-30646288D01*
X44537745Y-30569537D01*
X44553388Y-30565345D01*
X44787576Y-30518761D01*
X44803630Y-30516647D01*
X45025606Y-30502098D01*
X45045958Y-30500765D01*
X45054067Y-30500500D01*
X45115892Y-30500500D01*
X51484108Y-30500500D01*
X51545933Y-30500500D01*
X51554042Y-30500765D01*
G37*
%TD.AperFunction*%
%TD*%
%TA.AperFunction,Conductor*%
%TO.N,/Luminosity_b*%
G36*
X45083252Y-48407293D02*
G01*
X45083294Y-48407335D01*
X45259463Y-48584386D01*
X45262869Y-48592667D01*
X45259421Y-48600932D01*
X45253363Y-48604130D01*
X45241996Y-48606299D01*
X45241992Y-48606301D01*
X45217188Y-48623388D01*
X45217188Y-48623389D01*
X45187500Y-48679035D01*
X45187500Y-48679036D01*
X45176563Y-48745164D01*
X45176562Y-48745169D01*
X45175324Y-48788633D01*
X45171663Y-48796805D01*
X45163629Y-48800000D01*
X44986411Y-48800000D01*
X44978138Y-48796573D01*
X44974715Y-48788593D01*
X44973737Y-48749538D01*
X44973737Y-48749531D01*
X44963385Y-48693814D01*
X44958209Y-48665955D01*
X44926643Y-48617688D01*
X44926642Y-48617687D01*
X44903919Y-48604711D01*
X44901513Y-48604319D01*
X44897470Y-48603660D01*
X44889856Y-48598948D01*
X44887804Y-48590232D01*
X44891057Y-48583862D01*
X45066706Y-48407334D01*
X45074971Y-48403887D01*
X45083252Y-48407293D01*
G37*
%TD.AperFunction*%
%TD*%
%TA.AperFunction,Conductor*%
%TO.N,/Mode_b*%
G36*
X45067040Y-47748316D02*
G01*
X45074878Y-47752647D01*
X45077246Y-47757877D01*
X45108772Y-47933699D01*
X45106859Y-47942447D01*
X45099321Y-47947280D01*
X45095355Y-47947309D01*
X44972680Y-47927108D01*
X44886604Y-47926334D01*
X44886603Y-47926334D01*
X44886602Y-47926334D01*
X44870033Y-47928247D01*
X44806560Y-47935575D01*
X44806559Y-47935575D01*
X44670854Y-47978855D01*
X44670852Y-47978856D01*
X44587318Y-48036702D01*
X44578565Y-48038595D01*
X44572384Y-48035356D01*
X44447247Y-47910219D01*
X44443820Y-47901946D01*
X44447247Y-47893673D01*
X44448328Y-47892718D01*
X44512994Y-47842511D01*
X44513228Y-47842336D01*
X44564453Y-47805002D01*
X44632281Y-47742637D01*
X44646574Y-47709304D01*
X44652984Y-47703052D01*
X44658635Y-47702290D01*
X45067040Y-47748316D01*
G37*
%TD.AperFunction*%
%TD*%
%TA.AperFunction,Conductor*%
%TO.N,/Reset_b*%
G36*
X45171862Y-46703427D02*
G01*
X45175285Y-46711407D01*
X45176262Y-46750461D01*
X45176262Y-46750468D01*
X45191790Y-46834043D01*
X45191790Y-46834044D01*
X45191791Y-46834045D01*
X45223357Y-46882312D01*
X45243297Y-46893699D01*
X45246082Y-46895289D01*
X45252529Y-46896339D01*
X45260142Y-46901050D01*
X45262195Y-46909766D01*
X45258941Y-46916138D01*
X45083294Y-47092664D01*
X45075029Y-47096112D01*
X45066748Y-47092706D01*
X45066706Y-47092664D01*
X44890536Y-46915613D01*
X44887130Y-46907332D01*
X44890578Y-46899067D01*
X44896632Y-46895870D01*
X44908008Y-46893699D01*
X44932813Y-46876611D01*
X44962500Y-46820963D01*
X44973438Y-46754833D01*
X44974676Y-46711366D01*
X44978337Y-46703195D01*
X44986371Y-46700000D01*
X45163589Y-46700000D01*
X45171862Y-46703427D01*
G37*
%TD.AperFunction*%
%TD*%
M02*
